<?xml version="1.0" encoding="utf-8"?>
<!-- Generator: Adobe Illustrator 18.0.0, SVG Export Plug-In . SVG Version: 6.00 Build 0)  -->
<!DOCTYPE svg PUBLIC "-//W3C//DTD SVG 1.1//EN" "http://www.w3.org/Graphics/SVG/1.1/DTD/svg11.dtd">
<svg version="1.1" id="Layer_1" xmlns="http://www.w3.org/2000/svg" xmlns:xlink="http://www.w3.org/1999/xlink" x="0px" y="0px"
	 viewBox="0 0 612 792" enable-background="new 0 0 612 792" xml:space="preserve">
<path fill="#1C3664" d="M602.1,381.8l1.3-5.2l0.7,3.3L602.1,381.8L602.1,381.8z M603.6,345.9l-1.3-4l0.7-2.6v-2.6l2.7-2.6l1.3-3.3
	l-0.7-1.9l0.7-1.9h1.3l0.7,3.3l-0.7,4l-3.4,4l-0.7,5.9l0.7,2.6L603.6,345.9L603.6,345.9z M578.4,303.3l2.7,3.3l1.3,2.6l0.7-2.6
	l-1.3-1.3v-1.9h-2l-1.3-0.6V303.3L578.4,303.3z M575,283v-1.3l-1.3,1.3H575L575,283z M517.9,219.5l1.3-2.6l-2.7-2.6l2.7-0.6l1.3-0.6
	l0.7,4.6l-1.3,2.6L517.9,219.5L517.9,219.5z M469,82.7l0.7,1.9l1.3-1.3L469,82.7L469,82.7z M466.9,89.8v3.3l1.3-0.6h1.3l-0.7-1.9
	L466.9,89.8L466.9,89.8z M418.8,193.9l0.7,1.3l1.3-0.6v-1.3L418.8,193.9L418.8,193.9z M415.3,187.4l1.3,1.3l2-0.6l2-1.9l3.4-0.6
	v-1.3l-4.1-0.6l-3.4,1.9C416,185.4,415.3,187.4,415.3,187.4L415.3,187.4z M384.8,173.6l-1.3-1.9l0.7-2.6l1.3,1.9L384.8,173.6
	L384.8,173.6z M375.3,142.9l-0.7-1.3h-0.7v-1.3l2-1.3l1.3,1.9L375.3,142.9L375.3,142.9z M379.4,146.1l-2,1.3h1.3l2-0.6l4.1,0.6
	l0.7-1.9l-1.3-0.6h-1.3l-0.7-0.6l2.7-1.9v-0.6l-2.7,0.6v-2.6l-1.3,0.6l-0.7,1.3h-2l0.7,0.6l-0.7,0.6L379.4,146.1L379.4,146.1z
	 M381.4,102.2l2,0.6l0.7-1.9l2.7-1.9l-1.3-1.3l-3.4,3.3L381.4,102.2L381.4,102.2z M378,104.2l1.3,0.6v-1.3L378,104.2L378,104.2z
	 M375.3,105.5l0.7,1.3l0.7-1.3H375.3L375.3,105.5z M370.5,108.1h2v-1.3L370.5,108.1L370.5,108.1z M366.5,112.7v-1.9l2.7-1.3h2.7
	l-0.7,1.3h-2.7L366.5,112.7L366.5,112.7z M361.7,113.4l1.3,0.6l2.7-1.3v-0.6L361.7,113.4L361.7,113.4z M323.6,101.6l-1.3-2.6
	l0.7-1.9l2-0.6l-0.7,2.6L323.6,101.6L323.6,101.6z M290.4,100.3l0.7,3.3l2.7,2.6l2,2.6l4.1,1.9l4.8-5.2h1.3v-1.3l1.3-1.3l-1.3-0.6
	l-0.7-1.9h-1.3l-2,0.6h-4.1l-1.3,1.9l-2-0.6v-0.6h-2l-2-1.9h-0.7L290.4,100.3L290.4,100.3z M289.7,100.9l1.3,5.2l2.7,0.6v1.3
	l-3.4-0.6h-1.3l-3.4-0.6v-1.3h0.7l1.3,0.6v-2h-0.7v-1.3l-0.7-0.6L289.7,100.9L289.7,100.9z M194.6,163.1l1.3,1.3l2.7-0.6l-2-2.6
	C196,161.2,193.9,163.1,194.6,163.1L194.6,163.1z M195.2,173v-3.3l-1.3-1.9v4L195.2,173L195.2,173z M207.5,152h-2l0.7-1.3h1.3V152
	L207.5,152z M49.3,250.2l-0.7-1.3l2.7-4v3.3L49.3,250.2L49.3,250.2z M5.1,325.5l1.3-5.9v4C6.4,323,5.1,324.9,5.1,325.5L5.1,325.5z
	 M4.4,336l-1.3-5.2l1.3-3.3l1.3,4.6L4.4,336L4.4,336z M335.2,522.6l-0.7,1.9l0.7,1.3h2l-1.3,1.3h2.7l1.3-0.6l2,0.6l-2,1.9l-5.4-0.6
	l-1.3,1.3h-1.3v0.6h-1.3l-1.3-1.3l-2,0.6l-2.7-0.6h-1.3h-3.4l-2-1.3v-1.9l3.4-1.9l8.1-1.9h2.7L335.2,522.6L335.2,522.6z
	 M432.3,591.4l1.3-0.6l0.7,1.3v0.6L432.3,591.4L432.3,591.4z M448,601.3l1.3,1.3l1.3-1.3H448L448,601.3z M412,639.3l0.7,1.9l2,0.6
	l1.3-1.3l-2-1.9L412,639.3L412,639.3z M413.3,634v1.9h1.3v-2.6L413.3,634L413.3,634z M411.3,637.2l-2.1-1.3l0.7-1.9l2-1.3v2.6
	L411.3,637.2L411.3,637.2z M401.8,626.7v-1.9l-0.7-2.6l2-2.6l-0.7-2.6l2-2.6l1.3-1.3l2,1.3l-0.7,4l0.7,1.9l-2,3.3l-0.7,1.3l-2.7,1.9
	h-0.7V626.7z M460.8,634l5.4-1.9v-2.6l-4.8-4.6l-2,0.6l0.7,2.6l-1.3,2.6l0.7,1.9L460.8,634L460.8,634z M458.2,637.2l0.7,1.9h4.8
	l2,0.6l0.7-1.3l-2.7-2.6l-3.4,0.6L458.2,637.2L458.2,637.2z M460.8,643.8l-1.3-1.3l2-0.6L460.8,643.8L460.8,643.8z M444.5,690.3
	v-2.6l1.3,1.3L444.5,690.3L444.5,690.3z M427.5,707.3l-2-1.3l2-3.3v-2.6l1.3-0.6l0.7,1.3l-1.3,2.6L427.5,707.3L427.5,707.3z
	 M407.9,706v-3.3l1.3-1.9l-2.7-0.6l-0.7-4l0.7-1.3l-1.3-1.3v-7.8l0.7-1.3l-2-1.3V678l1.3-2.6l2.7,2.6h3.4l-3.4-2.6v-1.9l-1.3-0.6
	l0.7-4l-0.7-5.2l-0.7-6.5l0.7-4l-0.7-5.9v-1.9l0.7-0.6v-3.3l0.7-1.3l2.7,1.9l2.7,1.3l2,1.9l0.7-1.3l1.3-1.3v4l5.4,2.6l4.1,3.3
	l2.7,1.9l2-1.3h2.7l2,1.9v-2.6l2-1.3l8.9,0.6l1.3-1.3l2-1.3h1.3l0.7,0.6l1.3-2.6h1.3l3.4,2.6l1.3,1.9l-1.3,7.2l-2.7,3.3v5.2l-2,3.3
	l0.7,3.3l-0.7,1.3v2.6l-1.3,3.3l-0.7-1.9l-0.7-4l-2,2.6l-2,1.3v5.9l-1.3,1.3h-2v3.3l-2,2.6l2,1.3v1.9l-3.4,4.6l-1.3-0.6l-2.7,1.3v-4
	l2.7,1.3l0.7-2.6l-1.3-1.3L435,695l-1.3,2.6l-2-0.6v-3.3l-1.3,3.3l-2.7,1.9l-0.7,1.3l-2-1.9l-1.3,4.6l-0.7,2.6l-2.7,4h-2.2l-1.3-2.6
	v-2.6l-2,3.3l-2-1.9l-2.7,0.6C409.2,706.7,407.9,706,407.9,706L407.9,706z M9.9,480.7l2,1.9h2l6.1,5.9v2.6l1.3,1.3l3.4,0.6l1.3,1.3
	l4.1,0.6l2-0.6l0.8,1.5l3.4,0.6l4.1-0.6l0.7,1.9l2-1.3l0.7,0.6l4.1-0.6h3.4l0.7-1.9l2-0.6l2.7-3.3l4.1,0.6v-3.3l2.7-1.3h2l2,1.9
	l2-3.3l1.3,0.6l1.3-0.6l0.7-3.3l8.1-4.6l3.4,0.6l2,1.3l2.7-1.9l8.1-1.3l0.7,1.3l4.8-1.3l1.3,0.6h2l2.7-1.3l1.3,3.3h2l2-1.3l1.3,1.3
	l2.7-1.3h6.1l-0.7,2.6l1.3,0.6l3.4-3.3l3.4,0.6l4.1-2.6l1.3-3.3l1.3-0.6l3.4-3.3l2-5.2l3.4-2.6l4.1-1.3l1.3,0.6l6.1-1.9l8.1-4.6
	l4.8-4.6l2-0.6h2h2.7l4.1,1.9h4.1l2.7-0.6h6.1l8.1-2.6l4.8-1.3l3.4-2.6h2l4.1-2.6l6.1-0.6l16.3-1.3l5.4,1.3h3.4l4.8-1.3l3.4,0.6
	l4.8,4l3.4,5.9l2.7,0.6l2-1.3l2-0.6l1.3,1.3l1.3-0.6l3.4,0.6l2.7,3.3l4.1,0.6l1.3-0.6l6.8,4.6l-0.7,2.6h2l2,1.9l2,3.3h-2.7l-0.7,1.9
	l2.7,5.2h2.7l2.7,3.3l0.7,4l-0.7,3.3l3.4,7.2l-0.4,3.2l1.3,1.9l-0.7,4l-1.3,1.9l-2-1.3l-0.7,0.6l2,2.6l2,1.3l1.3,2.6l2.7-0.6
	l2.7,1.9v-2.6l-1.3-1.9l1.3-1.9l1.3-2.6l2-0.6l1.3-2.6l2.7-1.3l0.7-2.6l2.7-3.3l6.1-3.3l0.7-1.9h1.3l4.8-1.9l1.3-4l4.1-5.9l4.1-0.6
	l1.3-2.6l-1.3-3.3l0.7-3.3l2,4v4v3.3l-2,1.9l-0.7,7.2l-6.1,4l-0.7,3.3l-2,1.9v3.3l-3.4,4.6l1.3,1.3l-2.7,7.2l-6.8-0.6l-1.3,4l-2,3.3
	v1.3l4.1-1.3l4.1-1.9l4.8,1.9l4.8-7.8l1.3-7.2l4.1-4l1.3,1.3v6.5l1.3,4l-1.3,0.6l0.7,6.5v7.2l-5.4,1.9l0.7,1.9l3.4-0.6h4.1l1.3-1.9
	l2.7-0.6l3.4-2.6l2.7,0.6h2l-1.3,2.6l-1.1,2.5h-2.7l-0.7,1.3l2.7,4l1.3,3.3l2,4.6v5.2l-0.7,6.5l-4.1,4l0.7,1.9l-0.7,5.2l2.7,1.9l2,4
	l0.7,4.6l5.4,6.5l4.1,0.6l2.7,1.9l1.3,3.3h2.7l0.7-1.3l2-0.6l4.1,1.3l3.4,4h3.4l3.4,3.3l0.7,2.6l2.7,0.6l2.7,3.3h2l0.7-1.9l5.4-2.6
	l2-2.6h3.4l4.1-4l2.7,0.6l1.3-1.3l-0.7-1.3l-2.7,1.3l1.3-1.9l6.1-4l4.8,3.3v3.3l-6.1,3.3l1.3,2.6l2,0.6l2-1.9l2.7-1.9l2.7,1.3v2.6
	h-2l-2.7,1.9l4.1,4.6l0.7,4.6l1.3-0.6h2v2.6l2,3.3l2-3.3v-4l-2,1.9l-0.7-1.3l2-1.9h7.4l0.7,1.3l0.7-1.3l3.4-4.6l7.4-4.6l4.1-4h-1.6
	l-2,0.6l0.7-0.6l-1.3-0.6h2.7h4.1l5.4-1.3l11.5-1.9l9.5,1.9l4.1-1.9v-2.9h2.7l2.7-1.9l2.7-5.2l-1.3-6.5v-3.3l4.8-4.6v-8.6l2-3.3
	l1.3-5.9l2.7-1.3v-2.6L528,526l2.7-0.6l1.3-5.9l3.4-4.6l2-5.9l3.4-3.3l-0.7-3.3l3.4-1.3l2-5.2l-2-1.9l4.8-1.9l3.4-4.6l2-1.9l2-4.6
	l4.1-1.3l2.7-1.3h-4.8l1.3-1.3h5.4l4.8-3.3l0.7-3.3l-0.7-1.9l0.7-2.6l4.8-4v-3.3l3.4-1.3l3.4-5.2l0.7-3.3l1.3-4.6l-1.3-1.3l0.7-1.9
	l4.1-9.2l0.7-5.2l5.4-9.2v-3.3l2.7-6.5l4.1-3.3l1.3-4l-1.2-3.9l2.7-2.6l-2-6.5v-3.3l-2-5.2l-0.7-1.9v-2.6l0.7-1.3v-3.3l2.7-4.6v-1.3
	v-8.6l1.3-2.6l-1.3-1.3l-0.7-2.6v-5.9l-1.3-0.6l1.3-3.3l-2.7-1.3l-1.3-2.6v-3.3l-3.4-2.6l-2-4v-5.9l-2-3.3h-2l-2,0.6l-2-1.9l-0.7-4
	l-1.3-0.6l-0.7-1.9l-3.4-3.3l-1.3-1.3l0.7-1.9l-2-3.3l2.7-3.3l0.7-4.6l-0.7-1.9l0.7-2.6l-2-1.3l-0.7,1.3l0.7,1.3l-1.3,1.3l-6.8-5.9
	l-1.3-3.3l-1.3,0.6v1.9l-0.7,1.9l1.3,4.6l-3.4-4l-1.3,1.9v-2.6l-1.3-1.9l-0.7-7.8l0.7-0.6v-1.9l-2-2.6l1.3-2.6l-2-1.3l0.7-2.6
	l-4.8-4l-2-3.3v-3.3l2.7,0.6v-2.6l-2.7-4l-1.3,0.6H547l-2.7-4.6h-2l-2.7-2.6l-1.3,1.9l-1.3-1.9l-3.4-1.3l-2,1.9l1.3-2.6l2.7-0.6
	v-1.9l-0.7-1.3h-3.4h-2.7l-0.7-1.9h-1.3l-6.1-3.3l-2.7-5.2l-0.7-5.2l-2-3.3V212l1.3-0.6l1.3-5.9l-0.7-7.2l-2-3.3l1.3-0.6l-2-1.9h-2
	l-2.7-5.9v-7.2l1.3-0.6v-1.8l-1.3-1.3l-0.7-9.2l0.7-2.6l-0.7-3.3l0.7-0.6V158l-5.4-4.6l-3.4-1.9l0.7-1.3l-3.4-3.3l-2.7,1.9l-0.7-1.3
	l-1.3,3.3H491l-2.7-4.6v-2.6l-2-4l1.3-5.2l-0.7-6.5l-1.3,0.6l-1.3-2.6l1.3-2.6l-2-2.6v-2.6l-1.3-0.6v-3.3l1.3-1.9l-2-1.3l-2.7,0.6
	l-2-1.9l1.3-6.5l-0.7-1.3l-0.7-4.6l-3.4-0.6v-1.9l-3.4,1.3l-1.3,1.9v5.2l-1.3,4.6v1.3l-0.7,2.6h-3.2l-2,4.6l-2.7,3.3l2,1.9l2.7,1.9
	l-1.3,1.9h-2l-0.7,2.6l-1.3,2.6l2,3.3v2.6l-2-0.6l-2,1.3l-1.3,7.2l1.3,4.6l-0.7,5.2l1.3,4v4l-2.7,2.6v2.6l-2.7,5.2l-1.3,7.8
	l-2.7,2.6l0.7,2.6l-2,4.6l-2,3.3v5.2l-4.8,3.3l-9.5,3.3l-4.1-2.6h-4.4l-2-2.6l-3.4-2.6v-1.9l-1.3-1.3l-0.7-3.3l-3.4-0.6l-2.7-1.3
	h-4.8l-4.1-2.6l-0.7-2.6l-4.1-3.3h-4.1l-3.4-1.9v-1.9h-1.9l-2-1.3h-3.4l-2-1.3l0.7-1.3l-4.1-2.6l-0.7-2.6l-4.1-4h-2.7l-3.4-4v-3.3
	l2.7-4.6l1.3-4l2.7-1.9l0.7-4l1.3-2.6l-2,1.9l-2-4l2.7-1.9l-0.7-3.3h1.3l2-0.6l0.7,1.3l2.7,0.6l4.1-1.9l1.3-3.3l-2.7-1.9l2-1.3
	l2,0.6l1.3-4.6l2-0.6l2-2.6v-1.3l-2.7-1.3l-2,1.9l-2-1.9l-0.7-4.6l-2.7,1.3l-2.7,3.3l2,0.6v1.9l-2.7,1.3l-2-1.3l-0.7-1.9l-1.3-1.3
	l-0.7,1.9l-2,0.6v-1.9l1.3-1.9l0.7-1.3l-2,0.6l-1.3,1.9l-3.4,1.3l-0.7,1.3h-2l-0.7-1.3h-2.7v-1.3l-2-3.3h-1.3l-3.4,1.9l-2.7-1.3
	l-1.3,0.6l-1.3-1.9h-1.3l-1.3-3.3l-4.1,1.3h-3.4l-3.4-1.3v-1.9l-2-3.3h-1.3v1.3l-4.8,1.3l-1.3-2.6l-2.7-0.6l-4.1-1.9l-0.7,1.3
	l-2-1.3l-2.7,1.9l2.7,1.9l-0.7,0.6l2.7,0.6l2.7-1.3l4.1,3.3v1.9l0.7,4.6h-2.7v4l-1.3-1.9l-2-0.6l-2,1.3l-8.9,0.6l-3.4-2.6l-0.7,1.3
	l-3.4,1.3v2.6l-2.7-0.6l1.3,3.3l-1.3-1.3l-2.7-1.3l-1.3,1.9l1.3,1.9v1.3l-3.4-1.3l-2,1.9l1.3,1.3l-1.3,0.6l-2.7,1.3v1.9l2,1.9
	l0.7,1.3l-2.7-1.3l-2,2.6H280l-2.7,4l-2,4.6l-2,0.6l-1.3,4l-2,1.3l2,1.9l4.8,0.6l-2,0.6l-0.7,1.9l6.1,1.9l-2,0.6l-4.1-0.6l-1.3-1.3
	v1.9l2.7,1.9v3.3l2.7,3.3l-4.1-2.6l-2-4h-2.7v1.9l-1.3,1.9v-1.9l-6.1-4l-4.8,0.6l1.3,1.9l-1.3,1.3l-1.3-1.3h-1.3l-1.3,1.9l2,2.6
	l-0.7,1.9l-0.7-1.3h-2.2v1.3l-2.7,1.3h-5.4l3.4-1.3l2-2.6v-4.6l2-2.6l-1.3-1.9H247l-4.1-7.2l-2-3.3l-4.1-2.6l-2.7-1.9l-2,1.3
	l1.3,1.3l-1.3,0.6l-2,2.6h-2l0.7-1.9l-2.7,0.6l-0.7,1.9l-2-4l-1.3-0.6l-0.7,2.6l2,1.3l-2.7,1.9l-0.7,2.6l0.7,1.9l-2.7,1.9l-1.3-1.9
	H215l-0.7-1.3l2-2.6h-2l-1.3,3.3l-3.4,0.6l-1.3,1.9l-0.7,3.3l4.8,1.3l-4.1,2.6l-2.7-1.3l-3.4,1.9l0.7,1.9l4.1,0.6l-1.3,1.9l-2,0.6
	l-2.7-3.3l-3.4,2.6l-2.7,0.6l0.7,1.9l0.7,1.9v1.9l2-0.6l-2,2.6l1.3,1.9l-2.7,1.3l-1.3,1.9l5.4,0.6l-3.4,1.9l-0.7,1.3l-2.7-0.6
	l-1.3-1.9l-2-1.3l-2,1.9l-0.7-1.9l-2.7-1.9l-2,1.3l3.4,2.6l-1.3,0.6l-1.3,2.6l2.7,2.6h2.7l-1.3,2.6v2.6l-2-1.3h-1.3l0.7,3.3
	l-1.3,3.3l-0.7,3.3l-4.8-9.8l-3.4-5.9l-1.3-1.9l0.7-3.3l-1.3,1.3l-3.4,1.9l-0.7,4l-2.7,0.6v1.3h-2.7l-1.3,1.9l-2.7,1.9l0.7,4v7.2
	l1.3,0.6v2.6l-2.7,1.9l-1.3,2.6l-4.1,1.3v1.3l-3.4,1.9v4l-2,1.9l-4.8,5.9l-8.9,5.2l-7.4,0.6l-2.7,1.3h-4.8l-3.4,0.6l-3.4-0.6
	l-4.8,1.9l-0.7,2.6l-2.7,1.3h-9.5l-2.7,1.3l-1.3,2.6l-6.1,2.6h-4.8l-2.7-1.3h-2l-1.3-1.3l-2.7,1.3l-2,3.3l-6.1,1.3l-0.7,1.3h-1.3
	l-4.8,4l-6.1,2.6l-8.1,2.6l-3.4,5.2v4.6l-3.4,2.6l-2-1.3l-0.7-1.3l-0.7-1.9l1.3-3.3v-2.6l-4.8,3.3l-1.3,4l-3.4,5.9l2,4.6l-0.7,3.3
	v6.5l-5.4,7.2l-2,9.2l1.3,4.6l-0.7,6.5l4.8,9.2v3.3l2,2.6l-2,4l1.3,4l-3.4,1.3l-1.3-1.9v-5.2l-2,2.6l-0.7-1.3v-4.6l-2.7-6.5l-2,3.3
	l0.7,6.5l4.1,4l2.7,5.2l-4.1,0.6l-3.4-4.6l-0.7-5.2l-1.3,1.9l-2,0.6l2.7,4.6l5.4,7.2l2.7,7.8L16,372.7l2,2.6l1.3,7.8l4.8,10.5
	l-1.3,4l0.7,16.4l-0.7,1.9l1.3,4.6v5.2l3.4,7.8v3.3l-2.7,1.9l1.3,1.3l-0.7,4l-0.7,6.5l-2.7,1.9l0.7,2.6l-0.7,4l-2.7,1.9l0.7,4
	l-4.8,3.3l-2-1.9l-3.4,5.2L9.9,480.7z"/>
</svg>
