<?xml version="1.0" encoding="utf-8"?>
<!-- Generator: Adobe Illustrator 18.0.0, SVG Export Plug-In . SVG Version: 6.00 Build 0)  -->
<!DOCTYPE svg PUBLIC "-//W3C//DTD SVG 1.1//EN" "http://www.w3.org/Graphics/SVG/1.1/DTD/svg11.dtd">
<svg version="1.1" id="Layer_1" xmlns="http://www.w3.org/2000/svg" xmlns:xlink="http://www.w3.org/1999/xlink" x="0px" y="0px"
	 viewBox="0 0 100 100" enable-background="new 0 0 100 100" xml:space="preserve">
<path fill-rule="evenodd" clip-rule="evenodd" fill="#1C3664" d="M72.7,19.5l0.1-0.1l0.1-0.2l0.3-0.4l0.2-0.5l0.1-0.1l0,0.2
	l-0.1,0.3v0.1l0.2,0l0.2-0.2l0.2-0.1l0-0.2l-0.2,0v-0.1l0.2-0.1v-0.3l-0.1-0.1v-0.2l0.3-0.2l0.1-0.4l0.2-0.1l0.1-0.2l0,0.2l0,0.1
	L74.6,17l-0.1,0.3l-0.2,0.2l0,0.3l0.1,0.2l0.1,0.2l0.1-0.1l0.2-0.3l0.4-0.3l0.1-0.2l0-0.3l0.1-0.2l0.1-0.1l0,0.1l-0.1,0.1v0.3
	l0.2-0.1l0.2-0.3l0.2,0l0.3,0l0.3-0.1l0.2,0l0.2-0.2l0.2-0.1l0.1-0.2v-0.1l0-0.2l-0.1-0.1l0.1-0.3l0-0.5l-0.1,0l-0.1,0.3l-0.3,0.3
	h-0.1v-0.1l0.2-0.2l0.2-0.1l0-0.2l-0.2-0.2l0-0.2l-0.1,0l-0.1,0.1l0,0.1l-0.1-0.1l-0.2,0l-0.2,0.1l-0.2,0l0.1-0.1l0.5-0.2l0.2,0
	l0.3-0.4l0.1-0.1l0.2-0.4l0.1-0.3l-0.1-0.1l-0.2,0l-0.1,0.1l-0.1-0.1l0.1-0.1l0.1-0.1l0.2,0l0.1-0.1l0-0.2l0.2-0.2l0-0.2l-0.1-0.1
	l0-0.2l-0.2-0.1L77.3,12L77,12.4l0,0.2l0.1,0.1L77,13l-0.1,0.1l-0.1,0l0-0.1l-0.1-0.1l0-0.2l0.2-0.4l-0.1-0.2l0-0.1L77,12l0.1-0.1
	l-0.1-0.3l-0.1-0.2h-0.2l-0.2,0.1l-0.1,0.2l0-0.1l-0.1-0.1l0-0.3l-0.1-0.3l0-0.5l0-0.3l0.1-0.3l0-0.3l0-0.3l0.2-0.3l0-0.3l-0.2-0.2
	l-0.1-0.2L76,8l-0.1-0.2l-0.3-0.1l-0.1,0.1v0.1l-0.1,0l-0.3-0.3l-0.2,0l0,0.2l-0.1,0.3l0.1,0.1l0.2,0l0.2-0.1l0.3,0.1l0.1,0.2l0.2,0
	l0,0.1L75.5,9h-0.2l-0.2-0.2l-0.2,0l-0.2,0L74.8,9l0.1,0l-0.2,0.2l-0.2,0.1L74.3,9L74,9.1l-0.1,0.3l-0.1,0.1l0,0.1L74,9.8L74,10
	l0.2,0.1v0.1l-0.2,0l0,0.2l0.1,0.1l0,0.1l-0.1,0l-0.2-0.1l-0.2,0l-0.2-0.2l-0.1,0l-0.2,0.1l0,0.2l0.1,0.2L73.1,11L73,10.9v-0.1
	l-0.2-0.1l-0.2-0.1l-0.1,0l-0.1-0.2l-0.1,0l-0.1,0.1l0.1,0.3l0,0.2l0.1,0.3l0.2,0.1l0.3,0l0.1,0.1l-0.1,0l-0.2,0l0.3,0.2l0.1,0.2
	l0.2,0.1l0.3,0l0.1-0.1l0.1,0l0,0.1l-0.2,0.1l-0.1,0.3l-0.1,0L73,12.3l-0.6-0.1l-0.2-0.3L72,11.8L72,11.7h-0.1l-0.1,0.2l0,0.1
	l-0.1,0.1l0.1,0.3l-0.2,0.1l-0.1-0.1v0.3l-0.1,0.1l0,0.5l0.1,0.1l0.3,0l0.2,0.1l0.2-0.1v0.1l-0.1,0.1l-0.2-0.1l-0.3,0l-0.1-0.1
	l-0.2,0L71,14l0,0.2l0.1,0.1l0,0.1l-0.1,0.1l0,0.2l0.1,0.1l0.1-0.1l0.3,0l0.2-0.2l0.1,0.1l0,0.2l-0.2,0L71.3,15l0.1,0.1h0.2l0.2-0.2
	l0.1,0l0.2-0.1l0,0.1L72,15l0.1,0.1l0.3,0l0.1,0.1l-0.2,0v0.2l0.2,0l0.2-0.1l0.2,0.2l0.5,0.1l0.1,0.1l-0.4,0l-0.2,0l-0.3-0.2
	l-0.3,0.1l0,0.1l0.3,0.1L73,16h0.4l0.1,0.1l-0.5,0.1L73,16.1L72.5,16l-0.3,0l-0.1-0.2l-0.2-0.1l-0.3-0.3l-0.1,0.1l-0.1,0.2l-0.3,0
	l-0.1,0.1l-0.1,0.4l0.2,0.2l0,0.2L71,16.8l-0.1-0.3l-0.1,0L70.6,17l0,0.3l0.2,0l0.1-0.1l0.1,0l0.1,0.2l0.2,0l-0.2,0L71,17.6
	l-0.2-0.2l-0.3,0l0,0.4l0.1,0.1l0.1-0.1L70.6,18l0,0.5l0.1-0.1l0.2,0.1v0.3l0.3,0.1l0.4,0.3l0.2-0.1l0.1-0.2l0-0.2l0.3,0l0.1,0.2
	l-0.1,0.2l0,0.2l0.1-0.1l0.2-0.5l0-0.4l0.1-0.3l0.2-0.2l0.1-0.2v0.3l-0.2,0.4l-0.1,0.3l0.1,0.2l-0.1,0.4l0.1,0.2L72.7,19.5
	L72.7,19.5L72.7,19.5z M73.2,10.1L73.2,10.1l0.2-0.1l0.1,0.1h0.2l0,0.2l-0.1,0l-0.1-0.1L73.2,10.1L73.2,10.1L73.2,10.1z M73.4,19.4
	l0-0.2l0.1-0.1l0-0.1l0.1-0.1l0.1,0.1l-0.1,0.1l0,0.1L73.4,19.4L73.4,19.4L73.4,19.4z M75.6,17.4l0.3-0.3H76l0.2-0.1l0.2,0.1
	l0.2,0.2l-0.1,0.1l-0.3,0l-0.2,0.2l-0.3,0l-0.2-0.1L75.6,17.4L75.6,17.4z M91.8,4.7l0.1-0.2l0.1,0l0.1,0.2l-0.2,0.1L91.8,4.7
	L91.8,4.7z M84,19.9L84,19.9l0,0.2l0.2,0l0-0.2L84,19.9C84.1,19.9,84,19.9,84,19.9L84,19.9z M80.1,22.3l0.1,0.1l0.2,0l-0.1-0.2
	L80.1,22.3L80.1,22.3z M74.7,22.2l-0.1-0.3l0-0.1l0.1,0l0.1,0.1v0.2L74.7,22.2L74.7,22.2L74.7,22.2z M73.2,25.4l0-0.1l0-0.2
	l-0.1-0.3L73,24.8l-0.1,0.1l-0.1,0.3l0.1,0.3l0.1,0.2L73,25.8l-0.1,0l-0.2-0.1l-0.4,0l0-0.2l-0.1,0l-0.3-0.2l-0.1,0l0-0.1l-0.1-0.1
	l-0.1,0l0-0.1l0.1-0.2l0.1,0l0.1-0.2l0-0.1l-0.2-0.3l-0.1-0.1l0,0.2l0.1,0.1l0,0.2l-0.1,0.1l-0.2,0l-0.1,0.1l0,0l0,0.1l-0.1,0.1
	l-0.1,0l-0.1-0.2l0-0.1l0-0.1l0.1-0.3l0-0.1l0-0.1L71,24.3L71,24.5l-0.1,0.2l0,0.1l0,0.2l-0.2,0l-0.1-0.1l-0.1,0l-0.1-0.1l0.1-0.2
	l0-0.2l0.1-0.1l0-0.2l0.2-0.4l-0.1,0.1l-0.2,0.1l-0.1,0.4l0,0.3l-0.1,0.2l-0.1-0.1l0.1-0.2l0-0.1l-0.1,0l-0.1,0.3h-0.2l-0.1-0.1
	l0-0.3L69.7,24l0-0.1l0.2-0.2l0.1-0.2l0-0.1l0.1-0.2l0.2-0.2l0.2,0l0.1-0.1l0.3,0l0.1-0.1l0.2-0.1l0.1,0l0-0.1l0.1-0.1l0.2,0
	l0.3,0.1l0.3,0l0.1-0.1l0.2,0l0.1,0.2l0.2,0l0-0.1l0.1,0l0.2,0.2l0.1-0.1l0.2,0l0.1-0.1l-0.1-0.1l-0.2,0l-0.1-0.1l-0.1,0l0-0.1
	l0.1-0.1l0-0.1L73,22.2l0-0.1l0.2,0l0-0.1L73,22L73,22.1l-0.1,0l-0.1-0.2l0-0.1l0.2-0.1l0-0.1l-0.1,0l-0.1-0.2l0-0.4l0.1-0.1l0-0.2
	l0-0.2l0.2,0l0.2-0.1l0.2,0l0.1,0l0.2,0.1h0.2l0.2,0.3l0.1,0.4l0,0.6l-0.1,0.3l0.1,0.1l0.1-0.1l0.4,0.2l0.1,0.3l0.1,0v-0.1l0.4,0
	l0.3,0.3l0.1-0.1l-0.1-0.1l0.2-0.1l0.3-0.1l0.2-0.3l0.4-0.2l0.4-0.4l0-0.2l0.1-0.1l-0.2,0l-0.1,0.1l0,0.2l-0.3,0.4l-0.2,0.1v0.1
	l-0.3,0.3l-0.4,0.1l-0.1-0.1l-0.1,0l0,0.1h-0.2L75,22.1l0-0.1l0.2-0.1l0.2-0.1l0-0.2l-0.2,0.2l-0.1,0.1l-0.2,0l-0.1-0.3v-0.1l0.1,0
	l0.2-0.1l0-0.1l-0.2,0v-0.1L75,21l0.2,0.1l0.1,0l0-0.1h-0.2l-0.1-0.1L75,21l-0.2,0l-0.1-0.2l0.1-0.1l0.2,0l0.1-0.1l0.2,0l0.2,0.1
	l0.2-0.1h-0.2l0-0.1l0.2-0.2l0.2,0l0.1-0.1h-0.2l0-0.1l0.1-0.2l0.2,0l-0.1-0.2l0.3-0.4l0.2-0.1l0-0.1l-0.2,0l-0.3,0.4l-0.2,0.4
	l-0.3,0.3l-0.3,0.3l-0.2-0.1l-0.3,0l0-0.1l0.2-0.2l0.2-0.1v-0.2l-0.3,0.2l-0.3,0l0,0.2l-0.2,0.1l-0.3,0l-0.3-0.2l0.1-0.1l0.2,0
	l-0.1-0.1l-0.1,0l0-0.2l0.3-0.2l0-0.2l0.2-0.1l0.2-0.1l0.2,0l0-0.3l0.1-0.3l0.3-0.4l0.2,0.1l0.4-0.1l0.3,0.1l0.2-0.1l0.2,0l0.2-0.1
	l0.2,0l0,0.1l0.3,0.3l0.1,0l0.5,0.3l0.1,0.2l0.1,0.2l0.1,0l0.3,0.4l0-0.3l0.2,0l0-0.1l-0.3,0l-0.1,0l0-0.2l0.2-0.1h0.4l0.2,0.1
	l0.1-0.1l0-0.2l0.1-0.2l0-0.1l-0.1,0.1l0,0.2l-0.2,0.1l-0.2,0.1l-0.4-0.1l-0.3,0l-0.1-0.2l-0.2-0.1l-0.3,0l-0.3-0.5l0-0.4l0.1-0.1
	l0.2,0.1l0,0.2l0.1,0.1l0.1-0.2l0.1-0.3l-0.2,0l-0.1-0.1l0-0.2l0.2-0.3l0-0.3l0.1-0.3l-0.1-0.6l-0.1-0.3l-0.1-0.1l-0.1-0.2l0-0.2
	l0.1-0.1l0.1-0.1l0.1,0.1l0.2,0l0.1,0.2l0.1,0l0-0.2l-0.1-0.3l-0.2-0.1L77.8,14l0-0.2l0.1-0.2l0.7-0.7l0.3-0.1l0.2,0.1l0.1,0.2
	l0.2,0.2h0.2l0.5,0.3v0.2l0.2,0.3l0.1,0.5l0,0.4l0,0.4l0.2,0.2l0.1-0.1l0.1,0l0.2,0.2l0,0.2l0.1-0.1l0.1-0.1l0.2,0l-0.2-0.1l-0.3,0
	l-0.1-0.2l-0.2-0.1l0-0.1l0.2-0.2l0-0.1l0-0.8l-0.1-0.2l0.1-0.2l0.4,0l0.1,0.1l0.3,0.1l0.3,0l0.3,0.1l0.4,0l0.3-0.2l0.2,0l0.2,0.2
	l0.4,0l0.2,0.1l0.2-0.1l0-0.1L84,13.6h-0.3l-0.3-0.1l-0.1-0.1l0-0.1l0.2,0l0.3-0.1l0.7-0.1l0.5,0l0.4,0.1l0.2,0.2l0.2-0.1l0.3-0.1
	L86,13.2l-0.1,0l-0.2-0.1l0-0.1l-0.2-0.1l-0.3,0l-0.1-0.1l-0.6,0.1l0-0.1l0.1-0.1l0.1-0.3l0.2,0l0.2-0.2l0.1-0.3l0.6-0.3l0.3,0
	l0.5-0.2l0-0.1l-0.6,0.2l-0.4,0l-0.6,0.4l0,0.2h-0.1L85,11.8l-0.1,0L84.8,12l-0.2,0l-0.3,0.3l0.1,0l0,0.1l-0.4,0.3l-0.2,0l-0.8,0.3
	l-0.2,0l-0.2,0l-0.6,0l-0.3-0.3l-0.3,0l-0.2,0l0-0.2l0.3-0.3l0.3,0l0.2-0.1l0.4,0l0.2-0.2l-0.2,0l-0.3,0.1l-0.2,0l-0.3,0.1l-0.2-0.1
	v-0.2l0.3-0.1l-0.2,0L81.1,12l0,0.3l-0.3,0.3l-0.3,0L80,12.5l-0.4,0l-0.2-0.2l0-0.1l-0.3,0l-0.2-0.2l0-0.1l0.2-0.1l0.1-0.3l0.3-0.2
	l0.2-0.2l0.3-0.2l0.1-0.1l0.2,0.1l0.4,0l0.1-0.1l0.2,0l0.4,0.2l0.4,0l0.2,0.1l0.3,0l0.1-0.1l-0.2-0.1l-0.4,0l-0.4-0.1l-0.3-0.2
	l-0.3,0l-0.4,0l-0.5-0.1l-0.1,0l-0.1,0.1l-0.2,0.2l-0.4,0.2l-0.4,0.2l-0.2,0.3l-0.1,0l-0.2-0.1l-0.3-0.4l-0.1,0l-0.1-0.1l-0.1-0.3
	l0-0.3l-0.1-0.1l0-0.3l0.1-0.1l0.2,0.1l0.2-0.1l0.1,0.1l0.6,0l0.3,0.2l0.2,0l0.1,0.1l0.2,0l0.3-0.1l0.3,0.1l0.1-0.1l0.2-0.1l0.1-0.1
	l0.4-0.1l0.4-0.1l0.1-0.1l0-0.1l-0.1,0l-0.1,0l-0.1,0.1L80.8,10l-0.4,0l-0.3,0.2l-0.2,0l-0.3,0l-0.1,0.1l-0.2,0l-0.2-0.2l-0.2,0
	l-0.1-0.1l-0.3,0l-0.3-0.2L78,9.8l-0.2-0.1l-0.1-0.2l0.1-0.1l0-0.3L78,9.1l0.1,0l0.1,0.2l0.3,0l0.1-0.1L78.5,9l-0.2,0l-0.2-0.2
	l0.1-0.1l0.3,0l0.3-0.2l0.4,0l0.2-0.1l0.2,0l0.1,0.1l0.2,0l0-0.1l-0.1-0.1l-0.5,0.1l-0.4,0l-0.3,0.1l-0.2,0l-0.1,0.1l-0.2,0l0-0.2
	l-0.1-0.2l0.3-0.1l0.3-0.2l0.3,0l0.2-0.1l-0.2,0l-0.1-0.1l0-0.3l-0.1,0l0,0.2l-0.1,0.1l-0.1-0.2l-0.1,0l-0.1,0.1l-0.2,0l0,0.2
	L78,7.9L77.7,8l0-0.2l0-0.2l-0.1,0l-0.1-0.2l0.1-0.1l0.2,0.1l0-0.2L78,7l0.2,0l0.1-0.2l0.3-0.1l0.2,0l0.3-0.2l0.4,0l0.1-0.1l0.2,0.1
	l0,0.2l-0.1,0.1l0,0.5l0.2-0.1L80,6.9l0.1-0.1l0.1,0.1L80.2,7l0,0.2L80.3,7V6.9l0.1-0.1l0-0.2l0-0.3l0.1,0l0.3-0.2l0.1,0l0,0.2v0.3
	l0.2,0.1l0,0.3l-0.1,0.2l0.1,0.2l0,0.2l0.1,0.1l0.1-0.1l-0.1-0.2l0-0.2L81.4,7l0.2-0.3l0.1,0L81.9,7l0,0.3l-0.1,0.2L82,7.6l0.1,0.1
	l0.1-0.1l0-0.3l0.1,0l0.1-0.1l0.1,0.1l-0.1,0.1l0,0.2l0.1,0.1l0.2-0.2l0.1,0l0,0.2l0.1-0.1l0-0.2L82.6,7l-0.1,0l-0.1-0.2l0-0.2
	l-0.1-0.2l-0.1-0.2l-0.1-0.1L82.1,6l0.2,0l0.2,0.1L82.7,6l0.2,0.1L83,6l0-0.4l-0.2-0.2l0.1-0.2l0.3-0.1l0.1,0.1l0.4,0.1l0.2,0.1
	l0,0.2l-0.2,0.1l0,0.1L84.1,6l0,0.1L84,6.4l0,0.5l0.2-0.1l0.1-0.3l0.1,0l0,0.2l0.1,0.1l0.2-0.1l0.1-0.2L85,6.5l0.1-0.1L85,6l0.1-0.2
	l0.2,0l0.1,0.1l0.4,0l0-0.2l-0.3-0.2l-0.1-0.3l0.1-0.1L85.4,5l0.1,0l0.4,0.2l0,0.3l0.1,0.2L86,6l0.1,0.2l0.1,0.3l0.1,0.2l0.1-0.1
	l0-0.2l0-0.2l0-0.3l-0.1-0.3l0-0.4l0-0.4l0.1-0.2l0.1,0l0.2,0.2l0.1,0l0.1,0.1l0,0.3L87,5.3l0,0.3l0,0.3l0.1,0l0-0.2l0.1-0.1l0.1,0
	L87.6,6l0-0.1l0.2,0l0-0.1l-0.2,0l-0.2-0.2l0.1-0.1l0-0.1l-0.2-0.2L87.3,5l0.1-0.1l0.2,0l-0.1-0.1l-0.2,0l-0.1-0.2l0.1-0.1h0.2
	l0.2-0.2l0.5,0.1l0.1,0.1l0,0.2l-0.1,0.2L88.2,5l0.1,0l0.2-0.3l0.1-0.1l0.1,0.1l-0.1,0.3l0.1,0.1l0.1,0l0-0.1l0.3-0.3l0.1,0.1l0,0.3
	l-0.1,0.2l0.1,0.4L89,5.8l0.1,0.1l0.2,0l0.1,0l0.1-0.1l0-0.3l0.1-0.4l-0.2-0.5l0-0.3l0.1-0.1l0.1,0.1l0.2,0l0.2,0.1l0.3-0.1l0.2,0.1
	l0.1,0.2l0.3,0.1l0.3-0.1l0.3,0.2L91.7,5l0.1,0.1l0,0.3l-0.1,0.2l0.1,0.1l0.2,0l0.2-0.3l0.3-0.2L92.6,5l0.2,0l0.2,0.1l0.3,0l0,0.1
	l-0.2,0.2l0.1,0.2l0.1-0.1l0.1-0.2l0.2-0.2l0.2-0.1l0.3,0.1l0.4,0.1l0.1,0.1l-0.1,0.1l-0.1,0l0.1,0.2L94.3,6l0.1,0.1L94.6,6l0.2-0.1
	l0,0.2l0.1,0.1l0.1-0.2l0.3,0l0,0.2l-0.1,0.1l0,0.2l0.1,0l0.1-0.1l0.2-0.1h0.1l0.1,0.2l0.4,0.2l0.2,0l0.1,0.1l-0.1,0.1l-0.4,0.2
	l-0.2,0.3l-0.2,0l-0.3,0.2l-0.2,0L95,7.5l-0.1,0.1l-0.3,0.1l0.5,0l0.4,0.1l0.2,0.1h0.2l0.1-0.2L96,7.5l0.2,0l0.1-0.2l0.3-0.2l0.2,0
	l0.1,0.2l-0.1,0.2l0.1,0.1L97,7.6l0.1-0.2l0.2-0.2l0.1,0.1l-0.1,0.2l0,0.1l-0.1,0.1l0.1,0.1l0.2-0.1l0.1-0.1l0-0.2l0.2-0.1L98,7.5
	l-0.1,0.4L97.7,8l0.1,0.1l0.1,0.2l0,0.3l-0.2,0.1l-0.1,0.2l-0.2,0.3l0.1,0.1l0.1-0.1L97.7,9l0.2,0L98,9h0.1l0.3,0.2l0.1,0.2l0,0.3
	l-0.1,0.5l-0.3,0.5l-0.4,0.2L97.7,11L97.5,11L97.3,11l0,0.1l-0.1,0.1l-0.6,0.3l-0.2,0.2l-0.2,0l-0.3,0.1l-0.3,0l-0.2-0.1L95.2,12
	L95.1,12l-0.2-0.2l-0.2-0.1l-0.3-0.1v0.2l0.3,0.1l0.1,0.1l-0.2,0.1L94.2,12l-0.1,0l-0.1-0.1l-0.4,0l-0.1-0.1l-0.1,0.1l-0.1,0
	l-0.3-0.4l-0.2-0.2l0,0.2l0.2,0.2l0,0.1l-0.2,0l-0.3-0.1l0.1,0.2l0.7,0.1l0.4,0.1l0.1,0.1l-0.1,0.1l-0.9,0.4l-0.6,0.1l-0.2,0
	l-0.3,0.1l-0.3,0l0-0.1L91,12.8l-0.2,0l-0.2,0L90.6,13l0.2,0l0,0.2l0.3-0.2l0.6,0l0.3,0l0.8-0.1l0.5-0.1l0.3-0.3l0.2,0l0.2,0.1
	l0.2,0l0.3,0l-0.1,0.3l-0.2,0.3L94,13.4l-0.1,0.1l-0.4,0.1l-0.2,0.2l-0.2,0L92.9,14l-0.3,0.2l-0.2,0l-0.2,0.1l-0.2,0l-0.2,0.2
	l-0.4,0.1l-0.1,0.2l-0.4,0.1l-0.2,0.1l-0.2,0L90.3,15l-0.2,0L90,15.1l0,0.2l-0.2,0.2l-0.1,0.2l-0.5,0l-0.1,0.1l-0.2-0.1l0-0.1
	l0.1-0.1v-0.2l-0.1-0.1l0,0.3l-0.1,0.1l-0.1,0.2l0.2,0.2L89,16l-0.2,0.2l-0.1,0l-0.2-0.2l-0.1,0.1l-0.4-0.1l-0.1,0.1l-0.1,0l0-0.2
	l-0.1-0.1l-0.1,0.2l-0.2,0l0,0.1l0.4,0.1l0.6,0l0.1,0.2l0,0.2l-0.2,0.1l-0.3,0l-0.3,0.1l-0.1,0.1l0.1,0.1l0.1-0.1l0.1,0.1l0,0.2
	l-0.3,0.3l-0.3,0l-0.5,0l-0.1-0.1l-0.2,0l-0.1-0.1l0-0.4l-0.3-0.1l-0.1-0.1l0-0.2l-0.1-0.1l-0.1,0.1l-0.1-0.1l-0.3,0l0,0.1l0.1,0.1
	l0.1-0.1l0.2,0l0.5,0.5l0,0.6l-0.1,0.1l-0.2,0l-0.2-0.2l-0.1,0l0,0.2l-0.1,0.1L85,17.6l-0.2,0l-0.1,0.2l-0.1,0l-0.1-0.1l-0.2-0.1
	l-0.1-0.2L84,17.5L84,17.2l-0.1-0.1l-0.3,0L83.4,17L83.3,17l0,0.1l0.2,0.1l0.3,0.1l0.2,0.4L84,17.9l-0.6-0.1l-0.2-0.1l0-0.2
	l-0.1-0.1L83,17.4l0,0.1L83,17.6l-0.2-0.1l-0.1-0.1l-0.2,0.1l0,0.1l0.3,0.1l0,0.2h0.1l0.1-0.1l0.2,0l0.2,0.2l0.2,0.1l0.2,0.2h0.1
	l0.2-0.1l0.6,0.1l0.1,0.1l-0.2,0.1l0.1,0.1l0,0.2l0,0.2l-0.1,0.1l-0.1,0l-0.1-0.1L84,19l-0.3-0.2l-0.1-0.1l0-0.3l-0.1-0.2l-0.3,0
	l-0.5-0.1L82.6,18l-0.2,0l0,0.1l0.3,0.1l0.4,0l0.4,0.2l0,0.2l-0.1,0l-0.2-0.2l-0.4,0l-0.3,0.1l0-0.1l-0.1-0.1L82,18.3l-0.2-0.1
	l0,0.1l0.4,0.2l-0.1,0.1v0.2l0.2,0l0.1,0l0.1,0.1l0.2-0.1l0.1-0.1l0.1,0.1l0.2,0l0.2,0.1l0.3,0.3l0,0.1l-0.3,0L83,19.3l0,0.1
	l0.2-0.1l0.2,0l0.2,0l0.2,0.2l0.2,0.1l0,0.2l-0.3,0.4l-0.1,0.3l-0.1,0l-0.3,0.2L83,20.7l-0.2,0l-0.2-0.1l0-0.1l-0.2-0.1l-0.3,0
	l0,0.1l0.2,0.1l0,0.1l0.2,0l0.3,0.2l0,0.3l-0.1,0.1l-0.2,0l-0.2,0.2l-0.1,0l-0.3-0.3l-0.2,0.1l-0.1-0.1l-0.2,0l-0.1,0.1l0,0.1
	l0.6,0.3l0.2,0v0.1L82.2,22L82,22.2l-0.2,0l-0.2-0.2l-0.2,0l-0.2,0.2l-0.3,0l-0.1-0.2L80.4,22L80.1,22L80,22.4l-0.2,0.2l0.2,0
	l0.1,0.1l0,0.2L79.8,23l0,0.2l-0.2,0.1l-0.1-0.1l-0.1,0.1l0,0.1l-0.2,0.1l-0.1,0l0.1-0.1H79l-0.1,0.1l-0.1,0.3l-0.1,0.1l-0.5-0.3
	l-0.3,0l0,0.1l-0.3-0.1l-0.5-0.5L77,22.7l0.1-0.1l0-0.2l-0.1-0.1l0-0.1l-0.2,0.2l0,0.1l-0.1,0.3L76.7,23l0.2,0.2l0,0.1l-0.1,0
	l-0.3,0l0,0l-0.2,0l0.2,0.2l-0.1,0.3h0.2l0.2-0.3l0.1,0l0.1-0.1l0.1-0.1l0.2,0.2l0.2,0.2l-0.1,0.2l0.2-0.2l0.4-0.1l0.3,0.1l0,0.2
	l-0.1,0.1L78,24.6l-0.1,0l-0.1,0.1l0.1,0.1l0.2,0l0,0.1l-0.2,0.2l0.2,0l0.1-0.1l0.3-0.2l0.1,0l0.1-0.1l0.1,0.1l-0.1,0.2l0.1,0.1
	l-0.1,0.4L78.5,26l-0.2,0l-0.2,0.1L78,26.4l-0.2,0.2l-0.1-0.1l0.1-0.2l0-0.3l-0.1,0L77.6,26l-0.2,0.3l-0.2,0L77,26.6l-0.1-0.1
	l-0.2,0l-0.3,0.3l-0.1-0.1L76,26.8l-0.2,0l-0.1-0.2l-0.1-0.1l0.2-0.1l0.1-0.2l0-0.2l-0.2-0.3l-0.1,0.1l-0.3-0.1l0-0.1l0.1-0.3l0.2,0
	l-0.1-0.1l-0.2,0L75.2,25l0.1-0.2l0-0.2l-0.1-0.2v0.2L75,25l0.2,0.3l0,0.1l-0.1,0.1l0,0.2l-0.1,0.1l-0.2-0.1l-0.2,0.1l-0.2-0.2
	l0-0.1l0.1-0.4L74.5,25l0-0.2l0.2-0.2l-0.2,0l-0.2,0.2l0,0.3l0.1,0.2l-0.2,0.3L74,25.7l-0.2-0.1l0-0.2l-0.1-0.1l0-0.1l0.1-0.2l0-0.1
	l-0.1-0.2l-0.1,0l0,0.1l0,0.2l-0.1,0.1l0,0.2l-0.1,0.1l-0.2,0l0,0.1L73.2,25.4L73.2,25.4z M79,57.2l0,0.3l-0.1,0.2L79,58l0.1-0.1
	l0-0.1l0.1-0.2L79,57.2L79,57.2L79,57.2z M78.8,56.1L78.8,56.1l0-0.2l0.1,0.1L78.8,56.1L78.8,56.1L78.8,56.1z M78.4,55.4l0.1-0.2
	l0.2-0.1l0,0.1l-0.2,0.1l-0.1,0.1L78.4,55.4L78.4,55.4z M76.7,39.4l0-0.2l0.1-0.1L76.7,39.4L76.7,39.4L76.7,39.4z M77,39.6l0-0.1
	v-0.1l0.1-0.1l0.1,0.1L77,39.6L77,39.6L77,39.6z M76.7,40.1L76.6,40l0-0.1l0-0.2l0.1-0.1l0.1,0.1l0.1,0l0.1,0.1l-0.2,0.1L76.7,40.1
	L76.7,40.1L76.7,40.1z M79.9,44.9l0.1-0.1l0.2,0.1L80.1,45L79.9,44.9L79.9,44.9L79.9,44.9z M79.5,44.8l0-0.1l0.2,0l0.1-0.1l0.1,0.1
	l-0.2,0.2L79.5,44.8L79.5,44.8L79.5,44.8z M78.9,47.1l0.1,0.1l0.1,0L79,47L78.9,47.1L78.9,47.1z M79.8,48l0.2,0.1l0.1-0.1l0-0.1
	l-0.1,0C79.9,48,79.8,48,79.8,48L79.8,48z M81.4,49.7l-0.1-0.3l0.1-0.1l0.1,0.1l0,0.2l-0.1,0.1L81.4,49.7L81.4,49.7z M82.3,50.7
	l0-0.2l0.2-0.1l0.1-0.1l0.1,0.1l-0.1,0.2L82.3,50.7C82.4,50.6,82.3,50.7,82.3,50.7L82.3,50.7z M76.3,27.8l0-0.3l0.1-0.1l0.1-0.2
	L77,27l0.2,0l-0.1,0.2l-0.3,0.2l-0.1,0.2l0.1,0.1l0,0.1l-0.1,0l-0.1-0.1l-0.1,0.1L76.3,27.8L76.3,27.8L76.3,27.8z M75.3,26.8
	c0,0,0.1,0.1,0.1,0.1l0.1,0l0.1-0.1l-0.1-0.1L75.3,26.8L75.3,26.8z M69.5,24.2l-0.2-0.1l0-0.2l0-0.4l-0.1-0.1l0-0.2l0-0.1l0.2-0.1
	l0.3,0.1l0,0.2l-0.1,0.4l-0.1,0.1l0.1,0.1l0,0.2L69.5,24.2L69.5,24.2z M69.4,12.3l0.2-0.2l0.1-0.3l0-0.2l0.3-0.2l0.1-0.3L70.2,11
	l-0.3,0l-0.2-0.1l0.1-0.2l-0.1,0l-0.3,0.2L69.2,11l0,0.2L69,11.3l0,0.2l0.3,0.1l0.2-0.1v0.2l-0.2,0.2l0,0.2l0.1,0.1L69.4,12.3
	L69.4,12.3z M66.7,18.7l0-0.2l0.1-0.2l-0.1-0.1l0-0.2l-0.2-0.1l0.1-0.1l0.1-0.2l0.2,0l0.2,0.2l0.1,0l0-0.2L67,17.3l-0.2-0.1l0-0.1
	l0.2,0l-0.1-0.2l0.1-0.2l0-0.3l0.1-0.3l0.1,0l0.1-0.1l0-0.3l0.1-0.1l0.3-0.2l0.2,0l0.3,0.3l0.1,0.2l0,0.2l0.1,0.1l0.1,0l0,0.2
	l0.1,0.1l0,0.1l0.1,0.2l0.2,0v0.1l0.1,0.2l0.1,0.4l-0.2,0.2l-0.1,0.1l-0.2,0l-0.1,0.1l0.1,0.1l0.1,0l0.1,0.3l0,0.2l-0.4,0.2
	l-0.1,0.1l-0.1,0l0-0.2L68,18.6l-0.2,0.2l-0.2-0.1l-0.3,0.1l-0.2,0l0-0.2l-0.2,0l0,0.1L66.7,18.7L66.7,18.7z M69.1,18.4L69.1,18.4
	l0.2-0.2l0-0.4l-0.1,0L69.1,18l0,0.2L69.1,18.4L69.1,18.4z M69.9,21.7l0,0.2l0.1,0.2l0.2,0l0.2-0.1l0.2-0.4l0-0.1l-0.1-0.1l0-0.1
	l-0.1-0.2l-0.2,0l-0.1-0.2l-0.2,0L70,21l0,0.2l-0.1,0.2L69.9,21.7L69.9,21.7z M69.6,21.8l0,0.1l0,0.2l0.1,0.1l0.1-0.1l0-0.1
	l-0.1-0.1L69.6,21.8L69.6,21.8L69.6,21.8z M66.5,20.1l0-0.3l0.1-0.3l0.2-0.2l0.2,0l0.2,0l0.2,0.1l0.2,0l0.1,0l0,0.1l0.2,0l0.1-0.1
	l0.2,0.1l0.2,0l0.2,0.3l0.2,0.1l-0.1,0.1l0.1,0.1h0.1l0.2-0.1l0.1,0.2l0.1,0.1l0,0.1l0,0.1L69,20.5l-0.2-0.1l-0.3,0.2l-0.2,0
	L68,20.6l-0.3,0l-0.3-0.2h-0.2L67,20.3l-0.1-0.2l-0.2,0L66.5,20.1L66.5,20.1z M63.9,16.5L63.9,16.5l0.2-0.2l0.1,0.1L64,16.6
	L63.9,16.5L63.9,16.5L63.9,16.5z M64,17.8l0.1,0.3l0.1,0.2l0.1,0l0.2,0l0.1,0.1h0.1l0.3-0.2V18l0.2-0.1l0.2-0.2l0-0.3l0.1-0.3
	l0.2-0.3l-0.1-0.1v-0.1l0.1-0.1l0.1-0.3l0.1,0l0.2-0.2l0.2-0.2l0-0.3l0-0.2l0.2-0.1l0-0.1l-0.1-0.2l-0.1-0.3l-0.1,0l-0.2-0.1H66
	l-0.1-0.1l0.1-0.2l0.3-0.2l0-0.1l-0.1-0.1v-0.3l0.1-0.2l-0.2-0.2l-0.1,0l-0.3,0.2l-0.3,0.1l0,0.2l-0.2,0.2l-0.2,0l0-0.2l0.2-0.1
	l0.1-0.2V13l0.1-0.4l-0.1-0.2l-0.1-0.1l-0.1-0.2L64.9,12L64.7,12L64.4,12l-0.3,0.2l-0.1,0l0-0.3l0-0.1l-0.2,0.2l-0.1,0.2l-0.2,0.1
	l-0.1,0.2l-0.2,0.3l0,0.2l0.2,0.1l0.1-0.1l0.2-0.1l0.1,0.1l-0.2,0.2l-0.3,0.1l-0.2,0.3l0,0.1l0.3-0.1l0.3-0.3h0.1l0.2-0.1l0.1,0.2
	L64,13.6l-0.1,0l-0.3,0.2L63.6,14l0.1,0.1l0.3-0.1l0.2,0.1l-0.2,0.2l-0.3,0.1l-0.2-0.1l0,0.1l0.2,0.1v0.1L63.3,15h-0.1l-0.1-0.3
	l-0.2-0.1l-0.2-0.2l-0.4,0.2v0.1l-0.2,0.4l0.2,0.3v0.2l0.2,0.1l0.2-0.2l0.2,0l0.3,0.1l0.3,0l0.1,0.1l0.3-0.1l0,0.2l-0.2,0l-0.1,0.1
	l0,0.2l0.3,0l0.2,0.2l0.1,0.3h0.1l0.1,0.1l-0.1,0.1v0.2L64,17.8L64,17.8z M62.9,16.2l0-0.2l0.3-0.1l0.2,0l-0.1,0.1l0,0.1L63,16.2
	L62.9,16.2L62.9,16.2z M62.5,17.4l0.1-0.2l0.4,0l0.3,0.1l0.3,0.4l0,0.2l0,0.3l-0.1,0L63.2,18L63,18.1h-0.1l-0.2-0.3l-0.2-0.2
	L62.5,17.4L62.5,17.4z M59.8,19.2l0.2-0.1h0.3l-0.1,0.2l-0.2,0.1L59.8,19.2L59.8,19.2z M59.6,18.9l-0.1-0.3l0.1-0.2l0.1-0.3l0-0.2
	l0.2-0.2l0-0.1l0.1-0.1v-0.1l0.2-0.3v-0.2l0.1-0.1l0.2,0.1l0,0.3l0.1,0.1l-0.2,0.4l0,0.2l-0.1,0.2l0.1,0.1l-0.2,0.5l-0.3,0.1
	L59.6,18.9L59.6,18.9z M57.2,14L57,13.8L57,13.5l0.1-0.1l-0.1-0.1l-0.2,0l-0.1-0.1l-0.1,0.1l-0.2,0L56,13.4l0-0.2l0.2-0.2l0-0.1
	l0.2,0h0.2l0.6-0.2l0.2,0l0.2,0.1l0.1,0l0.2,0l0.3-0.2l0.3,0l0.1,0l0.1-0.1l0.2,0.1l0,0.1l0.1,0.2v0.2L59,13.4l0.1,0.3L59,14.1
	l-0.2,0.1l-0.2,0.2l-0.2,0l-0.2,0l-0.1-0.1l-0.2,0.1L57.6,14l0-0.3l-0.2-0.2l-0.1,0.1l0,0.2L57.2,14L57.2,14z M54.2,15.6l0.2-0.2
	l0-0.2l0.2-0.2l0-0.2l0.2-0.1l0.2-0.1h0.2l0.5-0.1l0.1,0.1H56l0.2,0.1h0.2l0.1,0l0.3,0.1l0,0.1l0.3,0l0.2,0.1l0.1,0.1l0.3,0l0.1,0.1
	l-0.2,0.4l-0.2,0l-0.5,0.2l-0.2,0l-0.3,0.2v0.1l0.2,0l0.1,0l0,0.2l-0.3,0.3l-0.1,0.1l-0.2,0l0,0.1l-0.1,0.2H56l-0.2,0.1h-0.2
	l-0.2-0.2l-0.1,0.1l-0.2,0l-0.2,0l-0.1-0.1l0.1-0.1l-0.2-0.3l-0.2-0.1l-0.1,0l0-0.3L54.2,15.6L54.2,15.6z M53.9,14.9l0.1,0.1
	l0.3-0.1l0.2-0.2l0-0.3l0-0.1l0-0.2l0.1-0.3l-0.2,0.1l-0.1,0l-0.2-0.1L54,13.9l-0.1,0l-0.1,0.2l0,0.2l0,0.2L53.9,14.9L53.9,14.9z
	 M72,30.7c0,0,0.2,0.1,0.2,0.1l0.2-0.1l0,0.2h0.2l0,0.1l0.2,0l0.4-0.2l0.2,0l0.3,0.2l0.2,0l0.1,0.1l0.1-0.1l0-0.1l0.1-0.3l0.1,0
	l0-0.1l-0.1-0.2v-0.2l0.1,0.1l0,0.1l0.2,0.3l0.1-0.1l0.1,0l0.1,0l0.1,0.1l0-0.1l-0.1-0.2l0-0.1l-0.1-0.1l-0.2,0.1l-0.2,0l-0.1-0.2
	l0.1-0.1l0.1,0.1l0.2-0.1l0.1-0.2l0.1,0.1l0.1,0l0.1-0.2l0-0.1l0.1-0.2l0-0.1l0.1,0l0-0.1l-0.3-0.1l-0.2,0l0.1-0.2l0.1,0l0-0.2
	L75.2,28l-0.4,0l-0.1-0.1l0-0.1l0.1,0l-0.1-0.2l-0.3-0.3h-0.2l-0.2,0.1h-0.3l-0.3,0.1l-0.4-0.3L73.1,27L73,27l-0.2,0.1l-0.1,0
	l-0.1,0.1l-0.2,0l-0.1,0.2l-0.1-0.1l-0.2-0.1l-0.2,0.1l-0.2,0l0,0.1l-0.1,0.1v-0.1l-0.1-0.1l-0.2,0.1l-0.5-0.1l-0.1,0.1l0.1,0.1
	l0,0.2l0.2,0.1l-0.2,0l-0.1-0.1l-0.1,0l-0.3,0.1L70,27.5l0.2-0.1l0-0.2L70,27l0-0.1L70,26.7l-0.3,0.1l0,0.1l-0.1,0.1l-0.2-0.1
	l0.1-0.1l0-0.1l-0.2-0.1l-0.1,0.1h-0.1l0.1-0.2l0-0.1l0-0.2l-0.2,0.1l-0.2,0.2l0,0.3l-0.1,0l-0.1-0.2l0.1-0.2v-0.1l0.1-0.3l-0.1-0.2
	L68.3,26v-0.1l0.2-0.1l0.1-0.2l0-0.2l-0.1,0.1l-0.2-0.1l-0.1,0.1l-0.2,0l0.1-0.1l0-0.1h-0.2l-0.1,0.1l-0.3,0v-0.1l0.1-0.1l0.1-0.2
	l0-0.2l0.1,0l0.2,0.2h0.3l0-0.1l-0.2-0.2l-0.2,0l0.1-0.1l-0.3-0.3l-0.2-0.1l0.1,0l0-0.1h0.1l0.1,0.2l0.2,0.2l0.3,0.1l0.2,0.2
	l0.1-0.1l0.1,0.1l0.3,0.1h0.2l0.1-0.2l-0.1-0.2L69,24.3l-0.2-0.2l-0.1,0l0-0.2l-0.2-0.2l-0.1,0l-0.1-0.1l0.1-0.1l0.2,0.1l0.1,0.2
	h0.1l0,0.2l0.1,0l0.1-0.1l-0.1-0.3l-0.2-0.3l-0.2,0l-0.1,0l-0.2,0L68,23.2h-0.2l-0.2-0.1l-0.1,0l-0.1-0.2l-0.2,0.3l-0.3,0.2
	l-0.1,0.2l-0.2,0.1l0-0.1l0.1-0.2l0.1,0l0.4-0.4l0-0.1l-0.1-0.2l0-0.5l0.1-0.1l-0.2-0.2l-0.1,0.1l-0.2,0l-0.1-0.1l0-0.2l0-0.1
	l-0.3-0.1l-0.2-0.2h-0.2L65.7,21l-0.1,0.1l-0.4,0l0,0.1l-0.1,0L65,21.5l0.1,0.2l0.1,0.2l-0.1,0l-0.2-0.3l0,0.2l0.1,0.2l0.2,0.1
	l0.2,0.4h0.2l-0.1,0.1l-0.2,0l0,0.2l0.3,0.3l0.2,0.1l0,0.1l-0.1-0.1l-0.3,0v0.1l-0.1,0.1L65,23.5l0.3-0.1l0.1,0.1l0.3-0.1l0,0.1
	l0.2,0l0,0.1l0.3,0.2l0.1,0l0-0.1l0.1,0.1l0.2-0.1l0.1,0l0,0.1l-0.1,0.2v0.4l-0.1,0.3V25l0.1,0.2l-0.1,0.3v0.1l-0.1,0.2L66.5,26
	l-0.3,0.1l0,0.2l-0.2,0.3l0,0.1l-0.2,0.1L65.7,27l0,0.2l0.1,0v0.1l-0.2,0.1l0,0.2l0.1,0.1L65.5,28l-0.1,0.2l0.1,0.2l0.1,0v0.1
	l0.2,0.2l0.1,0l0-0.2l0.1-0.1l0.1,0.1l0.1,0l0.2-0.3l0.1,0.1l-0.1,0.3l-0.2,0l0,0.1l0.1,0.1l0,0.1l0.2,0.2l0.2-0.1l0.1,0.1l0.3,0
	l0.1-0.1l0.2-0.1l0-0.2l0.1,0l0.1-0.1l0,0.1l0,0.1l0,0.2l0.1,0l0.1-0.3l0.1-0.1l0.1,0.1L68,29l-0.3,0.4l-0.1,0.1l0,0.2l0.2,0.1
	l0.2,0.1l0.2,0l0.1,0.1l0.2,0l0.1-0.2l0.2,0l-0.1,0.1l0,0.1l0.2,0l0.1,0.1l0.1-0.1l0-0.1l0-0.2l0.1-0.2l0.1,0.2l-0.1,0.2l0,0.2
	l0.1,0l0.1-0.2l0.1-0.1l0.2,0l0,0.1L69.6,30l0,0.2l0.3,0l0.2-0.1l0.1-0.3l0,0.2L70.1,30v0.2l0.2,0l0.1-0.3l0.1-0.1l-0.1,0.4l0,0.1
	l0.2,0l0.3,0.2l0.2-0.1l0.1,0l0.1,0.1l0.2-0.1l0.1-0.1v-0.2l0.2-0.2l0.1-0.1l-0.1-0.2l0.1-0.2l0.1,0l0,0.3l0.1,0l0,0.1L72.1,30
	L72,30.3L72,30.7L72,30.7z M64.7,21l0.1,0v-0.1l-0.1,0L64.7,21L64.7,21L64.7,21z M64.3,22.3l0.1-0.2l0.1-0.1l0,0.2L64.3,22.3
	L64.3,22.3L64.3,22.3z M59.1,24.2L59.1,24.2l0,0.2L59.1,24.2L59.1,24.2L59.1,24.2z M62.5,20.9L62.5,20.9l0.1,0.3l0,0.1l0.1,0l0-0.2
	L62.5,20.9L62.5,20.9L62.5,20.9z M60.9,21v0.1l0.1,0.1l0.1-0.1l0.2,0l0.2,0l0.3-0.2l0.2,0l0.2-0.1l-0.1-0.1l-0.3,0l-0.2,0.1
	c0,0-0.2,0.1-0.2,0.1c0,0-0.2,0-0.2,0L61,20.9L60.9,21L60.9,21z M59.2,21.6l-0.1-0.1l-0.3,0l-0.2-0.1L58.5,21l0.2-0.2l0-0.2
	l-0.1-0.1l0-0.2l0.1-0.1h0.3l0.1,0.1l0.1,0.1l0,0.1l-0.1,0.1l-0.1,0.1l0.1,0l0.2,0l0,0.1L59.4,21l0.1,0.2l0,0.2l-0.1,0.2L59.2,21.6
	L59.2,21.6z M58.9,22.3l0.4,0l0.1-0.1l0.2-0.3l-0.1-0.2l-0.2,0l-0.3-0.1l-0.3,0l-0.2,0l-0.2,0l-0.1,0.1l-0.1,0.1l0,0.2l0,0.1l0.1,0
	l0.1,0.1l0.2,0l0.2,0.1L58.9,22.3L58.9,22.3z M58.2,22.6l0.5,0.1l0.2-0.1H59l0.1,0.1l0.1-0.1l0.2,0l0-0.1l-0.2,0l-0.5,0.1l-0.2,0.1
	l-0.1-0.1l-0.3,0l-0.2,0.1L58.2,22.6L58.2,22.6z M58.1,23.2l0.1-0.1l0.2,0l0.2-0.2l0.4-0.1l0.1,0l0.1-0.1l0.1,0l0,0.1l-0.2,0.1
	l-0.2,0l-0.2,0l-0.1,0.1l-0.2,0.2l-0.2-0.1l-0.2,0l-0.1,0.1L58.1,23.2L58.1,23.2L58.1,23.2z M53,16.7L53,16.7l0-0.2l0.2,0l-0.1,0.2
	L53,16.7L53,16.7z M51.6,17.4l0.2,0l0.1-0.1l0.3,0.1l0.2,0l0.1,0.1l0,0.1l0.1,0.1l-0.1,0.2l-0.2,0.1l-0.2-0.1l-0.2,0l-0.1-0.2
	l-0.1-0.2L51.6,17.4C51.6,17.4,51.6,17.4,51.6,17.4L51.6,17.4z M44.1,17.8l-0.2-0.1l-0.1-0.1l0.1-0.1l0.2,0.1L44.1,17.8L44.1,17.8
	L44.1,17.8z M44.9,18.8l0.2-0.2v0.1L44.9,18.8C44.9,18.9,44.9,18.8,44.9,18.8L44.9,18.8z M45.3,18.5L45.3,18.5l0.1-0.3l0.1,0
	l0.1-0.3l0.1,0l0.2-0.1l0.1,0.1l0,0.2l-0.2,0.1l-0.1,0.3l0.1,0.2l-0.1,0.1l-0.1,0.2l0.1,0.1l0.1-0.1l0.1,0l0,0.2l0.1,0l0.3-0.2
	l0.1-0.2l0.1,0l0.1-0.2l0-0.2l0.1,0l0.1-0.2l0-0.3l0.1-0.1l0.1,0.1L47.1,18l0,0.1l-0.1,0.3l0.1,0.2h0.1l0.2-0.2l0-0.2l0.1-0.1l0.2,0
	l0.2-0.3l0-0.2l0-0.2L48,17l0.1,0.2l0.4-0.2l0.1-0.3l0-0.2l0.2,0l0.1-0.1l0.1,0.1l0.2-0.2l0.1,0.1l-0.1,0.4L49,17.1l-0.1,0.2
	l-0.1,0.1l0,0.1l-0.2,0.1l-0.3,0.4l0,0.1l0.1,0.2l0,0.2l0.2,0.1l0.2,0.1l0.1-0.1l0.2-0.1l0.1-0.2l0-0.2l0.2-0.1l0.1-0.2h0.2l0.1-0.1
	l0.1,0.1h0.2l0.1-0.1l0.3,0l0.1-0.2l0.1-0.4l0.2-0.3l0-0.2l0-0.1l0.2,0.2l0.2,0l0.1-0.1l0-0.1l-0.2-0.3l0-0.1l0.2-0.2l0.2,0l0.2-0.1
	l0.1,0.1l0.1,0l0.2-0.2l0-0.2l0-0.4l0.1-0.1l0-0.1l0-0.3L52,14.5l-0.2,0.1l-0.2,0.1l0,0.3l0,0.1l0,0.1l-0.2,0l-0.1-0.2l-0.1,0l0,0.1
	l-0.1,0.1L51,15.1l0-0.3l-0.2-0.2h-0.1l-0.1,0.1l-0.2,0l-0.2-0.1l-0.1,0l-0.5,0l-0.2,0.1l-0.1,0.2l-0.1,0.1L49,15h-0.1l-0.5,0.4
	l-0.2,0.1l-0.2,0l-0.3,0.2l-0.2,0l-0.2,0.1l0,0.1h-0.4L47,16.1l-0.2,0l-0.1,0.1h-0.1l-0.4,0.3l-0.2,0.1l-0.2-0.1l-0.2,0.1L45,16.7
	L44.8,17l-0.2,0l-0.3,0.1l-0.1,0.2l0.2,0l0.1,0.1l-0.2,0l-0.1,0.1l0.1,0.1l-0.1,0.1L44,17.9V18l0.2,0.1l0.2,0l0.1-0.2l0.2-0.1
	l0.2,0.1l0.2,0.3l0,0.2L45.3,18.5L45.3,18.5z M65.7,30.5L65.7,30.5l0.3,0l0,0.1l-0.1,0.1l-0.1,0L65.7,30.5L65.7,30.5z M63.3,25.8
	l-0.2-0.1l-0.2,0l-0.1,0.1l0.2,0l0.1,0.1l0,0.1l-0.3,0l-0.1,0.1l0.1,0.2l0,0l0,0.1l-0.2-0.1l-0.2,0.1l-0.2,0.2l-0.1,0.2l-0.1,0.1
	l0,0.1l0.1,0l0,0.1l0,0.1l0,0l0.1-0.2l0,0l-0.1,0.2l0,0.1l0.2,0.1l0.1,0l0.1,0l0,0.2l0.1,0l0.1-0.1l0.1,0l0,0.3l0,0.1l0.2,0l0.1,0.2
	l0.2,0l0.3,0.2l0.2,0l0.1,0.1l0.1-0.1L64,28.1l0.2-0.1l0.1-0.3l-0.1-0.2l0.2-0.3l0.1-0.1l0.1-0.4l0-0.3l0.1-0.1l-0.1-0.2l-0.2-0.2
	l0-0.2l-0.1-0.1l-0.1-0.2L64,25.4l-0.2,0.1l-0.2-0.1l-0.3,0l-0.1,0.1l0.1,0.2L63.3,25.8L63.3,25.8L63.3,25.8z M64.7,24.2l-0.1-0.1
	l0-0.1l0.2,0C64.8,24,64.7,24.2,64.7,24.2L64.7,24.2z M64.5,25.3l0-0.2L64.4,25l0-0.1l0.1-0.1l0-0.2l0.1-0.1h0.3L64.7,25L64.5,25.3
	C64.5,25.2,64.5,25.3,64.5,25.3L64.5,25.3z M63,24.8L63,24.8l0-0.2l0.2,0l0,0.1l-0.1,0.1l-0.1,0.1L63,24.8L63,24.8z M62.6,25.1
	L62.6,25.1l0.1-0.2l0.1,0L62.6,25.1L62.6,25.1L62.6,25.1z M62.9,25.5l0-0.1l-0.1-0.1l0-0.2l0.1,0l0.1,0.1l0.1,0.1L62.9,25.5
	L62.9,25.5L62.9,25.5z M62.5,25.7l-0.1-0.1l0-0.3l0.1-0.1l0.1-0.1l0.1,0l0.1,0.1l0.1,0.1l-0.1,0.1l0,0.1l-0.1,0L62.5,25.7L62.5,25.7
	L62.5,25.7z M61.9,25.8l0-0.2l0.1,0l0,0.1L61.9,25.8L61.9,25.8L61.9,25.8z M59.7,26.1L59.6,26l-0.2,0l-0.1-0.1v-0.2l0.1-0.1l0-0.1
	l0.1-0.2l0.1,0l0.1,0.1l0.1,0l-0.1-0.2l0.1-0.1l-0.2,0L59.4,25v-0.1l0-0.1l0.1,0l0.1,0.1l0.1-0.1l0-0.1l0.1-0.1l0.2,0.1l0.3,0.1
	l0.1-0.1l-0.1-0.1l-0.2,0l0.1,0l0.3,0l0.2-0.1h0.3l0.2,0l0.2-0.1l-0.1-0.1l-0.9-0.2l-0.2,0l-0.2-0.1l-0.3,0L59.4,24l-0.1,0l-0.1-0.1
	h-0.2L58.8,24l-0.1,0l-0.1,0l-0.1-0.1v-0.2l0.2,0l0.1-0.1l0.1,0.1l0.1,0L59,23.5l0.1-0.1l0.1-0.1l0.2,0l0.1,0l0,0.2l0.1,0.1l0,0.3
	l0.1,0l0.1-0.1l0-0.2l-0.1-0.1l0.1-0.2l0.2-0.1l0-0.1l-0.2-0.1l0.1-0.3l0.2-0.1l0-0.1l0.2-0.1l-0.1-0.1l-0.1,0l-0.1,0l0-0.1l0.2-0.2
	l0.1-0.1l0.2-0.1l0.1,0.1l0,0.2l0.1,0.1l0,0.2l-0.1,0.1l0.1,0.2l0.1,0.1l0.1,0.6l-0.1,0.2l0,0.1l0.2,0.1l0.2-0.2l-0.1-0.1l0.1-0.3
	l0.2,0v-0.2l-0.3-0.2l0-0.1l0.2,0l0.2,0.1l0-0.2l-0.2-0.2l-0.1-0.3l0-0.1l0-0.3l0.1-0.1l0.2,0l0.1-0.1l0.2,0c0,0,0.2-0.1,0.2-0.1
	c0,0,0.1,0,0.1,0l0.1,0.2l0.2,0.1l0.1-0.1l0.1,0.1l-0.1,0.4l-0.1,0.2l0,0.2l0.1,0l0.1-0.1l0.1,0l0.1-0.1l0-0.3l0.2-0.1l0.2,0.1
	l0.2,0l0-0.2l0-0.1l0.2,0l0.1,0.2l0,0.1l0,0.1l0,0.1l-0.1,0l0.1,0.2l0.2,0.1l0.1,0.2l-0.1,0.2l-0.2,0.1L63.3,23l0,0.2l-0.1,0.1
	l-0.2,0.1l-0.2,0.3l-0.1,0.1l-0.2,0.2l0,0.1l-0.1,0.2l-0.1,0l-0.1,0l-0.1,0.1l0,0.1l0.3,0.1l0,0.1l-0.3,0.4L62,25.3l0-0.1V25
	l-0.1-0.1L61.8,25l0,0.1l-0.1,0.1l-0.1,0.1l-0.2,0l-0.1,0.2l0.1,0.1l0.2,0l0,0.1l-0.1,0.1l0,0.1l0,0.2l-0.1,0.1L61.2,26l0-0.2
	l-0.1-0.1l-0.1,0.1l0,0.2l0.1,0.1L61,26.3l-0.6,0l0-0.2L60.3,26l-0.1,0.2l-0.2,0l0-0.1l0.2-0.2l-0.3,0.1L59.7,26.1L59.7,26.1
	L59.7,26.1z M45.8,20.2L45.8,20.2l0-0.3l0.4-0.4l0.3-0.1l0.2-0.1l0.1,0l0.3-0.2l0.3-0.1l0.2-0.1l0.1,0l0.4-0.1l0.1,0l-0.1,0.2
	l-0.3,0.2l-0.3,0.2L46.8,20l-0.2,0.3l-0.2,0.1h-0.1l-0.1,0.1l-0.1,0L46,20.2l-0.1,0L45.8,20.2L45.8,20.2z M56.1,24.6L56.1,24.6
	l0-0.2l0.2-0.1l0.1-0.2v-0.1l0.3-0.2l0.1-0.1l0.2,0l0,0.2l0,0.1v0.3L57,24.7l-0.2,0.2l-0.2,0l-0.1,0.1h-0.2l-0.1-0.2L56.1,24.6
	L56.1,24.6z M47.8,24.3l0.1-0.2l0-0.2l0-0.3l0.3-0.1l0.3,0.1l0.2-0.1l0.2,0.1l0.2,0l0.3-0.2h0.3l0.3,0.1h0.3l0.1,0.1l0.2-0.2l0.5,0
	l0-0.1l0.1-0.1L51.3,23l-0.1,0.2h-0.3l0-0.1l-0.3,0.1h-0.3V23l-0.1-0.1L50,23.1l-0.2,0l-0.2,0l-0.1-0.1l-0.2,0L49,23v-0.2l0.2-0.2
	l0.2-0.2l-0.1,0l-0.2,0l-0.1,0.2l-0.1-0.2l-0.1,0.1l0,0.2l-0.4,0.2l-0.1,0.1l-0.2,0l-0.2-0.2l0-0.2l0.1-0.2l-0.2,0l-0.1-0.1l0,0.3
	l-0.1,0.1l-0.2-0.1l0-0.2l-0.2-0.2l0.1-0.2l-0.1,0l0,0.2l-0.1,0l-0.2-0.3l-0.4-0.2v-0.1l0.2,0v-0.2l-0.1-0.1l0.4-0.3l0.2-0.1
	l0.1,0.1l0.4,0l0.3,0.2l0.3,0l0.2-0.1l0.3,0l0.2-0.2l-0.2-0.1l-0.1-0.1h-0.2l-0.2,0.1l-0.4-0.1h-0.2l-0.1-0.1l0.3-0.3l0.2-0.3l0.2,0
	l0.1,0l0.4-0.1l0.5,0l0.3,0.1l0.1,0L49.6,20h-0.1l-0.2-0.1H49l-0.4-0.1l-0.1-0.2l0.2-0.2l0.1-0.2l0.1-0.1h0.1l0.2-0.1h0.2l0.1,0.1
	h0.2l0.2,0.2l0.1,0.1L50,19.1l-0.2-0.2l0-0.2l-0.1-0.1l0.1-0.1l0.6-0.1l0.2,0l0.3,0l0.2,0.2l0.1,0.3l-0.2,0.1l-0.2,0.3l0.1,0.2
	l0.4,0l0.1-0.1l0.1,0.1h0.1l0.1,0.1l0,0.1l0.1,0.1l0,0.1l-0.1,0.1l-0.1,0.1l0.2,0.2l0,0.4l-0.1,0.1L51.7,21l-0.2,0.1l0.1,0.1l0.2,0
	l0.2,0.1h0.1L52,21.7l-0.2,0.1l0,0.4l0.1,0.1l0.2-0.1l0.1-0.1l0.1,0.1l0,0.2l0.2,0l0.1,0l0.4,0.1l0.2,0.2l0.1,0l0-0.1l-0.1-0.1
	l0.3-0.2l-0.1-0.4l-0.2-0.2l0-0.2l-0.1-0.2l0.1-0.1h0.1l0.3-0.1l0.2,0l0.1-0.3L54,20.5l-0.1-0.1l0-0.2l-0.1-0.3l0.2-0.3l0.2-0.1
	l0.1,0l0.2,0l-0.1-0.1l0.1-0.2l0.2-0.1l0.5-0.4l0.1,0l0.3,0.1l0,0.1l0.1,0.2l-0.1,0.1l-0.2,0l-0.1,0.1v0.2l-0.1,0.2v0.3l0.1,0.1v0.5
	l-0.1,0.1h-0.1l-0.3,0.3l-0.2,0.1v0.1l0.1,0l0.2-0.1l0.3,0l0.1,0.1l-0.2,0.2l-0.3,0.2l-0.3,0.3l-0.1,0.2l0.1,0.1l0.1-0.2l0.4-0.2
	l0.1-0.1l0.1-0.1l0.3,0.1l0,0.3l-0.2,0.3l0,0.1l0.2-0.2l0.2,0l0-0.1l0-0.1l0.1-0.2l0-0.2l0.3-0.2l0.1,0l0.3,0.2l0.1,0.3l0.1,0.2
	l-0.1,0.3l-0.3,0.5l-0.2,0.2l-0.2,0.1l-0.1,0L56,23.5l0,0.2L55.8,24l-0.2,0l-0.2,0.1l0,0.2l-0.1,0.1l-0.1,0l-0.1,0.1v0.1L55,24.6
	l-0.2-0.1l-0.2,0.1l-0.2,0l-0.3,0.2l-0.3,0l-0.3-0.1l-0.1-0.1l0.1-0.2l0-0.1l-0.1,0l-0.2,0.1l0,0.1l-0.2,0.1l-0.3-0.1v-0.1l0.1-0.1
	L52.9,24L52.8,24l0,0.1l-0.1,0.1h-0.2l-0.3,0.2L52,24.4l-0.2,0l-0.1-0.1l-0.3,0l-0.1-0.1l-0.1,0.1l-0.2,0l-0.2,0.1l0,0.2l-0.1,0.1
	l-0.3,0l-0.1,0.1l-0.2,0.1l-0.1,0L50,25h-0.2l-0.1-0.1l-0.3,0L49.1,25h-0.3l-0.3-0.2l-0.3-0.1L48,24.5L47.8,24.3L47.8,24.3z M35,31
	v-0.4l0.2-0.3L35.1,30l0.1-0.3l0-0.2l-0.1-0.1l-0.2-0.6l0.2,0.1v-0.2h-0.4l-0.4-0.1l0-0.2l0.2,0.1l0.2-0.2l0.3-0.1l0-0.2h0.1
	l0.2-0.2l0.2,0l0.1-0.3l0.4-0.1l0-0.1l0.1-0.1l0.2-0.3l0-0.4l0.1,0.1l0.6,0.1l0-0.3l-0.1-0.3l0-0.2l0.2-0.1l0.5-0.4l0.2-0.3l0.4-0.2
	l0.1-0.2l0.3-0.3H39l0.1-0.2L39,24.2l0.1-0.4v-0.3l0.1-0.2l-0.1-0.1l0.1-0.2l0.3-0.1l0.2,0l0.7,0l0.2,0.1h0.7l0.5-0.2l0.6,0.2
	l-0.1,0.2l0.1,0.1l0.1,0.2l0.6,0.3l0,0.2l-0.1,0.2l0.2,0l0.2-0.1l0.2,0.1l-0.1,0.3l-0.3,0.3l0,0.1l0.4-0.3v-0.2l0.2-0.1l0.3,0
	l0.3-0.1l0.1,0l0.1,0.2l0.4,0.4l0,0.5l-0.1,0.2l0.2,0.4l0,0.3l-0.1,0.1l0.1,0.1v0.2l0,0.2l-0.2,0.2l-0.4,0.1l-0.2,0.1l-0.5,0.1
	l-0.3,0l-0.6,0.3l-0.4,0l-0.5,0.2l-0.2,0L41.7,28l-0.4,0l-0.1,0.1L41,28l-0.1,0.1l-0.4,0.1l-0.1,0.3l-0.2,0.2l-0.1,0L40.1,29
	L39.8,29l-0.2,0.2l-0.3,0l-0.2-0.3l-0.1,0.3l0,0.2l-0.2,0.1l-0.3,0.3L38.3,30l-0.2,0.3l0,0.1l-0.3,0.3l-0.2,0.2l-0.3,0L37,31l-0.2,0
	l-0.1-0.2l0.2-0.1l0-0.3l-0.1-0.1l-0.2,0.2l0,0.1l-0.1,0.1l-0.3,0.3L35.9,31l-0.2,0L35.5,31l-0.2,0.2l-0.1-0.1l-0.2,0L35,31L35,31z
	 M62.3,27.8L62.3,27.8l0.2,0.2l-0.1,0.2l-0.1,0.1l-0.1-0.1l-0.1-0.2L62.3,27.8L62.3,27.8z M60.2,27.8l0.1-0.2l0.3-0.1l0.1,0.1
	l-0.1,0.1l-0.2,0l-0.1,0.1L60.2,27.8L60.2,27.8z M58.2,29l0.1,0.1l0.3,0.1l0.3,0.2l0.1-0.1l0.2,0.1l0.3-0.1l0.2,0.1l0.2,0l0.1-0.2
	l0.3,0l0-0.2l-0.3-0.2l-0.2,0.1l-0.3,0l-0.1-0.1L59,29l-0.3-0.1L58.5,29L58.2,29L58.2,29L58.2,29z M57,36.5L57,36.5l0-0.2l0.1,0
	L57,36.5L57,36.5L57,36.5z M55.7,36.3l-0.1-0.1l0-0.2l-0.1-0.1L55.4,36l0-0.1l0.1-0.2l0-0.2l-0.1-0.2l0.1-0.2l0-0.3l0.1-0.1
	l-0.2-0.1l-0.1-0.2v-0.2l-0.2-0.2l0-0.3l-0.1-0.3h-0.1l-0.1-0.1l0-0.2l-0.1-0.1L54.3,33L54.3,33l-0.2,0L54,32.9l0-0.2l0.2-0.1l0-0.3
	l-0.1-0.1l0.1-0.1v-0.4l-0.1-0.1l0.3-0.3l0.2-0.1l0.1-0.1l0.1,0l0.1,0.1l0.3-0.1l0.2,0.1l0.1,0.1l-0.1,0.1l-0.1,0l0,0.1l0.2,0l0,0.1
	l0,0.2l0.3,0.3l0,0.2l0.1,0.2l0.2,0l0.1-0.1l0-0.2l0.1-0.1l0.1-0.2l0-0.1l0.1-0.1l0-0.2l-0.1-0.2l0.1-0.1l0.2,0l0.1,0.1l0.1,0.2h0.1
	l0-0.1l-0.2-0.3l0-0.2h-0.1l-0.1,0.2l-0.2,0l-0.2-0.3v-0.1l-0.2-0.2l0-0.2l0.1-0.1l0.2,0l0-0.2l0.2,0.1l0.1,0.2l0.1,0.4l0,0l0-0.2
	l0.1-0.1l0-0.2l-0.2-0.1l0-0.2l0-0.2l0.1-0.1l0.1-0.2l0.2-0.1l0.1,0l0.1,0l0.2,0.2l0.3,0.1l0.1-0.2l-0.2,0l-0.1-0.1l0.1-0.1l0.2-0.1
	l0.3,0l0.1,0.1L58,29.1l0,0.1l0.1,0.1l0.1,0.2l0.2-0.1l0.2,0.1l0.3,0l0.1-0.1l0.2,0h0.5l0.2,0.2l0.1,0l0,0.1l0,0.1l0.1,0.2l-0.1,0.2
	l-0.3,0.2l-0.2-0.1l0-0.1l-0.1,0.1l-0.1,0l0,0.1l0.2,0.1l-0.1,0.1l0,0.3l-0.1,0.1l-0.1-0.1l-0.2,0l-0.2,0.1l-0.1,0.1l-0.4,0.1
	l-0.2,0.2l-0.1,0l-0.2,0.3l0,0.1l0.1,0l0.1-0.1l0.3-0.1l0.1,0l0.3,0.2l0.1,0.2l-0.1,0.1l-0.1,0l0.2,0.1l0,0.2l0,0.2l-0.2,0.1V33
	l0.1,0.1l0.1-0.2l0.2-0.1l0.1-0.1l0.1,0l-0.1,0.1l0,0.3L59,33.5v0.2l-0.4,0.2l-0.2,0L58.4,34l0.1,0.1l-0.1,0.3l-0.1,0l-0.1-0.1
	l-0.1,0.1l0,0.1l0.3,0.1l-0.1,0.1l-0.2,0l0.1,0.2L58,35.1L57.9,35l-0.1,0.1l-0.2,0l-0.2,0.1l0,0.2L57,35.5l-0.2-0.2l-0.2,0.1l-0.1,0
	L56.3,35l0.2-0.3l0-0.2l-0.4,0.3l0,0.2l0.2,0.4l0.1,0.1l-0.1,0.2L56.1,36L56,36.2C56,36.2,55.7,36.3,55.7,36.3L55.7,36.3z
	 M59.3,31.3L59.3,31.3l0.1,0.1l0-0.1L59.3,31.3L59.3,31.3z M59.2,32.2l0.1,0l0.2-0.2l0-0.1l-0.1-0.1l-0.1-0.2l-0.1,0.1l-0.1,0.2
	L59,31.8l0,0.2L59.2,32.2L59.2,32.2z M59,32.6L59,32.6l0.2-0.3l-0.2,0l-0.2,0.1l0,0.1L59,32.6L59,32.6z M50.8,28.1l0,0.1l0.1,0.1
	l0.1-0.1l0.2,0.1l0.1-0.1L51.2,28L50.8,28.1L50.8,28.1L50.8,28.1z M52.2,30.7l-0.2-0.2l0-0.4l-0.1-0.2v-0.2l0-0.1l-0.1-0.2v-0.2
	l-0.2-0.2l-0.2-0.2l0-0.1l0.3-0.3l0.2-0.1l0.2-0.2l0.3,0l0.2,0.1l0.1,0l0.2,0.1l0.1,0l0.2,0.1l0.1,0l0.2,0l0.2,0.3l0,0.2l-0.1,0.1
	l0.1,0.2v0.1l-0.1,0.1l0,0.2l-0.2,0.2h-0.1l-0.3,0.3l-0.3,0.2l-0.2,0.3h-0.2l-0.1,0.1L52.2,30.7L52.2,30.7L52.2,30.7z M59.9,35.1
	l-0.3-0.3l-0.2,0.1l-0.4,0l0.1-0.2l0.2-0.1l0.1,0.1l0.1-0.1l0-0.1l-0.2,0l-0.1-0.1l0.3-0.4l0.1-0.4l0-0.2l0.1-0.1v-0.1l-0.2-0.1
	l0.1-0.1l0-0.2l0.2-0.4l0.1-0.1V32l0.2-0.1l0.1-0.2l0.1-0.1l0-0.2l0.3-0.3l0.1-0.3l0.2,0l0-0.1l-0.1-0.1l0.2-0.3l0.1,0l0.2,0.3
	l0.1,0.2l0.2,0l0-0.2l-0.2-0.2l0-0.1l0.2-0.1L61.5,30l0.2-0.3l0.5-0.1l0.3,0l0.2-0.1l0.1,0.1l0.2,0l0.1,0.2l0.1-0.1l0.3,0l0.1,0.2
	l0.2,0.1l0,0.1h0.1l0.1,0.2l0,0.2l0.1,0.1l0.1-0.1l0.3,0l0.5,0.1l0.3,0.2l0,0.2l0.1,0.1l0.1,0.2L65.4,31l-0.1,0l-0.1,0.2l-0.3,0.3
	l-0.2,0.2l-0.2,0.1v0.1l-0.4,0.3l-0.2,0.3h-0.2l0,0.1l0.1,0.1l-0.1,0.2l-0.3,0.2L63,33.4l-0.4,0.3l-0.2,0.1l-0.1-0.1l0-0.1l-0.1,0
	l-0.3-0.2l0-0.2l-0.2-0.1l-0.2,0.1l-0.2-0.1l-0.2,0l-0.2-0.1l-0.2,0l0,0.1l0.1,0.1l0.4,0l-0.1,0.2L61,33.6l0.1,0.1l0,0.2L61,34.2
	l-0.1,0.1l-0.1,0.1l-0.2,0l-0.1,0.1l-0.1,0.2l-0.2,0.2l-0.2,0L59.9,35.1C60,35.1,59.9,35.1,59.9,35.1L59.9,35.1z M73.1,36l-0.3-0.1
	l-0.2-0.1l-0.1-0.3l-0.1-0.1l-0.1-0.2l0.1-0.3l0.2-0.1l0-0.2l0.1-0.1l0-0.2l-0.2,0l-0.2-0.2l0.2-0.4l0.1,0l0.1-0.1l0-0.2l0.1-0.2
	l0.1-0.3l0.2-0.1l0.1,0.1l0,0.2l0.4,0.1l0.2,0.2l0.2,0.1l0.1-0.1l0.4,0.1l0.3,0l0.1,0.1L75,34l0.3,0.2l0.1,0.2l-0.1,0.2l0,0.1
	l0.2,0.1l0,0.1l0,0.2l0,0.1l0.1,0.2l0,0.2l-0.1,0.1l0.3,0.1V36l-0.1,0.1l-0.1,0.1l-0.4-0.1L75,36.1L74.6,36l-0.1-0.1l-0.3-0.1h-0.1
	l-0.2-0.1l-0.3,0.1l-0.2,0L73.2,36L73.1,36L73.1,36z M71.9,36.4l0-0.2L72,36l0.1,0.1v0.1L71.9,36.4L71.9,36.4z M72.2,36.6l-0.1-0.1
	l0.1-0.1l0.1,0l0,0.1L72.2,36.6L72.2,36.6z M72.8,36.6l-0.1,0l0-0.1l0.1,0L72.8,36.6L72.8,36.6L72.8,36.6z M59.5,41.1L59.5,41.1
	l0-0.2h0.1l0.1,0.1l-0.1,0.1l-0.1,0L59.5,41.1L59.5,41.1z M60.1,42.2l0,0.3l0.1-0.1l0.1,0l0-0.2l-0.1-0.1L60.1,42.2L60.1,42.2z
	 M59.9,42.2l-0.1,0.1l0.1,0.1l0,0.1l0.1,0.1l0.1-0.1l0-0.3L59.9,42.2L59.9,42.2L59.9,42.2z M64,41.5L64,41.5l-0.2-0.1l-0.1-0.1
	l0,0.1l-0.1,0l0-0.2L63.4,41l0.2-0.1l0-0.1l0.2,0l0.1,0.2l0.2,0l0,0.2l-0.1,0.1C64.2,41.4,64,41.5,64,41.5L64,41.5z M66.4,42.4
	l-0.1,0l-0.1-0.2l0.1,0.1h0.1L66.4,42.4L66.4,42.4L66.4,42.4z M66.6,42.4l0.2,0.1L66.6,42.4L66.6,42.4L66.6,42.4z M67,42.5l0.1,0
	l0.1,0.1l0.1,0l0-0.1l-0.2-0.1l0-0.1H67L67,42.5L67,42.5L67,42.5z M69.5,45.9v-0.1l0.1-0.1l-0.1-0.2l0.1,0l0.1,0.1l-0.1,0.1l0,0.1
	L69.5,45.9L69.5,45.9z M69.3,46.5l-0.1-0.3l0.1-0.2l0.1,0l0.2,0l0,0.1l-0.2,0L69.3,46.5L69.3,46.5L69.3,46.5z M67.8,43.3L67.8,43.3
	L67.8,43.3L67.8,43.3L67.8,43.3z M67.5,43.3l-0.1-0.2l0.1,0.1L67.5,43.3L67.5,43.3L67.5,43.3z M67.5,43.5L67.5,43.5l0.2,0.1l0.1,0.1
	l0-0.1l-0.1-0.1L67.5,43.5L67.5,43.5L67.5,43.5z M68.9,42.9l0.2,0l0,0.1l0.1,0.1l0,0.1l0.1,0.1l0.1,0l0-0.1l0.1,0.1l0.2,0l0.1,0
	l0.1-0.1l-0.1-0.1l-0.3,0l-0.2-0.1l-0.2,0l0,0.1C69.1,42.8,68.9,42.9,68.9,42.9L68.9,42.9z M71.3,42.7l0-0.1l0.1,0L71.3,42.7
	L71.3,42.7L71.3,42.7z M70.5,43.7l0.1-0.1l0.1-0.2l0.2,0l0.1-0.1l0.1,0l0.1,0.1l0,0.1l-0.2,0.1l-0.2,0.1l-0.2,0L70.5,43.7L70.5,43.7
	z M69.7,45l0.4-0.3l0.1-0.1h0.1l0.2-0.2l0.2-0.1l0-0.2L70.5,44l-0.2,0l0,0.2h-0.1L70,44.4l-0.2,0.1l-0.3,0l-0.2,0.1l-0.1,0.2
	l-0.2,0.1l0.1,0.2l0.1-0.1l0.2,0H69.7L69.7,45z M71.4,44.8l-0.1-0.3l0.1-0.1l0.1-0.2l0.1,0l0.2,0l0,0.2l-0.1,0.2l-0.1,0l-0.1,0.2
	L71.4,44.8L71.4,44.8z M72.8,46.6l0-0.3l0-0.3l-0.1-0.2l-0.1,0l0,0.2l-0.1,0.2l0,0.2l0.1,0.1l0,0.2L72.8,46.6L72.8,46.6L72.8,46.6z
	 M73,46.4l0-0.2L73,46l0.1,0.2l0.1,0.1L73,46.4L73,46.4L73,46.4z M73.3,46.9l-0.1-0.1l0.1-0.1l0.1,0L73.3,46.9L73.3,46.9L73.3,46.9z
	 M72.6,47.3L72.6,47.3l0,0.3l0,0.3l0.1,0.1l0.1-0.1l0.2,0.1l0.1,0.1l0.2,0l0.2,0.1l0.1-0.1l-0.1-0.1l0-0.2l-0.2,0l-0.1-0.2l-0.2,0
	l-0.1,0l0-0.1l0-0.1l-0.1,0l-0.1,0.1l-0.1,0L72.6,47.3L72.6,47.3z M67,55.2l0.2,0l0.1-0.1l-0.1-0.1l-0.1,0L67,55.2L67,55.2z
	 M63.8,50l0.2,0.1l0.1,0l0-0.1L64,50L63.8,50L63.8,50L63.8,50z M63.1,51.2V51L63,50.9l-0.2-0.1l0-0.1l-0.1-0.2l-0.1-0.1l0-0.3
	l0.1-0.1l0.1,0.2l0.2,0.1l0,0.1l0.1,0.1v0.3l0.2,0.1l0.1,0l0,0.2l-0.2,0L63.1,51.2L63.1,51.2z M61.9,51.1l0-0.2l0-0.1l0-0.1v-0.3
	l0.1-0.2l0.1,0l0,0.2L62,50.4l0,0.1l0.1,0.1L62,51.1L61.9,51.1L61.9,51.1z M61.8,46l0,0.2l0.1,0.1H62l0.1-0.1l0-0.1l-0.2,0L61.8,46
	L61.8,46z M61.8,45.9l0.1-0.2l0-0.2l0.2-0.2l0.1-0.1l0,0.1v0.2l0,0.2v0.2l-0.2,0.1L61.8,45.9L61.8,45.9z M51.5,43.8l0.1-0.1v-0.2
	h-0.2L51.5,43.8L51.5,43.8L51.5,43.8z M42.7,41.3l0.1-0.1H43l-0.1,0.1C42.9,41.3,42.7,41.3,42.7,41.3L42.7,41.3z M42,41.7l0.2,0
	l0-0.1l-0.1,0L42,41.7L42,41.7z M42.3,42.4l0-0.1l0,0L42.3,42.4L42.3,42.4L42.3,42.4z M42.3,42.5l-0.1-0.3l-0.1,0.1l0.1,0.1
	L42.3,42.5L42.3,42.5z M42.7,43l0.1,0.3l0.1,0l0.2-0.2L42.9,43l0.1-0.1h-0.1L42.8,43L42.8,43L42.7,43L42.7,43z M42.4,44.3L42.3,44
	l0.1-0.1l0-0.2l0.1-0.2l0.1,0.1l0,0.1l0.1,0.1l-0.1,0.1l0.1,0.1l-0.1,0.1l0,0.1L42.4,44.3L42.4,44.3z M50.4,39.4l0-0.1l0.1-0.1
	l0,0.1L50.4,39.4L50.4,39.4L50.4,39.4z M53,37.8l0-0.3l-0.1-0.1l0.1-0.3l0.1-0.1l0.1,0.1l0,0.1l0.1,0.1l-0.1,0.1L53,37.8L53,37.8
	L53,37.8z M50,41L50,41l0-0.2l0.1-0.1v-0.1l0.1-0.1l0-0.1l-0.2,0l0-0.2l0.1-0.2l0.2,0l0-0.2l-0.2-0.1l-0.1,0l0,0.1l-0.1,0.1
	l-0.1-0.1l-0.3,0l-0.3,0.3L49,40.2l0-0.1l0.2-0.1l0.1-0.2l0-0.2l-0.1,0.1l-0.1,0l0-0.2l0.2-0.1l-0.1-0.3l0.1-0.2l0.1,0l0,0.1
	l0.1,0.3l0.1,0.1l0.1,0l0.2,0l0.1-0.2L50,39.1l0-0.1l0.1,0l0.1,0.1l0.1,0l0.2-0.2l0.1-0.2l0,0.2l0.1,0l0.2-0.2l-0.2,0.3l0,0.3l0.1,0
	l0.1,0.1l-0.1,0.2h0.1l0.1-0.2l0.1-0.1l0.2-0.3l0.1-0.1l0,0.2l-0.2,0.2l0,0.3l0.2,0l0.1,0.1l0.1-0.1l0.2-0.2l0.1-0.3l0.1-0.2
	L52,38.6l0.1-0.1l0-0.1l-0.1,0l-0.1-0.1l-0.1,0.1v-0.2l0.1-0.1L51.7,38l-0.2,0l0-0.1l-0.2-0.2l0-0.2l-0.1-0.3l0-0.3l0.1-0.2
	l-0.1-0.3L51,36.7l0,0.2l-0.2-0.2l-0.2-0.1l-0.1-0.4l-0.1-0.1l0-0.3l-0.1-0.2l0-0.2l-0.1-0.1V35l0.2,0l0.1-0.2h0.1l0,0.1l0.1-0.1
	l0-0.2l0.2-0.4v-0.3l0-0.1l-0.2-0.3l0.1-0.2l0.1,0l0-0.3l0.2-0.3l0-0.2l0.1-0.1v-0.4l0.1-0.1v-0.2l0.2-0.3l0-0.2l0-0.1l0.1,0l0-0.2
	l-0.1-0.2l0-0.1v-0.2l-0.2-0.1l-0.1-0.3l0.1-0.1l-0.1-0.4l-0.2,0l-0.1-0.1l-0.1,0l0,0.3l-0.1,0L50.8,29l-0.1,0l-0.1-0.2l-0.1,0.1
	l0,0.3l-0.1,0.1l-0.1,0L50,29.5v0.1l-0.1,0.1l-0.2,0.5v0.2l-0.1,0.2l0,0.3l-0.1,0.1l0,0.2l-0.2,0.1l0,0.4l-0.2,0.1l-0.1,0L48.9,32
	l0.1,0.1L49,32.3l0,0.2l-0.2,0.2l0.1,0.2l0,0.2h-0.2l0.1,0.1l0.2,0.1v0.2l-0.1-0.1l-0.1,0l-0.2,0.1l-0.1,0l-0.1,0.1l0,0.2l-0.1,0.1
	L48,33.8l0-0.2l0.1-0.2l-0.1-0.1l0-0.3l0.2-0.3l0-0.3l0.1-0.1l0-0.2l0.1-0.2l0.1-0.4l0.2-0.1l0-0.3l-0.1,0l-0.1,0l0-0.2l0.1-0.1
	l0-0.4l-0.1-0.1L48.5,30l0.1-0.1l0-0.3l-0.1,0l-0.2-0.3l-0.3,0.1l-0.1,0.2l0.2,0.2l0,0.2l0.1,0.1v0.2l-0.1,0l-0.1-0.2h-0.1l-0.1,0.2
	l0.1,0.1l0.1,0.2l0.1,0.3L47.8,31l0-0.1l-0.1-0.1L47.7,31l-0.2-0.1v-0.2l-0.1,0l-0.1,0.2l-0.1,0v-0.2l0.1-0.1l-0.1,0l-0.3,0.1
	l-0.2,0.2l-0.1-0.3l-0.1,0l-0.1,0.1l-0.2,0l0-0.1l-0.2,0l-0.1-0.1l0.2-0.2l0.3,0l0.1,0l0.2-0.1l0-0.1l0.1,0l0.1,0L47,30v-0.2l0-0.1
	l-0.1-0.1l-0.2-0.4l-0.2-0.1l0-0.1l-0.3-0.3l0-0.1h-0.2l-0.2,0.2l-0.1,0l-0.3,0.3l0.1,0.1l0,0.1l-0.1,0L45,29.5l0-0.1l-0.2,0
	l-0.2-0.1l-0.2,0l-0.1,0.1l-0.2,0L44,29.3l0.1-0.1l0.3-0.1l0.1-0.2l0.2-0.1l0.1,0l0.2-0.2l0-0.2l0.1-0.1h0.2l0.2-0.3l0-0.3l0.1-0.2
	l-0.1-0.2l-0.2,0l-0.3,0.1l-0.4,0.1l-0.4,0.2l-0.8,0.1l-1,0.4l-0.2,0.2l-0.6,0.1L40.7,29l-0.3,0.2l0,0.2l0.2,0l0.1,0.1l-0.2,0.2
	h-0.2l-0.3,0.3l-0.3,0l-0.1,0.1l-0.1,0.2l-0.3,0.2L39,30.7l0,0.3l0.2-0.1l0.1,0.1l-0.1,0.1l0.1,0.1l0.1,0l0.2-0.1l0.2,0l0.2,0.1
	l-0.1,0.2l-0.2,0.1l-0.2-0.1l-0.2,0.1l0,0.2l0.4,0.2l0.1-0.1l0-0.2l0.1,0l0.1,0.1L40,31.8l0.2,0l0.4,0.1l0.3-0.1H41l0.3,0.1l0.2,0
	l0.2,0.1l0.1,0.2l0.2,0L42,32.2h-0.2L41.5,32l-0.4,0L41,32.1l0.3,0.1l0.1,0.1H41l-0.2-0.1l-0.5,0.1l-0.1,0.1l-0.1-0.1H40l-0.2,0
	l-0.2,0l-0.5,0l-0.1,0.1l-0.4,0.1l-0.1,0.2l0.1,0.6l0.1,0.1l0,0.2l-0.1,0.1l0,0.2l0.1,0.1l0.2,0l0.1,0l0.1,0.1l0.2,0l0.1-0.1l0,0
	l0.1,0.1l0.1,0.1l0.1,0l0.1,0.1l0,0.1l0.1,0l0.2-0.1l0.1,0l0.1,0.1l0.2,0l0.2,0l0.2,0.1l0.2-0.1l0.1,0.1l0.3,0l0.2-0.1l0.2,0.1
	l0.1,0.2l0.1-0.1l0,0.2l0.2,0.1l0,0.1l0.1,0.1h0.2l0.1,0.1l0,0.1l0.1,0l0.1,0.1l0,0.1l0,0.2l0.2,0.2l0.3,0.2l0,0.1l-0.1,0.1l0.1,0.1
	l-0.1-0.1L43,36.1L42.7,36L42.5,36L42.4,36l-0.1,0h-0.2L42,35.8l-0.1,0l-0.1-0.2l-0.1,0l-0.2,0l-0.1,0l-0.1-0.1L41,35.4l0-0.2h-0.1
	l-0.1-0.1l-0.2,0l-0.1-0.1l-0.5,0l-0.3,0l-0.2-0.1l-0.8,0l-0.1,0.1l-0.2,0.1l-0.1,0.2l0,0.3L37.9,36l0.1,0.3l-0.1,0.1l0.1,0.1
	l0.1,0.1l0,0.1L38,36.8l0.1,0.4l0.2,0.1l0,0.1l0.3,0.2l0.1,0.1l0.2,0l0.1,0.1l0.1,0l0.2-0.1l0.1,0l0.2,0.2l0.2,0l0.1,0.2l0.1,0
	l0,0.1L40,38.4l0,0.1l-0.1,0.1l0,0.1l-0.1,0.1L39.6,39l0,0.1l-0.1,0.1l0.2,0.1l0,0.3l0.1,0.2l0,0.1l-0.2,0.1l0.1,0.1l0.4,0.1l0.1,0
	l0.1,0l0.1,0.1l0.1-0.1l0.1,0l0.1,0.1h0.3l0.3,0.2l0.1-0.2l0.3,0l0.1,0.1l0.1,0l0.1-0.1l0.2,0l0.1,0l0,0.1l0.1,0l0.1-0.1l0.1,0.1
	l0,0.2l0.1,0l0.1-0.1l0.3,0l0.1-0.1l0.2-0.1h0.2l0.2-0.2l0.3-0.1l0.2,0l0.1-0.1l0.1,0l0.2,0l0.1,0l0.1,0.1H45l0.4-0.3l0.1-0.1l0.1,0
	l0.1,0.1l0.1-0.1l0.2-0.1l0-0.1l0.1-0.1l0.1,0l0.1,0l0.1-0.1l0-0.1l0.1,0l0.1,0l0.1,0.1v0.1l0.1,0.1l-0.2,0.1v0.1l-0.1,0.1l-0.1,0.1
	l0,0.1l0.1,0l0.2,0.1l0.1-0.1l0.1,0l0.2,0.1l0.1,0.2l0.1,0.1l0-0.1l0.1-0.1l0.1,0.1l0,0.1l-0.1,0.1H47l-0.1,0.1l0,0.1H47l0.1,0
	l0.2,0.1l0.1,0l0.2-0.2l0.1,0l0,0.2l0.1,0.2l0.1,0l0.1-0.1l0.2,0l0.1,0.1h0.2l0.1,0.1l0.1,0l0-0.2h0.1l0.1-0.1l0.1,0.1l0,0.1l0.1,0
	l0.2,0l0.1-0.2l0.1,0.1l0,0.1l0.1,0l0.1-0.1l0.1,0l0.1-0.1l0.1,0l0,0.1L50,41L50,41L50,41z M70.1,48.6l0.1-0.2l-0.1-0.1l0-0.2l0-0.2
	l0.3-0.3l0.1-0.2l0.2-0.1l0.3-0.4l0.2-0.1h0.1l0.1-0.1l0.1,0.1l0.2-0.1l0.2,0.1l0.1,0.1h0.1l0.1,0.2l0.1,0.2l0,0.2l-0.2,0.2
	l-0.1,0.2l0,0.2l-0.3,0.4l-0.1,0.2l-0.2,0.1l-0.3,0.1l-0.1,0.1l-0.2,0l-0.2,0.1l-0.1-0.1l-0.3,0.1l-0.2-0.1L70.1,48.6L70.1,48.6
	L70.1,48.6z M51,40.3l0-0.1l0-0.1l0.1,0l-0.1-0.1l0.1-0.1l0.1,0v0.1l0.1,0.1v0.1l-0.1,0.1l-0.1,0L51,40.3L51,40.3L51,40.3z M49.2,42
	l0.2-0.1l0-0.1l0-0.1l0-0.1l0,0l-0.2,0.1l0,0.1l-0.2,0l0,0.1l0.1,0.2L49.2,42L49.2,42z M51.4,41.6l-0.2,0.1l0,0.1L51,42l-0.1-0.2
	l0-0.1l0.2-0.3l0-0.2l0.1-0.1l0.1,0l0,0.1l0.1,0.2L51.4,41.6L51.4,41.6z M51.6,41.4l0-0.1l-0.1-0.1l0.1-0.3l0.1,0l0.1,0.2l-0.1,0.1
	l0,0.2C51.7,41.3,51.6,41.4,51.6,41.4L51.6,41.4z M55.6,41.4l0.1-0.3l0.2-0.2l0.3,0.1l0,0.2L56,41.5l-0.1,0.1l0-0.2l0-0.2l-0.1,0.1
	l0,0.1C55.7,41.4,55.6,41.4,55.6,41.4L55.6,41.4z M55.4,41.2L55.4,41.2l0.2-0.2l-0.1-0.2l-0.1,0.1L55.4,41.2L55.4,41.2z M55.3,43
	l0.1-0.1l0.3-0.2l0-0.2l-0.2,0.1l-0.1-0.2l0.2-0.4l0.1-0.2L55.4,42l-0.2,0.3l0-0.2l0.2-0.5l-0.1-0.7l-0.3-0.2v-0.2l-0.2,0l-0.2,0.2
	l0-0.2l0.2-0.1L54.7,40l0-0.2v-0.2l-0.3,0.1L54.1,40L54,40.4l0.1,0.3l-0.2-0.1l-0.1-0.3l-0.1,0l0,0.2l-0.1,0l0.1,0.2L53.5,41h-0.2
	l-0.1,0.2l-0.3,0l-0.1,0.1l-0.1,0l-0.5,0.3l0,0.2l0.2,0.3l0.2-0.1l0-0.1l0.1-0.2l0.2,0.2L52.7,42l0.2,0.2L53,42l0.1,0.1L53,42.3
	l0.2,0.3l0.2,0l0.1,0.3l0.1,0.2l0.2-0.3l0,0.2l0.3,0.2l0.2,0h0.2l0.2-0.2l0.2,0l0.2-0.2L55.3,43L55.3,43z M77.2,41.5l0-0.2l-0.1-0.1
	l0.1-0.2l0.2-0.1l0.2,0l0,0.1h0.1l0.1,0.1l-0.1,0.2l-0.2,0l-0.1-0.1l-0.1,0.1L77.2,41.5C77.3,41.6,77.2,41.5,77.2,41.5L77.2,41.5z
	 M76.7,60.3h-0.2l-0.2-0.1L76,60.1L75.9,60l-0.1,0l-0.3-0.3l-0.1-0.1l-0.2-0.1l-0.1,0L75,59.5l-0.1,0.1l-0.3-0.1l0-0.1l-0.1-0.1
	h-0.1l-0.2-0.3l0-0.1l-0.1,0l-0.1-0.1l-0.1-0.2l0.1-0.1l0.1-0.1l-0.2-0.1l-0.1,0.1l-0.1,0.1l-0.1-0.1l0-0.1h-0.2L73,58l-0.1,0
	l-0.1-0.1l-0.2-0.2l0-0.1l-0.1,0l-0.1-0.1l-0.1-0.2l0-0.3L72,57l0.1-0.1l0.3,0l0.4-0.3l0.1-0.1l-0.3,0l-0.1-0.2l-0.1-0.2l0-0.1
	l-0.1,0.1l-0.1,0.2l0,0.2l-0.2-0.2l0.1-0.2l0-0.3L71.9,56l-0.1-0.1v-0.2l-0.2,0l0-0.2l0-0.2L71.5,55l-0.2-0.1l0-0.2l0.2-0.2
	l-0.1-0.1l-0.4,0.3l0,0.2l-0.1-0.1l0.1-0.2l-0.2-0.1L71,54.6l-0.1-0.1l-0.1,0.4L70.6,55l0-0.2l0.1-0.2l0-0.2l0-0.1l-0.2,0.1
	l-0.2,0.2l-0.1,0l-0.1,0.2l-0.1,0.1l-0.3-0.1l-0.1-0.2h-0.2l-0.2-0.3l-0.1,0l-0.1,0.2v0.2l-0.1,0.1L69,54.6l-0.1,0.1l-0.2,0
	l-0.1,0.1l-0.2,0l-0.1,0.1L68,54.8l-0.3,0l0-0.1l-0.2-0.2l-0.1,0.1l-0.2-0.2l-0.1-0.4l0.1-0.2l0.2-0.1v-0.2l0.2-0.2l0.2,0l0.1-0.1
	l0.2,0l0.1,0l0-0.2l-0.1-0.1l0-0.1l0,0l0.1,0l0-0.1l0-0.1l0.1-0.1l0.2,0.3l0.2,0l0.2,0.2l0.2,0.2l0.1,0l0.2,0.1l0.1-0.1l0.2,0
	l0.1,0.1l0.1,0l0.2,0l0.1-0.2l0.1-0.2h0.3v0.1l-0.1,0.1l0.1,0.1l0.2-0.2l0.1-0.2l0.2-0.1l0.1,0.1l0,0.3l0.1,0.2l0-0.2l0.1-0.1
	l0.1,0.1l0.1-0.1l-0.1-0.5L71.6,52l0-0.2l-0.1-0.2l0.1-0.2l0.1-0.1l0.1,0L72,51l0.4-0.2l0.1-0.1l0.3-0.3h0.1l0.1,0.1l0.2,0l0.1,0
	L73,50.3l0-0.2l0.4-0.3l0-0.2l0.1-0.1l0.3,0.1l0.3-0.1l0-0.1l-0.1-0.2l0.1-0.2l0-0.4l0-0.1l0-0.1v-0.2l0.1-0.2l0-0.2l-0.2,0l0-0.1
	l0.1-0.3l0.1,0l0-0.2l0.1-0.2l0-0.1l-0.1,0l-0.1,0.1l0,0.1l-0.1,0l0-0.1l0-0.2L74.2,47l-0.4,0l-0.1-0.1l0-0.1l0.3-0.1l0-0.1
	l-0.2-0.1l0.1-0.2v-0.1L73.6,46l-0.1,0l0,0.1l0.1,0.1l-0.1,0.1l-0.2,0.1l-0.1-0.2l-0.1,0l0-0.3l0.2-0.2l-0.1-0.1l-0.3,0l0-0.1
	l0.2-0.1l0-0.1l-0.1,0l0.1-0.1l0.1-0.1l0-0.1l-0.1-0.1l-0.2,0.1l-0.1,0.2l-0.1,0.1l-0.1-0.1l0-0.2l-0.1,0.1l-0.1,0.2l-0.2,0
	l-0.1,0.1l-0.2,0l-0.1,0.1l0,0.1h-0.1l0-0.1l0.1-0.1l0-0.1l-0.1-0.1l0.2-0.2l0.1,0l0.1,0.1l0.1,0.1l0.1-0.1l0.1,0l0.2-0.2l0.1-0.2
	l-0.1-0.1l-0.1-0.1l-0.2-0.1l-0.1-0.2l0-0.1l-0.1-0.1l0-0.1l-0.2,0l0-0.1l-0.1-0.1l0-0.1l0.2-0.1l0.1,0.1l0.1-0.1l0-0.1l0.2-0.1
	L72,43.4l-0.1-0.1l-0.1,0l0-0.1l-0.2,0l-0.1,0.2l-0.1,0v-0.1l0.1-0.3l0.2-0.3l0-0.1l0.1-0.3l0-0.2l0.1-0.1l-0.1-0.1l-0.2,0.1
	l-0.1-0.1l-0.1,0l0,0.1l-0.1,0l-0.3-0.3l0-0.1l-0.1-0.1l-0.1,0l0-0.2l0.2-0.1l0-0.1l-0.1-0.1l0-0.2l-0.1,0l-0.1,0.1l0,0.3l-0.1,0.2
	L70.6,41l-0.1-0.1l-0.1,0l0,0.1l-0.1,0l0,0.2l0.2,0.2l0.1,0l0.2,0.4l0.1,0.1l-0.1,0.2l0,0.2l-0.1,0.2l-0.1,0.1l-0.5,0L70,42.7
	l-0.2,0l-0.2-0.1l0.1-0.1v-0.2l-0.3,0L69,42.1l-0.3,0l0.1,0.4l0.1,0.2l0,0l-0.2,0l-0.1-0.2l-0.2-0.2l-0.1,0l-0.1-0.2L68.1,42
	l-0.2-0.2l0-0.1l-0.1,0l-0.2-0.2l-0.1-0.1l-0.1-0.1l-0.2-0.1l0,0.2l0.4,0.3l0.1,0.2l0.1,0.2l0.2,0.1l0.1,0.2L68,42.4l-0.1-0.1
	l-0.1,0.1l-0.3-0.2l-0.1,0l-0.1-0.2l-0.2-0.1L67,41.9l-0.3,0L66.5,42l-0.2-0.1l-0.2,0l-0.2,0l-0.1-0.1l-0.2-0.2l0-0.1l0.3-0.3
	l0.1-0.1l0-0.1l-0.1,0l-0.2,0.2l-0.1,0.2l-0.1,0l-0.2-0.1l-0.2,0l-0.1,0l0.2,0.1L65,41.5l-0.3,0l-0.3-0.2l0-0.3l-0.2-0.1l0-0.2
	l0.4-0.2l0.1-0.1l-0.1,0l-0.2,0.1l-0.3,0l-0.1,0.2l-0.1,0l0-0.2l0-0.2L64,40.3l-0.1,0l0,0.1l0,0.1l-0.1,0.1l-0.2,0l-0.1-0.1l-0.2,0
	l-0.1,0l0,0.1l-0.1,0l-0.1-0.2l-0.1-0.2l0.1,0l0.1,0.1l0-0.1l-0.2-0.2l-0.3-0.1l0-0.2l0-0.2l0-0.3l-0.1-0.3l0.1-0.2h0.1v-0.1
	l-0.1-0.2l0-0.1l0.2,0.1l0.1,0.1l0.3,0l0.2,0.1l0.1,0.2l0.4,0.1h0.3l0.1-0.1l0.3,0l-0.1-0.1l0-0.1l-0.3-0.2l0-0.3h-0.3l-0.2-0.1
	h-0.2l-0.2-0.2l-0.2,0l-0.4-0.2l-0.1-0.2l0.1-0.3l0.2-0.1l0-0.2l0.1-0.2H63l0.1-0.2v-0.4l0.1-0.2l0.2,0l0.1-0.2l0.3-0.2l0.2,0l0-0.1
	l-0.1,0l-0.1,0l0-0.2l0.2-0.3l0.2-0.3l0.1-0.1l0.2-0.2h0.2l0.1,0l0.1-0.3l0.1,0l0.1,0.2l0.1-0.1l-0.1-0.1l0.2-0.4l0.2,0l0-0.2
	l0.2-0.2l0.2,0l0.1-0.2l0.2,0l0.1,0.1L66,32.8l0.1-0.2l0.4-0.2l0.4-0.3l0.6-0.2l0.4,0l0.2-0.1l0.3,0.1l0.2-0.1l0.1,0l0.3,0l0.2,0.2
	l0.4,0.2l0,0.1l-0.1,0.2l-0.3,0.1l-0.3,0.1l-0.2,0l-0.1,0.2l-0.2,0.2l-0.2,0.1l-0.4,0.4l-0.4,0.5l-0.3,0.2l-0.1,0.1l-0.2,0.4l0,0.2
	l0.1,0.2l0.1,0.1v0.2l-0.2,0.1l-0.2,0.2l-0.2,0.2l0,0.2l-0.1,0.3l-0.1,0.1l0,0.2l0.1,0.2l0,0.3l0.1,0.1v0.3l0.2,0.2l0,0.1l0.2,0.1
	v0.2l-0.1,0.2l-0.1-0.2h-0.1l0,0.1l-0.1,0l-0.1,0.1l-0.1,0l0.1,0.1l0.1,0.2l0.2,0l0,0l0.1,0.1L66.4,39l-0.1,0.3l0,0.2l-0.1,0.1
	l0.3-0.3v-0.1l0.2-0.4l0.1-0.1l0.1-0.4l0.1-0.1l0.2-0.1v-0.2l-0.1-0.1l0-0.1L67,37.5l-0.1,0l0-0.3l0-0.1l0-0.3l-0.1-0.2l0-0.2
	l0.1-0.1l0.1,0.2l0.1-0.1l0.2-0.1l0.1-0.2l0-0.1l0.1-0.2l0.2,0.1l0.1,0.3l-0.1,0.1l0.1,0.1l0.1-0.2v-0.2l0.1-0.2h0.1l0-0.1l0.1-0.1
	l0.2-0.1l-0.1-0.1l-0.1,0l-0.3,0.2l-0.1,0l-0.1-0.2l-0.1-0.1l0-0.1l0.2-0.1l-0.1-0.2l0.1-0.3l0.2-0.3l0-0.2l0.2-0.2l0.3,0l0.2,0.2
	l0,0.1l0.3,0.2l0.1,0.2l0.2,0l-0.2-0.1l0-0.2l-0.3-0.2l-0.1-0.2l-0.1-0.1h-0.2L68.2,34l0.1,0l0.4,0l0.1-0.1h0.1l0.3,0.4l0.3,0.2
	l0.1,0l-0.3-0.2L69,33.9l-0.2-0.2l0-0.1l0.1-0.2l0.3-0.1l0.1,0l0,0.2l0,0.1l0.1-0.1l0-0.1l0.1-0.2h0.2l0.1,0.2l0.1,0.1l0.1,0.3
	l0.1-0.1v-0.2l-0.2-0.2l0.1-0.1l0.5-0.1l0.3-0.1l0.3,0l0.2-0.2l0.3,0.1l0.3,0l0.3,0.1l0,0.1l-0.1,0.1l0,0.5l-0.1,0.1L72,34l-0.1,0.3
	l0.1,0.1l0.2,0.1l0.1,0.2l0,0.1L71.9,35l-0.1,0.1l0,0.2l0.2,0.2l0,0.1l-0.1,0.2l-0.2,0L71.5,36l-0.2,0.1l-0.1,0.1L71,36.4l-0.1,0.2
	l0.1,0l0.2-0.2l0.3-0.2l0.1,0l0.1,0l-0.1,0.2l0,0.2l-0.3,0.3l-0.2,0.1l0,0.1l0,0.1l0,0.1L70.9,37l-0.1,0l0,0.1l0.1,0l0.1,0.1l0,0.2
	l-0.2,0.1H71l0.1-0.1l0.2-0.1l0.1-0.2l0-0.2l0.2-0.1l0.1-0.2l0.1,0.1v0.3l0.1,0.1v-0.2l-0.1-0.2l0-0.2l0.1-0.1l0.2,0.1l0,0.2
	l0.1,0.1l0.1-0.1l0.2-0.2l0.1,0.2l0.1,0.2l-0.1,0.2l-0.3,0.4l-0.2,0.2L72,37.8l0.2,0l0.2,0.1l0.1-0.1l-0.1-0.1l0.1-0.2l0.2-0.2
	l0.1,0.3l0,0.2l0.1-0.1l0-0.3l-0.1-0.2l0-0.4l0.1,0l0.2,0.1l0,0.2l-0.1,0.2l0.1-0.1l0.2,0l0.3,0.3v0.1h0.2l0.2,0.1h0.1L74,37.4
	l-0.1,0l-0.1-0.1l-0.4-0.3l-0.1,0l-0.1-0.1l0.2-0.3l0.2,0l0.2-0.2l0.3-0.1l0.3,0l0.1,0.1l0.1,0l0.3,0.1l0,0.1l0.2,0.1l0.1,0.1l0,0.2
	l0.1,0l0-0.1l0.2,0l0.1,0.2l0.2,0.1l0,0.1l0,0.1l0.1,0.1l0,0.1l-0.2,0.2l-0.2,0l-0.2-0.1l-0.3,0.1l-0.3,0.3l0.4-0.2l0.3,0l0.1,0.1
	l-0.1,0.1l-0.2,0.1l-0.2,0.3l-0.2,0.1l-0.1,0l0,0.2l0.1,0l0.4-0.4l0.2-0.3l0.3-0.1l0.2-0.2l0.2,0.1l0.1,0.1l0.1,0v0.2l-0.1,0.2
	l0,0.2l-0.2,0.1L75.8,39l-0.2,0L75.5,39h-0.2l-0.1,0.1h0.2l0,0.1l-0.4,0.2l0.1,0l0.1-0.1l0.2-0.1l0.1-0.1l0,0.1l-0.1,0.1l-0.2,0
	l-0.2,0.2l0.2,0l0.1,0l-0.1,0.2L75.1,40l-0.2,0.1l0.1,0l0.2-0.2l0.2-0.3l0.1-0.2l0.3-0.2l0.1,0.1v0.1l0.2-0.1l0-0.1l0.3-0.2l0.1,0
	l0,0.1l-0.3,0.3l-0.4,0.2l-0.1,0v0.1l0.1,0l-0.1,0.2l0,0.2l0.1,0l0.1-0.2l0-0.2l0.3-0.2l0.2-0.1l0,0.1l0,0.1L76.4,40l-0.3,0.2l0,0.1
	l-0.2,0.3l-0.1,0.1l0,0.1l0.2-0.1l0.1-0.2l0.3-0.4l0.2-0.1l0.1,0.1l0.1,0l0,0.1l-0.1,0.1l-0.2,0.3L76.3,41l0.1,0l0.1-0.1l0-0.2
	l0.1-0.2l0.2-0.1v-0.2l0.1-0.2l0.2-0.1l0-0.2l0.1-0.1l0.1,0l0.1-0.2l0-0.1l0.1,0l0.2,0.3l0.2,0.1L78,40l0,0.2l0,0.2l0.2,0.2l0,0.1
	l-0.1,0.1l-0.2,0.3l-0.1,0l-0.1-0.1l-0.2-0.2l-0.1,0l-0.1,0.1l-0.1,0L77,41.1l-0.2,0.1l-0.1,0l-0.1,0.1l0.2,0H77l0,0.1l-0.2,0.2
	l-0.2,0.1l-0.2,0.1l0.3,0l0.2-0.1l0.2,0l0.2,0l0.2-0.2l0.2,0l0.1,0.1l0,0.1l0,0.1l0.1-0.1l0.1-0.2l0-0.2l0.1-0.2l0.3-0.1l0.1,0.1
	l0,0.1l0.1,0.2l-0.1,0.2l-0.2,0.3L78,41.9l-0.2,0.1l0,0.1l-0.2,0l-0.1-0.1l-0.1,0l-0.1,0.1l0,0.1L77,42.6l0,0.1l-0.1,0.1l0.1,0
	l0.2-0.3l0.2-0.3l0.1-0.1l0.1,0.1l0.1,0l0,0.1l-0.1,0.1l-0.1,0.2L77.2,43l-0.2,0.2l0,0.1l0.3-0.2l0.4-0.4l0.1-0.3l0-0.1L78,42l0.1,0
	l0.3-0.2l0.3-0.1l0.1,0l0,0.1l-0.1,0.1l-0.2,0.2h-0.2l-0.1,0.1l0,0.2l0.1,0l0.1-0.1l0.2,0l0.2-0.2L79,42l0.1-0.1l0.2-0.1l0.1,0
	l0.1,0.2l0.2,0.3l0.1,0.2l0.2,0.1l0,0.1l0,0.2l-0.2,0.2l-0.1,0l0-0.2l-0.1,0l0,0.1l-0.1,0.1l-0.1,0.1l-0.3,0l-0.2,0.1l-0.2,0
	l-0.3,0.2l-0.2,0l-0.3,0.2l0.2,0l0.1,0.1l-0.1,0.1l-0.3,0.1L77.7,44l0.4-0.1l0.2-0.2l0.3-0.3l0.2,0l0.2,0l0.1-0.1l0.1,0l0,0.1l0,0.2
	l-0.1,0.1l-0.2,0.1l-0.1,0L78.7,44l-0.1,0.2l-0.2,0.1l-0.2-0.1l-0.1,0.1l-0.2,0.2l0.1,0l0.2-0.1l0.1,0l0.1,0.1l0.2-0.2l0.1-0.2
	L79,44l0.1,0.1l0.2,0l0.1-0.2l0.2-0.1l0.1-0.1v-0.1l-0.1-0.1l0.1-0.2l0-0.1l0.1,0l0,0l0.1,0l0.1,0.2l0.2,0.4l0.1,0.3l0.1,0.2l0,0.2
	l-0.1,0.1l-0.2,0L80,44.5l-0.3,0l-0.2,0.1l-0.2,0.1l-0.1,0l-0.1-0.1l-0.2,0l-0.1,0.1l-0.3,0.1l0.1,0.1l0.4-0.1l0.2,0.1l0.3,0.3
	l0.1,0.1l0.1-0.1l0.1,0l0.1,0.1l0.2,0.1l0.2,0.1l0,0.2l0.1,0.2l0,0.2L80.4,46l-0.1,0l-0.1-0.2l-0.1,0L80,46l-0.1,0l-0.1-0.1
	l-0.1,0.1l-0.1,0l-0.2-0.3l-0.1,0l-0.1,0l-0.2,0l-0.2-0.1l0.1,0.1l0.2,0.1l0.2,0l-0.1,0.1l-0.3,0l-0.1,0.1h-0.2l-0.2,0.1l0,0.1
	l0.1,0l0.1-0.1l0.3,0l0.2-0.1l0.2,0l0.1,0.1l0,0.1l0.1,0.1l0,0.1l-0.1,0h-0.2l-0.1,0.1L79,46.2L79,46.2l-0.1,0l-0.1,0l0.2,0.1
	l0.2,0.1l0.1,0.1l0,0.1l0.1,0.1l-0.1,0l-0.4-0.1l-0.3,0l-0.4-0.1l-0.2,0l0.1,0.1l0.2,0.1l0.5,0.3l0,0.1l-0.1,0l-0.3-0.2l-0.1,0
	L78.1,47l0.1,0l0.1,0.1l0.1,0.1l0.1,0l0.1,0l0,0.1l0.1,0.1l0.1-0.1l0-0.1H79l0,0.1l-0.1,0.1v0.1l0.1,0l0-0.2h0.1l0.2,0.1l0.2,0.1
	l0.2,0l-0.1,0.2l0,0.1l-0.2-0.1l-0.1-0.1l-0.2,0l-0.3,0.2l0,0.2l0.1-0.1h0.3l0.2,0.1l-0.2,0L79.1,48l0.1-0.1l0.3,0l0.1,0.1l-0.1,0.1
	l0.2,0.1l0.1,0.1l-0.1,0.1l-0.1,0.2l0,0.1l0.1-0.1l0-0.1l0.1-0.1l0.1,0l0,0.2L80,48.7l-0.2,0.3l-0.1,0.2v0.2l0.1-0.1l0.1-0.3V49
	l0.1-0.1l0.2-0.1l0-0.1l0.1-0.1l0.2-0.1l0.1,0l-0.1,0.2l-0.2,0.3l-0.1,0.2l0,0.2l0,0.2l0.1-0.1l0-0.1l0-0.2l0.1-0.1l0.1-0.2l0.2-0.2
	l0.2-0.1l0,0.1l0,0.2l-0.1,0.1l-0.2,0.1l0,0.2l-0.1,0.2l0.1,0l0.1-0.1l0.1,0.1l0.1-0.1l0.2-0.1l0.1,0.1l0.1,0.3l0,0.1l-0.2,0.1
	l0,0.1l0.1,0l0.1,0.2l-0.1,0L81,50l0.1,0.1l0.2,0.1l-0.4,0.1l-0.2,0l0.1,0.1l0.2,0l0.3,0.1l0.1-0.1l0.2,0l0,0l-0.2,0.2l-0.1,0.2
	l0.2-0.2l0.2-0.1l0.1-0.1l0.2-0.1l0.2,0l0,0.1l-0.1,0.1l-0.1,0l-0.1,0.2l-0.1,0.2l-0.2,0.1l-0.1,0.2l0,0.1l0.1,0l0.2-0.2V51l0.2-0.3
	l0.2-0.1l0,0.1L82,51.1l0,0.2l-0.1,0.1l0.1-0.1l0.1-0.3l0-0.1l0.1,0l0.1,0l0,0.3l0.1,0.1l0.1,0l0-0.2l0.1-0.1l0.3-0.1l0.1,0.1
	L82.8,51l0.1,0l0.2,0l0.1,0.1L83,51.4l0.2,0l0.1,0.1l0,0.1l0.1,0.1l0,0.1l-0.1,0.1L83.3,52l-0.2,0l0-0.1L83,51.7l-0.1-0.1l-0.1-0.1
	l-0.1,0.1l-0.1,0.1l0.1-0.1l0.1,0l0.1,0.1l-0.1,0L83,52l0,0.1l-0.1,0l-0.2,0l-0.1,0.1l0.1,0.1l0.3,0h0.1l0,0.1L83,52.4h-0.2l-0.1,0
	l-0.2,0l-0.2,0l0-0.2l0-0.1l-0.1-0.1L82.1,52L82,52l0,0.1l0.1,0.1l0,0.2l0,0.1l-0.1,0l-0.2-0.1l0-0.1l0,0.2l0.1,0.1h0.2l0.1,0.1
	l0.1,0l0,0.1L82.3,53L82,53L82,52.8l-0.2-0.1l-0.1-0.1l-0.1,0l0.1,0.1l0.2,0.2L82,53l0,0.2l-0.1,0.1l-0.1,0l-0.1-0.1l-0.1-0.1
	l-0.1-0.1l0,0.1l0.1,0.1l0,0.2l0,0.3l-0.1,0h-0.1l-0.1-0.1l0-0.2l-0.1,0l0,0.1l-0.1,0l-0.1,0l0-0.1L81,53.3l0-0.2L80.9,53l0,0.1v0.3
	l-0.1,0.1l-0.1,0l0.1,0.1l0.1,0l0,0.1l-0.1,0.1l-0.1,0l-0.1,0l0,0.1l0.1,0.1h0.1l0,0.1l0,0.1l-0.1,0l0,0.1l0.1,0.2v0.1h-0.1
	l-0.1-0.1l0,0l0.1,0.1l0,0.1l0,0.2l-0.2,0.1L80.4,55l-0.1,0l0-0.1l0,0l0-0.1l-0.1,0l0-0.1l0.1-0.1v-0.1l-0.1,0L80,54.5l0,0.1l-0.1,0
	l-0.1-0.1l0.1-0.1l-0.1-0.1l0-0.1l0.1-0.1l0-0.1l0-0.1l0,0l-0.1,0.1l-0.1,0.2l-0.1,0.1l0,0l0-0.1l-0.1-0.1l0-0.1l0.1-0.1l0.2-0.1
	l0,0l0.1,0l0-0.1l-0.2,0l-0.1,0l-0.1,0l0-0.1l0-0.1l0.2,0l0.1-0.2l-0.1,0l-0.1,0.1l-0.1,0l0-0.1l0.1,0l0.1-0.1l0.1,0L79.5,53l-0.2,0
	l-0.1,0.1l-0.1-0.1l0-0.1l0.2-0.2l0.1,0l0.2,0l0.2-0.1l0.1-0.1l0.1-0.2l0.2-0.2l0.1-0.1l0-0.1l-0.1,0L80,52.1l-0.1,0.1l-0.1,0.2
	l-0.3,0.1l-0.1,0l-0.3,0.2l-0.2,0l-0.1-0.1l0-0.1l0.3-0.3l0.2-0.1l0.1-0.1l0.1-0.1l0-0.1L79.3,52l-0.4,0.2l-0.1,0.1l-0.1,0l-0.1-0.1
	l0-0.1L78.6,52l-0.1,0L78.4,52l0.1-0.1l0.1,0v-0.1l-0.1-0.1h-0.1l0-0.1l0-0.2l0.1,0l0-0.1l-0.1-0.1l-0.1-0.1l0,0l0,0.1l0,0.1
	l-0.2,0.1L78,51.4l-0.1-0.1l-0.2,0l0.2,0.1l0.1,0.2l0,0.2l-0.1,0l0,0.1l0,0.1l-0.2,0l-0.1-0.1l-0.1-0.2l-0.1-0.1l-0.1,0.1l0.1,0.1
	l0,0.1l-0.1,0.2l0.1,0l0.1,0.2l0.1,0.2l0,0.1l0.1,0l0,0.1l-0.1,0l-0.2,0l-0.1-0.1l-0.1,0.2h-0.1l-0.2-0.2l0-0.1l0.1-0.1l0-0.1
	L77,51.9l-0.2,0l0-0.1l-0.1-0.1l-0.1,0.1l-0.2,0l-0.2,0l0.1,0.1l0.3,0l0.2,0.1l0.2,0.1l0,0.2l-0.1,0.1l0,0.1l0.1,0l0.1,0.1l-0.1,0.1
	l0.1,0h0.2l0,0.1L77,53l-0.3,0.2l-0.2,0.1l0.4-0.1l0.1-0.1l0-0.1l0.3,0l0.1,0.1v0.1l-0.2,0.1l-0.1,0.1l0.1,0.1l0.2,0l0.1,0.1
	l-0.1,0.1l-0.2,0l-0.1,0.1l0.1,0l0,0.1l0,0l0,0.1h0.1l0,0.2l0.1,0l0,0.1l0,0.3l0,0l0.1-0.1l0-0.2l0.1-0.1l0.1,0.1l0,0.2l0.1,0.1
	l0,0.1L77.8,55l0,0.1l0.3,0l0.1-0.1l0,0.1l0.1-0.1l0-0.1l0.1,0l0.1,0.2l0,0.2l-0.1,0.1l0,0.1l0,0.1l0.1,0.1l0.3,0l0.1-0.1l0.1,0.1
	l-0.2,0.1l0,0.1l-0.2,0l0.1,0.1l0.1,0.2l0,0.2l0.1,0l0,0.3l0.2,0.4l0.1,0.1l-0.1,0.1l0,0.3l-0.1,0.2l0,0.2L78.7,58l-0.3-0.3
	l-0.1-0.2l0-0.2l-0.1-0.3l0,0.3l0,0.3l0.1,0.4l0,0.3l-0.1,0.2l0.1,0.2l-0.1,0.1l-0.2,0l-0.1-0.2h-0.2l0.1,0.4l0,0.3l0.1,0.1v0.1
	l-0.2,0l-0.1-0.1l-0.1-0.3l0.1-0.1v-0.2l-0.1,0.1l-0.1,0l-0.1-0.1v-0.3l-0.1,0.1l0,0.2l0-0.1l0-0.1L77.2,58l-0.1,0v0.1l0.1,0.1
	l-0.1,0.1L77,58.2l-0.1,0l0-0.2l0-0.2l-0.1-0.3v-0.1l-0.1,0.2l0,0.3l0.1,0.2l-0.1,0.1l-0.1-0.3l-0.1-0.1v-0.1l-0.1,0l-0.1-0.3
	L76,57.1V57l-0.1-0.2l-0.1,0.1l0,0.1l0.1,0.2l0,0.2l-0.1-0.1l0-0.1l-0.1-0.1L75.5,57l-0.1-0.3l0-0.2l-0.2,0L75,56.6l-0.1-0.1l0,0.2
	l0.1,0.3l0.3,0.2l0,0.1l0,0.1l0,0.3l0.1,0l0.2,0l0.1,0.2l-0.1,0.1l0.1,0l0.1,0l-0.1,0.2l0.2,0l0.1,0.1l0.1,0.2l0,0.2l0.2,0l0.1,0
	l0.1,0.2l-0.2,0.2l0.1,0l0.1,0.1l0,0.1l0.2-0.2l0.1,0.1l0,0.2l0.1,0.1l0.1-0.1l0.1,0.1l-0.1,0.1l-0.2,0l-0.1,0.1l0.1,0.1l0.1,0.1
	L76.7,60.3L76.7,60.3L76.7,60.3z M58.8,55C58.8,55,58.9,55,58.8,55l0.1-0.2l0.1,0l0.1,0.1l0.1,0.1h0.2l0.1,0l0.1,0l0.1,0.1l0,0.1
	l-0.2,0.2l0,0.2l-0.1,0.2l0,0.3l0,0.1l0.1-0.1l0.1,0.1l0.2,0L60,56l0.2,0l0.1-0.1l0.2-0.1l0.1,0l0.2-0.2l0.1-0.2l0.1-0.1l0.1-0.2
	l0.1,0l0.1,0.1l0.2-0.1l0.1-0.1l0.1,0l0.1-0.3l0-0.3l0.2-0.1l0.1-0.1l0.1,0l0.1,0.1l0.1-0.1l0.1-0.1l0.1,0.1l0,0.2l-0.1,0.1
	l-0.1,0.1l0.2,0.1h0.3l0.1,0.1l0,0.2l-0.1,0.2l-0.1,0l0,0.3l0.1,0.1l0.1-0.1l0.1,0l0.1,0.1l0.1,0l0.1,0.1l0.2,0l0.1,0.1h0.1l0.3,0.2
	l0.1-0.1l0.1-0.2l0.1,0l0.2-0.2l0.2,0l0-0.1l-0.1-0.1l-0.1-0.1l0.1,0l0.1-0.1l-0.1-0.1l-0.1-0.2l-0.1,0l0,0.1l-0.1,0.1l-0.1-0.1
	L64,54.8l0-0.1l-0.1,0l-0.1,0.2l-0.3,0l-0.1-0.1l0.2-0.1l0.1,0l0.2-0.1l0-0.1l-0.1-0.1l0-0.2l0.1-0.1v-0.1l-0.1-0.1v-0.1l-0.3-0.3
	l-0.3-0.1l0-0.1L63,52.8h-0.1l-0.1-0.1l0-0.2l-0.1-0.2l-0.3,0l-0.3-0.1l-0.1-0.2l0.1-0.1l0-0.1L62,51.5l0-0.1l-0.1,0l-0.2,0.2l0,0.2
	l-0.1,0.1l-0.1-0.1l0-0.3l-0.1-0.2l0-0.1l0.1,0h0.1l-0.1-0.1l0-0.2l-0.1-0.2l-0.2,0l0-0.1l0.2-0.2l-0.1,0L61,50.6l-0.2,0.2l-0.2,0.4
	l-0.2,0.3l0,0.2l-0.1,0.2l0,0.1l-0.2,0.3l0.1,0.1l-0.1,0.1L60,52.7l0,0.2l-0.3,0.2l-0.1,0.2v0.3l-0.1,0.1l0,0.3l-0.1,0.1l-0.3,0
	l-0.3,0.1v0.2l-0.1,0.4L58.8,55L58.8,55z M60.5,58.2C60.5,58.2,60.6,58.2,60.5,58.2l0.1,0l0.2-0.2l0.1,0l0.1,0l0,0.1l0.2,0l0.3-0.2
	l0.2,0l0.2-0.1l0.2-0.3h0.2l0.2-0.2l0-0.1l0.2-0.2l-0.1-0.1l-0.2,0l-0.1-0.1l-0.1,0L62,56.9l-0.1-0.1l-0.1,0L61.7,57l-0.2-0.1
	l-0.1-0.2l-0.1,0l-0.2,0.1L61,57.1l0,0.1l-0.1,0.1l-0.4,0.1l0,0.1l0.1,0.1l0.1,0.2L60.5,58V58.2L60.5,58.2z M77.8,59.6L77.8,59.6
	l0.2,0l0.2,0.2l0.1-0.1l0-0.1l0.1-0.1l0-0.1l-0.1,0l-0.1,0.1L78,59.5L77.8,59.6L77.8,59.6z M72.4,58.1L72.4,58.1l0.3,0.1l0,0.1
	l0,0.1l0,0.1l0.1,0.1l0.1,0.1l0.1,0l0-0.1l0,0l0-0.1L73,58.3l-0.1-0.1l0-0.1l-0.2-0.1L72.4,58.1L72.4,58.1L72.4,58.1z M77.6,60.9
	l-0.2-0.2v-0.1l-0.1-0.1v-0.1l0.1-0.1l0.1,0.1l0,0.1l0.1,0.1L77.6,60.9L77.6,60.9L77.6,60.9z M77.4,61.6L77.4,61.6l-0.1-0.2
	l-0.1-0.1l-0.1,0L77,61.1V61l0.1,0l0.1-0.1l0.3,0.1l0.2,0.1l0,0.1l-0.1,0.1l0,0.1l-0.1,0.1L77.4,61.6L77.4,61.6L77.4,61.6z
	 M72.1,64.8l0,0.1L72.1,64.8L72.1,64.8L72.1,64.8z M72.2,64.9L72.2,65l0.1,0L72.2,64.9L72.2,64.9z M72.3,64.8l-0.1,0.1l0,0.2l0,0.1
	l0.1,0l0-0.2L72.3,64.8L72.3,64.8z M73.7,63.2l0-0.1l0.1-0.2l0.1-0.1l0-0.1l0.2-0.2l0.2,0l0,0.1l0,0.1l0.1,0l0,0.1l-0.2,0.1
	l-0.1,0.1l-0.1,0L73.7,63.2L73.7,63.2L73.7,63.2z M69.1,57.9l0.2,0.1l0.1,0.2l0.2,0l0.2,0.1l-0.1-0.1l-0.2-0.1l-0.2-0.2L69.1,57.9
	L69.1,57.9L69.1,57.9z M67.5,56.5L67.5,56.5l0.2,0l0.1,0.1l0.1,0l0-0.1l0.1,0l0-0.1l-0.1-0.1l0.1-0.1v-0.1L67.7,56l-0.2,0l0-0.1
	l-0.1-0.1l-0.1,0l-0.1-0.1l-0.1,0l-0.1,0.1l0.1,0.1l0.1,0l0.1,0.1l0.1,0.1l0.1,0.1L67.5,56.5L67.5,56.5z M66.4,57l0.2,0l0.1-0.1
	l0.1,0l0.1-0.1l0-0.1l0-0.1l0-0.3l-0.1-0.1l-0.2,0l-0.1-0.1L66.3,56l-0.1,0.1l-0.2,0l-0.1-0.1l0,0.1l0,0.2l0.2,0.1l0.1,0.2l0.1,0.1
	L66.4,57L66.4,57L66.4,57z M66.2,57.9C66.2,57.9,66.2,57.8,66.2,57.9L66,57.8l0,0l0.1,0.1L66.2,57.9L66.2,57.9z M63.8,59.6
	L63.8,59.6l0.1-0.1l0-0.1l0.1-0.1l0-0.1l-0.1,0l0-0.1l0.2-0.2l0.1-0.2l0.1,0l0-0.1l0-0.1l0-0.1l0.1-0.1l0.1-0.1l0-0.1l0-0.1
	l-0.1-0.1l-0.1,0h-0.1l-0.1-0.1l-0.1,0l-0.1,0.1l-0.2,0.2l-0.1,0l-0.1,0.1l0,0.2l0,0.2l-0.1,0.1l-0.1,0.1l0,0.2l-0.1,0.1l0.1,0.1
	l0.2,0l0.1,0.1l0.1,0L63.8,59.6L63.8,59.6z M61.6,68.5L61.6,68.5L61.6,68.5L61.6,68.5L61.6,68.5L61.6,68.5z M61.8,69.5l0.1-0.2
	l0-0.2l0.1,0l0,0.3L61.8,69.5C61.9,69.5,61.8,69.5,61.8,69.5L61.8,69.5z M60.5,69.2l0.1-0.2l0.1,0l0.1-0.1h0.1l0.2-0.1l0.1-0.1
	L61,69l-0.3,0.2L60.5,69.2L60.5,69.2L60.5,69.2z M61.4,69.6l0.2-0.3l0.1-0.1l0.1,0l0,0.1L61.4,69.6l0,0.1l0.1-0.1l0.2-0.3l0.1-0.1
	l0-0.2l-0.1-0.1h-0.1v-0.2l-0.2-0.1l-0.1,0.1l-0.1,0.3l-0.2,0.2l-0.2,0.1l0-0.1l0.2-0.2l0.1-0.2l0-0.1l-0.1,0.1l-0.1,0.3l-0.2,0.2
	l0,0.1l-0.2,0.2l0.1,0.1l0.1,0l0.2-0.3l0.1,0L61,69.6l-0.1,0.2l0.1,0l0.1-0.1h0.1C61.2,69.8,61.4,69.6,61.4,69.6L61.4,69.6z
	 M61.2,69.6l0-0.2l0.3-0.3l-0.1,0.3L61.2,69.6L61.2,69.6L61.2,69.6z M75.6,84.3L75.6,84.3l-0.1-0.1l0.1,0l0-0.1l0.2-0.1l0,0l0-0.1
	l0,0L75.6,84l-0.1,0.2l0.1,0.1L75.6,84.3L75.6,84.3L75.6,84.3z M80.9,85.2l-0.1-0.1l0-0.1l0-0.2l-0.1-0.1l0.1-0.1l0.1-0.1l0,0.1
	l0.1,0.1l0,0.1L81,84.9l0,0.1L81,85l0,0.1L80.9,85.2L80.9,85.2L80.9,85.2z M81.1,85.3l0-0.1l0.1,0l0,0.1L81.1,85.3L81.1,85.3
	L81.1,85.3z M83.2,77.8l0.1-0.2l0.1-0.1l0,0.1l-0.1,0.1L83.2,77.8C83.3,77.8,83.2,77.8,83.2,77.8L83.2,77.8z M82.6,79.4l0,0.1l0.1,0
	l0,0l0.1,0v-0.1l-0.1,0L82.6,79.4L82.6,79.4z M83.7,81.2l0-0.2l0-0.1l0.1,0l0,0.1l0.1,0l0.1,0.1l0,0.1l-0.1,0.1
	C83.8,81.2,83.7,81.2,83.7,81.2L83.7,81.2z M83.2,81.1l0.1,0l0.1,0l0.1-0.1l0-0.1l0,0l0,0.1l-0.1,0.2l-0.2,0.1l-0.1-0.1L83.2,81.1
	L83.2,81.1L83.2,81.1z M81.4,83.9l0.1-0.1l0.1,0.1L81.4,83.9L81.4,83.9L81.4,83.9z M83.7,83.3L83.7,83.3l0.1,0.1H84l0-0.1L83.7,83.3
	L83.7,83.3L83.7,83.3z M81.3,79.2l-0.1,0.1L81,79.4l-0.1,0.1l0,0.1l-0.1,0.1l-0.1,0l0,0.1l0.1,0.1l-0.1,0.1l-0.1,0L80.6,80l0,0.1
	h0.1l0.1,0l-0.1,0.1l-0.1,0l-0.1,0.2l0,0.1l-0.2,0.3l0,0.1l0.1,0.1v0.1l-0.1,0l0-0.1l-0.1,0l-0.2,0.1l-0.1,0.1l0,0.1l0.1,0l0.1,0.1
	l-0.1,0.1l0,0.1l-0.1,0.1l-0.2-0.1l-0.1,0.1l0,0.1L79.3,82l-0.1,0.2l-0.1,0.1l-0.1,0l0-0.2l-0.1,0.1l-0.1-0.1l0-0.1l0.1-0.1l0-0.1
	L79,82l-0.2,0.1l-0.2,0.1l-0.1,0.3l0.1,0l0.2,0l0.3,0l0.2,0l-0.1,0.1l-0.2,0.2L78.8,83l-0.2,0.1l-0.2,0.2l-0.1,0l0,0.1l0,0.1l0,0.2
	l0,0.1l0.1,0l0.2,0.1l0.2,0l0.1-0.1l0.2,0l0.1-0.1l0-0.1l0,0.1l-0.1,0.1l0.2,0l0.2-0.1l0.1,0.1l0.3,0l0.2,0l0,0.1l0.1,0.1l0.2,0
	l0.1,0l0,0.1l0.1,0l0.1-0.1l0-0.1l0.2,0l0.1,0.1l0.1,0l0.1-0.1h0.1l0.1,0.1l0-0.1l0-0.1l0-0.2l0.1,0.1l0.1-0.1l0.1,0l-0.1,0.1
	l-0.1,0.2l0,0l0-0.1l0.1-0.1l0,0v0.1l-0.1,0.1l0,0.1l0.1,0l0.1,0l0,0L81.6,84L81.4,84l0.1,0l0.1,0l0.1,0l0,0.1l0.1,0l0.1,0.1
	l0.1-0.1l0.1,0l0.1-0.1l0-0.1l0.1,0.1l0.2,0l0.1,0.1l0.1,0l0.1-0.1l0.1,0L82.6,84l0,0.1l-0.2,0.1l-0.2,0l-0.1,0.1l0,0.1l-0.1,0
	l0,0.1l-0.1,0l-0.1,0l0,0.1l-0.1,0.1l-0.2,0l-0.2,0.1l0,0.1l0.1,0.1l0,0.1h0.1l0.1-0.1l0.1-0.1l0.1,0l0,0.1l0.1,0.1L82,85l0.1-0.1
	l0.1-0.1h0l0-0.1l0-0.1l0.1,0l0.2-0.2l0.1-0.1l0.1,0.1l0.1,0l-0.1,0.1l0.1,0l0.1-0.1L83,84l0.1-0.2l0-0.2l0-0.1l0.1,0l0.1,0.1l0.1,0
	l0.1,0.1l0,0.2l0,0.1l0,0.2l0.1,0.1l0,0.1l-0.2,0.1l-0.1,0.3l0,0.1l-0.1,0.1l0,0.1l0.1,0l0.2-0.1l0.1-0.3l0.1,0l0.1-0.2l0.1-0.1
	l0,0.1l0.2,0v0.1l-0.1,0l-0.2,0.2l0,0.1l0,0.1l0,0.1l0,0.2l0.1,0.1l0-0.1l0.1-0.1c0,0,0.1,0,0.1,0c0,0,0.1,0.1,0.1,0.1l0.1,0
	l0.1-0.1v-0.1l0.1,0l0-0.1l0-0.1l0,0l0-0.1l-0.1-0.1l0-0.2l0.2-0.2l0.1-0.2l0-0.3l0-0.1l-0.1,0v0.1L84.7,84l-0.1,0.1l-0.1,0.1
	l-0.1,0l-0.1-0.1l0-0.2v-0.2l0.2-0.1l0-0.1l0.2-0.1h0.1l0.1,0l0-0.1l-0.1,0.1l-0.1,0l-0.1,0.1l-0.1,0l-0.1,0.1l0,0.1l-0.2,0.2l0,0.1
	l-0.1,0.1l-0.1-0.1l0-0.1l-0.1-0.1l0-0.1l0.1,0.1l0.1,0l0.1-0.2l-0.1,0l-0.2-0.1l0.1,0l0.2,0l-0.2,0l-0.1-0.1l0-0.1l0.1,0l0.2,0
	l0.1,0l0.2-0.1l0.1-0.2h0.2l0.1,0.1l0.2-0.1l0.1-0.1v-0.2l-0.1-0.1l-0.1,0.1l-0.1,0.1l0-0.1l-0.1,0l0,0.1l0,0.1l-0.1,0l-0.1,0
	l-0.1,0.1l-0.1,0.1l0,0.1l-0.1,0l0-0.1l0-0.1l-0.1,0.1l-0.1,0l0.1-0.1l0.1-0.1l0.1-0.1l-0.1,0l0.1-0.1l0.1-0.2l-0.1,0l-0.1,0.1
	l0-0.1l0-0.1l-0.1,0l-0.1,0l-0.2,0l0.2,0l0.1-0.1l0.2,0l0.1-0.1L84,82l0.1,0l0.1-0.1l0-0.1l0.1-0.1l0-0.1l-0.1-0.1L84,81.4l-0.2,0
	l-0.2,0l-0.1,0l0,0.1l-0.1,0.2l0,0.2l-0.1,0.1l0.1-0.1l0-0.2l0-0.1l0.1-0.1l0.1-0.1l-0.1,0l-0.1,0.1l-0.1,0.1l-0.1,0.1l-0.1-0.1
	L83,81.6l-0.1,0l-0.1-0.1l-0.1,0.1l0,0.2L82.5,82l0.1-0.1l0-0.3l0.1-0.2l0,0l-0.1,0.1l-0.1,0.1l-0.1,0.1l0-0.1l0.1-0.1l0-0.1l0,0
	l-0.1,0l-0.2,0.2l-0.1,0l-0.1-0.2l-0.1,0l-0.2,0.1l-0.1,0l0-0.1l0.2-0.1l0.1-0.2l0-0.1L82,81l-0.1,0l-0.1,0.1l0.1-0.1l0.2-0.1l0.2,0
	l0.1-0.1l0.2,0l0.1-0.1l0-0.1l-0.1,0l-0.2,0.1l-0.1,0L82,80.5l-0.1,0l-0.1,0.1l0.1-0.2l0.1-0.1l0,0l-0.1,0l-0.1,0.1l-0.1,0.1
	l-0.1,0.1l-0.1,0.1l0,0.1l-0.2,0.1l-0.1,0.1l0-0.2l0-0.1l0.1-0.2l0-0.1l0.1-0.2l0.1-0.1l0-0.1l0.1-0.1l0.1-0.1l0.1-0.2l0.1-0.1
	l0.1-0.1l0.1,0l0-0.1l0-0.1l0.1-0.1l0.1-0.1l0,0.1l0,0.1l0.1,0.1l0.1-0.2l0.2-0.2l0.1-0.1l-0.1-0.1h-0.1l-0.1,0.1l0-0.2l-0.1-0.1
	l0.1-0.1l0.1,0l0.2,0l0.2,0.1l0.1,0l0.1-0.1l0-0.3l-0.1,0l-0.1,0.1l0,0.1l-0.1,0l0-0.1l0-0.1l-0.1,0.1l-0.1,0.1h-0.1l-0.1,0.1
	L82,78.5l-0.2,0l-0.2,0.1l-0.2,0.1l0,0.2l-0.1,0l-0.1,0l0,0l0.1,0.1L81.3,79.2L81.3,79.2z M74.4,81.2l0.1,0l0.4,0.3h0.3l0.2,0.1
	l0.2,0.1l0.1,0l0.2,0.1l0.3-0.1l0-0.1l-0.1-0.1l-0.1-0.1l-0.1-0.1l-0.1,0L75.6,81l-0.2-0.2l-0.1,0l-0.2-0.2l-0.3-0.1l-0.3,0
	l-0.5-0.2l-0.2-0.1l-0.2,0.1l0.1,0.2l0.2,0.1l0.4,0.3L74.4,81.2L74.4,81.2L74.4,81.2z M74.5,86l-0.3-0.1l-0.1-0.2l-0.5-0.1l-0.1-0.1
	l0-0.1l-0.1-0.1l-0.1,0l-0.1-0.1l-0.1,0V85l-0.1-0.1l-0.1,0l-0.1-0.1l0.1-0.2l0.4-0.3l0,0.2l-0.1,0.1l0,0.1l0.1,0.1l0,0.2l0.2,0.1
	l0-0.1l0.2,0l0.3,0.2h0.1l0.1,0.1l0.3,0l0.1-0.1l0.2,0.1l0.3,0L75,85.4l-0.2,0l-0.1,0.2l0,0.1L74.6,86L74.5,86L74.5,86z M76,86.8
	L76,86.6l-0.3-0.2l0-0.3L75.5,86l0.1-0.2l0.3-0.2l0.2-0.3l0.1-0.1l0.1-0.2l0.3-0.2l0.1-0.2l0.2,0l0,0.1l-0.1,0.2l0.2,0l0,0.1
	l-0.2,0.4l-0.1,0.1l0.2,0.1l0.1,0.2L76.8,86l0.1,0.1L77,86l0-0.2l0.1,0l0.2,0.1l0,0.2l0.1,0.1l-0.2,0.1l-0.1,0.1l-0.3,0l-0.3,0.2
	h-0.2l-0.1-0.1l-0.1,0L76,86.8L76,86.8L76,86.8z M59.4,73.8l0,0.2l0.1,0.1l0.1-0.1v-0.2L59.4,73.8L59.4,73.8L59.4,73.8z M59.4,76.2
	l0.1-0.2l0.2,0l0.1-0.1l0.1,0.2l-0.2,0.1L59.4,76.2L59.4,76.2z M57.4,74.5l0.2-0.3l0.2,0l0-0.2l0.1-0.1h0.2l0.1,0.1l0.2,0l0.2,0.2
	l0,0.2l0.1,0.1l0,0.2l-0.5-0.1L58,74.6l-0.2,0l0,0.1l0,0.1l-0.1-0.1l0-0.1L57.4,74.5L57.4,74.5L57.4,74.5z M13.5,75.4l0.2,0.2
	l0.2,0.3l-0.1,0.1l-0.3-0.3L13.5,75.4L13.5,75.4z M13.1,74.9l0-0.3l0.2,0L13.1,74.9L13.1,74.9z M11.9,73.9l0.3,0.1l0-0.2L11.9,73.9
	L11.9,73.9z M10.1,73.1l0.1,0.3l0.1,0l0.1,0.3l0.5,0.1l-0.2,0.1l-0.3,0l-0.2,0.2l0.1,0.1l-0.1,0.3l0.1,0.1l0.2-0.1l0,0.2l0.2,0
	l0,0.2l0.2,0.1l0.2-0.1L11,75.1l0.1,0.3l0.2-0.1l0-0.2l0.3-0.1l-0.1,0.3l-0.2,0.2l0,0.2l0.1,0l0.1,0.3l0.4,0l0,0.2l0.1,0l0.1,0.2
	L12,76.5l0.2,0.2l0.2-0.1l0.1,0.1h0.2l-0.3,0.3l0.4,0.4l0.1,0l0.1,0.2l0.7,0.4l0.1-0.1l0.2,0l-0.1-0.5l0-0.3l-0.1-0.2l0-0.4
	l-0.2-0.2l-0.5-0.3l0-0.6l-0.3-0.4l0-0.4l-0.1-0.1l-0.2,0l-0.4-0.2H12l-0.2-0.1l-0.1-0.2l-0.3-0.2l-0.2-0.2l-0.1-0.2l-0.2,0
	l-0.1-0.2l-0.2,0l-0.1,0.1L10.1,73.1L10.1,73.1z M12,73.6l0.1,0l0.1-0.1l0.1,0.1l-0.2,0.1l-0.2,0L12,73.6L12,73.6z M11.8,73.4
	l0.1-0.2l0.1,0.2L11.8,73.4L11.8,73.4z M10.6,68.7v0.3l0.1-0.1L10.6,68.7L10.6,68.7z M11.2,70.9l0-0.2l0.1-0.1l0.1,0.1L11.2,70.9
	L11.2,70.9L11.2,70.9z M11.1,71.5L11,71.7l0,0.2l0.1,0.1l0.1-0.3L11.1,71.5L11.1,71.5z M11.3,71.3l0.1-0.3l-0.1-0.1l-0.3,0.1l0,0.2
	l0.1,0C11.2,71.3,11.3,71.3,11.3,71.3L11.3,71.3z M11.5,71.1l0.3-0.4l0.2,0l0.2-0.2l0.3-0.1l0,0.1L12,70.8l-0.2,0l-0.2,0.2
	L11.5,71.1L11.5,71.1z M11.4,69.9v-0.2l0.1-0.2l0.1,0.2l-0.1,0.1L11.4,69.9L11.4,69.9L11.4,69.9z M10.9,69.9l0.2,0.1l0.1-0.1
	l-0.1-0.1L10.9,69.9L10.9,69.9z M10.6,69.2l0,0.4l0.1,0.1l0,0.2l0.1-0.2l-0.1-0.2L10.6,69.2L10.6,69.2z M10.8,69l0.2,0l-0.1,0.1
	l0,0.2l0.2,0l0.2-0.2l-0.1,0.2l0,0.2l0.2-0.2l0-0.5l-0.2-0.1L11,68.8L10.8,69L10.8,69z M10.8,68.6l0.1,0.2l0.1-0.1l-0.1-0.1
	L10.8,68.6L10.8,68.6z M11.2,68.2l0.1-0.2l0.2-0.1l0.1,0L11.5,68l-0.2,0.1L11.2,68.2L11.2,68.2z M9.9,67.6l0.4,0.5l0.2,0.3l-0.1,0.2
	l-0.2-0.1v-0.2l-0.3-0.3l-0.1-0.2C9.8,67.7,9.8,67.6,9.9,67.6L9.9,67.6z M10.3,67.4l0,0.3l0.2,0.3l0,0.3l0.2,0.2l0-0.3l-0.2-0.4
	l-0.1-0.3L10.3,67.4L10.3,67.4L10.3,67.4z M9.9,67.1h0.3l0,0.1h0.2l0.1-0.2l-0.2-0.1L10,66.9L9.9,67.1L9.9,67.1z M7.6,67.2l-0.1-0.4
	l0.3-0.6l0.3,0.1l-0.1,0.3l0.1-0.1l0.1-0.1l0.1,0.1l0,0.1l0,0.2l-0.2,0.2L8,67.2l0.1,0.1l0,0.1l0.2-0.1l0.1-0.3l0.3-0.3l0.3-0.2
	l0.1,0l-0.4,0.4l-0.1,0.3l-0.2,0.2l0,0.4l-0.2,0.2H8.1L8,68.3l0.2,0l0.1-0.1l0.2,0l0,0.3l-0.3,0l-0.1,0.3L8.2,69l0,0.3l0.1,0.4
	L8.3,70l0.2,0l0.1,0.1l-0.1,0.2l-0.3-0.1l-0.3-0.7l0-0.3l0.1-0.1l-0.2,0l-0.1-0.2l0.1-0.2l0.2,0l-0.2-0.2l-0.1-0.1l0.1-0.2L7.5,68
	l0-0.1l0.2,0L7.9,68l0-0.2l-0.1-0.2l-0.2,0l0-0.2L7.6,67.2L7.6,67.2z M10.2,66.1l0-0.2l0.2-0.1l0,0.2L10.2,66.1L10.2,66.1z
	 M32.1,33.4l0.1,0.1l0.1,0l0-0.1l0.1-0.1l-0.2,0L32.1,33.4L32.1,33.4z M30,31.3l0.1,0.1l0.2-0.1l0-0.2l-0.2,0.1L30,31.3L30,31.3z
	 M22.5,32l0.1,0.1l0.1-0.2l-0.1,0C22.6,31.8,22.5,32,22.5,32L22.5,32z M22.4,32.3l-0.1-0.1l0.1-0.1l0.1,0.1L22.4,32.3L22.4,32.3z
	 M22,33l0,0.3l-0.1,0.2l0,0.2l0.2,0l0.1-0.1l0.2,0l0.7-0.6l0.3-0.2l0.1-0.3l-0.1,0.1l-0.1-0.1l0-0.4l-0.2,0l-0.1,0.3l-0.2,0.1l0,0.2
	l-0.2,0l-0.1,0.1l-0.1,0.2l-0.1-0.2l0.1-0.1l-0.1-0.1l-0.1,0.2l-0.1,0l-0.1,0.2L22,33L22,33z M21.3,33.6l0.1-0.2l0-0.4l-0.2,0.2
	l0,0.2L21,33.5l0.1,0.1C21.1,33.5,21.3,33.6,21.3,33.6L21.3,33.6z M21.3,33.8l0.1-0.1l0.1-0.1l-0.1-0.2l0-0.4l0.1-0.1l0.1,0.1l0-0.1
	l0.1-0.1l0.1,0.2l0,0.5l-0.1,0.2l0.1,0.2l-0.3,0.1L21.3,33.8L21.3,33.8z M21.7,34.9l0.1-0.2l-0.1-0.4V34h-0.2l-0.3-0.3l-0.1,0v0.1
	l0.4,0.3l-0.3,0v0.1l0.2,0.2L21.7,34.9L21.7,34.9z M19.3,31l0.2,0.2l0.1,0l0.2,0.1l0.1-0.1l-0.2-0.3l-0.2-0.1L19.3,31L19.3,31z
	 M14.8,76.8L14.8,76.8l-0.2,0l-0.1-0.4l0.2-0.4l0.1-0.3l-0.1,0.1l-0.2,0.1l-0.3,0.1L14,75.8l0-0.2l0.1,0l0.1,0.2l0.1,0l0-0.1
	l-0.1-0.2l-0.1-0.2H14l-0.1,0.1l-0.2-0.1L13.5,75l0-0.1l0.3-0.2l0.1-0.3l0.1-0.1l-0.1-0.1l-0.2,0.1h-0.2l-0.1-0.1l0.2-0.2l0.2-0.3
	l0-0.3l0.1-0.1v-0.1l-0.1,0l-0.1,0.2l0,0.4l-0.2,0.3l-0.1,0l-0.1-0.1l-0.1,0l0-0.1l0.1-0.1v-0.1l-0.2,0.1L12.8,74l-0.1,0l-0.1-0.1
	l-0.1,0L12.5,74L12.3,74l0-0.1l0.2-0.2l0.2,0l0.3-0.1l0.3-0.2l0.1-0.2l0-0.2l0,0.2l-0.2,0.1l-0.1,0.2l-0.1,0.1l-0.3-0.1l-0.1-0.2
	l-0.2,0v-0.1l0.2-0.1l-0.1-0.1l-0.3,0.1l-0.2-0.1l-0.1,0l0,0.2l-0.2-0.2l-0.1-0.2l0.1-0.1l0.1,0.1l0.2,0.1l0.2,0l0-0.1l-0.1,0
	l-0.3,0l-0.1-0.1l0-0.1l0.2,0l0.2,0l0-0.1l-0.3,0l-0.1-0.1l-0.2,0.1h-0.1l-0.1-0.1l0-0.2l0.2,0l0.1,0.1l0.2,0l0.1-0.1h-0.2l-0.2-0.1
	l-0.3,0l0-0.1l0.3-0.1l0.1,0.1l0.1,0l0-0.1v-0.1l0.1-0.1h0.3l0.2,0l0.1-0.1l-0.3,0L12,71.6l-0.1,0l-0.1,0.2l-0.2,0.1l-0.1,0.1
	l-0.1-0.1l0-0.2l0-0.2l0.1-0.2l0.3-0.1l0.1-0.1l0.5-0.4l0.2-0.1l0.1,0.1l0,0.3l0.1,0.2l0.1-0.1l-0.1-0.3v-0.3l0.2-0.1h0.2L13,70.4
	h-0.2l-0.1,0l-0.1-0.1l0.1-0.1l0.2-0.1L13,70l0.2-0.3l-0.1-0.2l-0.1,0l-0.1,0.2L12.8,70l-0.2,0l-0.2,0.3L12,70.5l-0.3,0.1l-0.1-0.2
	l0-0.1l0.2,0l-0.2,0l-0.3,0.1l-0.1-0.1l0-0.1l0.3-0.2l0.2-0.1l0.2,0l0.1-0.1l0-0.1l-0.1-0.1l0-0.1l0.1-0.1l-0.1-0.1l-0.2,0.1h-0.1
	l-0.1-0.2l0-0.4l-0.1-0.1l0-0.2l0.1-0.2l0.3,0l0.2,0.1l0.3,0l0.2,0.1l-0.1-0.1l-0.2-0.1H12l-0.1-0.2l-0.2-0.1l0-0.1l0.1-0.2l0.1,0
	l0.1-0.2l0-0.2l-0.1,0l-0.2,0.2l-0.2,0.1l-0.3,0.1L11.1,68l0,0.2l-0.1,0l-0.2-0.3l-0.1-0.3l0-0.5l0.1-0.3l0-0.1l-0.2,0l0-0.3
	l0.2-0.1l0.1,0.1l0.1,0l0-0.2l0.2-0.2l0.1-0.3l0.2,0l0.2,0l0.1-0.1l-0.1,0l0-0.1l0.3-0.3l0.1-0.2l0.3-0.2l0-0.1l-0.1,0l0-0.1
	l-0.3,0.2l0,0.2l-0.4,0.4h-0.1l0-0.1l0.2-0.3l0-0.3l0.3-0.5l0.1-0.2l-0.1,0l0-0.1v-0.2l0.1,0l0-0.1l0-0.1l0-0.1L11.9,63l0-0.2
	l-0.1-0.2l-0.2-0.2l-0.1-0.1l0-0.1l-0.2-0.3l-0.1-0.1l-0.2,0l0-0.1l0.1-0.1l0-0.2l-0.1-0.1l0-0.1l0.1-0.1l0.1,0l0-0.1L10.8,61
	l-0.1,0v-0.1l0.2-0.1l0-0.8l0-0.8l0.1-0.6l-0.1-0.2l0-0.2l0.1-0.2l0-0.2l-0.1-0.2l0-0.4L10.5,57l-0.1-0.4l0.1-0.2l-0.2-0.6l0-0.1
	l0.2-0.3l-0.1-0.2l0-0.2l-0.2-0.2l-0.3,0l-0.4,0.1L9.4,55L9,55.1l-0.2,0.2l-0.3,0.4l-0.3,0.1l-0.4,0L7.5,56l-0.1,0l0-0.2l0.2-0.3
	l-0.1-0.3l-0.3-1.2L7,53.5l-0.1-0.3l0.2-0.5l-0.5-0.1L6.2,53L6,52.8l-0.7,0l12.4-22.7l0.1,0.1h0.1l0.6,0.4l0.2,0l0.2,0.2l0.1,0.2
	l0.1,0l0.2,0.2v0.2l0.2,0.3l0,0.1l0,0.1l-0.1,0.2l0.1,0.2l0.1,0l0.1-0.1l0.1,0l0,0.3l0.1,0.3l0.4,0.4l0.2,0.1l0.1-0.1l0.1,0.1l0,0.2
	l0.1,0.1l0.1,0L21,34l0,0.3l0.1,0.1l0.1,0.2l0.2,0l0.2,0.3V35l0.1,0.1l0,0.2l-0.2,0.2l-0.1,0.2l0.4-0.4l0.2-0.1l0.1,0l0.1-0.3l0-0.6
	l0-0.3l0.1-0.2l0.4-0.1l0.3-0.2l0.2-0.2l0.2-0.1l0.1-0.1l0.1,0l0.2-0.1h0.2l0.1,0h0.2l0.1,0.1l0.3-0.3l0.1-0.2l0.1,0l0.2,0l0.1-0.1
	l0-0.1l0.2,0l0.1,0.1l0.6-0.1l0.5-0.2l0.2-0.1l0.1,0l0.1,0.2l0.1-0.1l0.1-0.2l0.4-0.2h0.2l0.1,0.1h0.1l0.1,0.1l0.2,0l0-0.1l0.1-0.1
	l0.2,0.1v0.2l0.1,0.1l-0.1,0.1h-0.1L28,32.6l-0.5,0.1l-0.4,0.1L27,33.1l-0.3,0.1l-0.2,0l-0.2,0.1h-0.1l-0.1-0.1l-0.3,0.2l-0.3,0
	l-0.1,0.1l-0.4,0l-0.2,0.1l-0.2,0.2l-0.5,0.2l0-0.1L24,33.9l0,0.2l-0.2,0.1L23.7,34l-0.2,0.2l-0.1,0.2l-0.1,0l-0.1,0.2l0.2,0.2
	l0.2,0.1l-0.2-0.2l0-0.1l0.2,0.1l0.1-0.1l0.2,0.1l-0.1-0.2l0.3-0.3l0.4-0.1h0.2l0.6-0.4l0-0.2l0.2,0l0.1,0.2l0.1-0.1l0.2,0l0,0.1
	l0.3-0.2l0.1,0.1l-0.3,0.3l0,0.2l0.2-0.4l0.3-0.1l0.6-0.5h0.3l0.2-0.2l0.4,0l0.2-0.1h0.2l-0.1,0.2l-0.3,0.1v0.2l0.2,0.1l0.3-0.3
	l0.5-0.2l0.1,0l0-0.1l0.2-0.2l0.2,0.1l0-0.2l0.1-0.1l0.1,0.1l0.2,0l0-0.3l-0.1-0.2L30,32l-0.1-0.1l0.2-0.3l0.3-0.1v0.3l0.1,0.8
	l-0.1,0.2l0,0.7l-0.2,0.4l0,1l0.1,0.3l0.2,0.1l0.1,0.3l0.3-0.2l-0.1-0.2h-0.2l-0.1-0.1l0.2-0.1l0.2,0.1l0.1-0.2l-0.1,0l0.2-0.2
	l0.3,0l0,0.2l0.2-0.2L31.4,34l0.2,0l0.4-0.2v-0.2l0.2-0.1l0,0.2l0,0.2L32,34.2l0,0.1l-0.2,0.2l0,0.1l0.1,0.1l0.2,0l0.1,0.1l-0.1,0.1
	l-0.2,0.1l-0.2,0.2l-0.1,0l-0.1,0.1l-0.2,0.2l0.1,0.1l0.3,0l0.2,0.1l0.2,0l0.2-0.2l0.2,0l0.2-0.4l0.2-0.2l0.2-0.1l0.1,0.1l0.2,0
	l0.2,0.1l0.2,0l0.3,0.2h0.2v0.2l0.2,0.5v0.3l0.2,0.4l0.9,0.5l0.1,0.2l0.3,0.1l0.3,0.3h0.1l0.2,0.1l0.1,0.2l0.1,0.1l0.1-0.1l0.1,0.1
	l0.3,0.2h0.2v0.2l0.1,0.2l0.1-0.2l-0.1-0.1l0-0.1l-0.2-0.2v-0.1l0.3,0.2l0.1,0.2l0.1,0l0.1-0.2l0.1,0l0.3,0.3l0,0.1l0.1,0.1l0.1,0.3
	l0.1,0.2l0,0.3l0.1,0.2L38.9,40l0,0.2l-0.2,0.2l-0.5-0.2l-0.3,0l0,0.1l-0.1,0.1l-0.3-0.1l-0.2,0l0.1,0.2l-0.2,0.1l0,0.2l-0.2,0
	l-0.2,0.1L37,41l0.2,0.1l0.1,0.2l0.2,0.1l0.1-0.1l0.2,0.2l0,0.2h0.3l0.3,0.2l0.4,0l0.4,0.2l0.3,0v-0.1l0.1,0l0.2,0.1l0,0.2l0.3-0.2
	l0.1,0.1l0.1,0l0.1-0.2l0.1,0l0,0.1l0.1,0L41,42l0.6-0.2l0.2,0l0,0.2L41.7,42v0.1l0.1,0l0,0.2l0,0.2l0.1,0.1l0.1,0l0.1-0.1l0.1,0.1
	l0,0.2L42,43.2l0,0.2l0.1,0l0.2-0.2l0-0.3l0.1-0.1h0.1l0,0.3l-0.1,0.3l-0.2,0.2l0,0.4l0.1,0.2l0,0.4L42.2,45l0.2,0.2v0.1l-0.1,0.2
	l0.1,0.1l0.1,0.3l0,0.7l0-0.7l-0.1-0.5l0.1-0.5l0.2-0.4l0.1,0v0.2l-0.1,0l0,0.2l0.1,0.1l0.1-0.1l0.1,0.1l0.1-0.1v-0.2l-0.1-0.2
	l0-0.1l0.2-0.1l0.1-0.1L43.1,44l0-0.1l0.1-0.4l0.2-0.5l0-0.2v-0.2l0.1-0.1l0.3,0l0-0.1l0.1-0.1l0.1,0l0.1,0.1l0.2-0.1l0.1-0.2l0.1,0
	v0.1l0.1-0.1l0.2,0l0.1-0.2h0.1l0.1,0.2l0.1,0l0.1,0.3l0-0.3l-0.1-0.2l0.2-0.3l0.1,0l0.1,0.1l0.2,0l0.1-0.1l0.1,0.1l0.2-0.3
	l-0.1-0.1l0.1-0.1l-0.2,0l0-0.1L46,41l-0.4,0.2l-0.1,0l-0.1,0.1l-0.2,0v0.1l0,0.1L45,41.3l0-0.2l-0.1,0.1l0,0.2l-0.1,0.1l-0.2-0.1
	h-0.2l0-0.1l-0.1,0l0,0.1l0.1,0.1v0.1l-0.2,0.1L44,41.7l-0.3,0l0-0.1l0.1-0.1l0.1-0.2l-0.1,0l-0.1,0.1l-0.2-0.1l0.1-0.2l0.2-0.1
	l0.3-0.4h0.2l0.2,0.1l0.8,0l0.5-0.2l0.1,0l0.3-0.1l0.1,0.2l0.1,0.1l0.1,0l0.1,0.2l0,0.4l-0.1,0.1l0.1,0.1l0,0.1l-0.2,0.1l0,0.1
	l0.1,0.1l0.1,0.4l0.2,0l0.1,0.1v0.1l-0.2,0.1l0,0.2l-0.1,0.1l0.2,0l0.2,0.1l0,0.1l0.1,0l0.1,0.2l0.2,0l0.2-0.1l0.1,0l0,0.1l0.1,0.1
	l0.1,0l0.1,0.1L48,43.4v0.1l0.1,0l0,0.1l0.3,0.3v0.2l0.2-0.2l0.1,0.1l0,0.2l0.1,0l0.2,0.2l0.2-0.1l0.4,0l0.1-0.2L50,44h0.1l0.1,0.1
	l0.4,0l0.4,0.3l0.2,0l0.2,0.2l0.1-0.1l0.4-0.1l0.1,0.2l0.1-0.1l0-0.2l-0.2-0.2l-0.1-0.3l0.1-0.1l0.1,0l0.1,0.3l0.1,0.3l0.3,0.4
	l0.1,0.1l0.1,0.2l0-0.4l-0.1-0.1l-0.3-0.1l-0.1-0.3L52,43.6l0.1-0.1l0.1,0l0,0.1l0.1,0.1l0.1-0.1v-0.1l-0.1-0.2l0.1-0.1l-0.1-0.1
	l0-0.1l0.2,0l0.1,0.2l0,0.1l0.1,0.1l0-0.1l0.2-0.1l0.1-0.2h0.2l0.1,0.2l-0.1,0.1v0.1l0.1-0.1l0.1,0l0.2,0.1l0,0.2l-0.1,0.1l0.1,0.1
	l0.2,0l0.1,0.1L53.8,44l-0.2,0.1l0,0.1l0.1,0.1l0.2-0.2l0.1-0.2l0.3-0.1l0.2,0l0,0.1l-0.1,0l-0.1,0.1l0,0.3l-0.3,0.2l0,0.1l-0.3,0.3
	v0.1l-0.1,0.1l0-0.2l-0.1,0.2l-0.1,0.4l0,0.1l0.2-0.1l0.1,0l0,0.2l-0.2,0.2l0,0.1l0.3-0.1l0.1-0.1l0.2,0l-0.1,0.2l-0.1,0.1l0.1,0
	l0.2-0.1l-0.1,0.3l0,0.2l-0.1,0.1l-0.2-0.1l-0.1-0.2l-0.3,0.1L53,46.3l-0.1,0l-0.1,0.3l0.1,0.2l0.1,0.3L53,47.5l0.2-0.4l-0.1-0.3
	l0.1-0.1l0.1,0.1l0.2,0l0.2,0.1l0.1-0.1l0-0.2l0.3-0.1l0.2-0.2l0.2,0l0.1-0.2l-0.2,0.1l-0.2,0l-0.1,0.2l-0.1,0.1l-0.1,0l0.1-0.2
	l0.1-0.1l-0.1-0.1l0-0.1l0.1-0.3l0-0.2l-0.1-0.1l0.1-0.1l0.2-0.3l0.1-0.3l0.2-0.2l0.1,0.1l-0.1,0.1l0.1,0l0.1-0.2l0.1,0.1l0.1,0
	l0.1,0.1l0.2,0l0.1-0.2l0.5-0.2l0.1-0.2l0-0.1l0.1,0l0.2-0.2l0.3,0l0.1-0.2l0-0.1l0.1-0.3l0.1-0.3l0-0.2L57,42.4l-0.1,0.1l-0.2,0
	l0,0.1l-0.1,0.2l-0.2,0l-0.1-0.1h-0.1l0-0.1l0.1-0.3h0.1l0.1-0.2l0.3-0.1l0-0.1l-0.1-0.1l0.2-0.2l0.2,0l0.2,0.1l-0.2,0.1l0,0.2
	l0.1,0l0.2-0.1l0.2-0.4l0-0.2l-0.2-0.1l-0.2,0l-0.1-0.1l-0.3-0.1l-0.1-0.3l0-0.2l-0.2,0.2h-0.1l-0.1-0.2l-0.2-0.1l-0.1-0.2l-0.1,0
	l-0.2,0l0-0.2L55.8,40l0.1-0.2l0-0.2l-0.1-0.2l0-0.5l0.1-0.2l0.4-0.3l0.2-0.1l0.2,0l0-0.1l0.2-0.1l0-0.1l-0.1,0l-0.2,0.1l-0.1-0.1
	l0-0.1l-0.1-0.2l0-0.2l0.3-0.3l0.2-0.4l0.1-0.1l0.1-0.3l0.1,0l0.2-0.2l0.3-0.1l0.1,0.1l-0.1,0.2l0.1,0.1l0,0.2l0.2-0.1l0-0.1
	l0.2-0.4V36l-0.2,0l-0.2-0.1l-0.1-0.2l0.2-0.2h0.3l0.1-0.1l0.3-0.2l0-0.2l0.2-0.1l0.2,0.1l0.3,0.1l0,0.2l0,0.1l0.1,0.1l0.2,0.2
	l0.2,0.1L59.9,36l-0.1,0l0,0.2l0,0.2l0.2,0.2l0.1,0.2l0,0.4l0.1,0.1v0.1l-0.2,0.2l0,0.2l-0.2,0.2l0,0.3l-0.1,0.1l0.1,0.2l-0.1,0.2
	l0.2,0.3v0.2l-0.1,0.1l0.1,0.2l-0.1,0.2v0.1l0.1,0l0.1,0.2l0,0.2l-0.2,0.1l-0.1-0.1l-0.2,0L59.5,40l0.1-0.2l-0.2,0.1l-0.1,0.2
	L59,40.2v0.1l0.3-0.1l0.1,0.1l0,0.1l-0.6,0.4l-0.1,0l0,0.1l-0.1,0.1l-0.1,0.2l0.1,0.1l0.2-0.1l0.1,0l0,0.2l0.2,0.2l0.3-0.1l0-0.2
	l0.2,0l0.1,0.1l-0.1,0.1v0.1l0.2,0.1l0.1,0.1l0.2-0.1l0.1,0.1L60.1,42l-0.2,0l-0.2,0.2l-0.1,0.1l0-0.3l-0.1,0l-0.1,0v0.1l0.1,0.2
	v0.2l0.2,0.3l0,0.3l0,0l0,0.2l-0.1,0.1l0,0.2l0,0.2l-0.2,0.3l0.1,0.1l0,0.2l-0.1,0.1l0,0.1l0.1,0l0.2-0.2l0.1-0.1l0.3-0.1l0-0.1
	l0-0.1l0.1-0.1l0.1,0.1l0.1-0.1v-0.4l0-0.2l0.3-0.2l0.2-0.4l0.1-0.2l0.1,0l0.1,0.1l0,0.2l0.2,0.4l0,0.3l0.2,0.2v0.2l-0.1,0.2
	l0.1,0.4l-0.1,0.2l-0.2,0.1l-0.1-0.1L61,44.8L60.9,45l0.1,0.2l-0.2,0.2l-0.1,0.3l0.1,0.1l0,0.4l0.2,0.7l0.2,0.3L61,47.4l0.2,0.2h0.2
	l0-0.3l-0.1-0.1l0.2-0.2l0.1,0l0.1,0.3l0.1,0l0-0.2l0.2-0.2l0-0.3l0.2-0.1l0.2-0.3l0.1,0l0.1-0.2l0.4-0.3l0.3-0.4l0.2-0.5l0.2-0.4
	l0.2-0.1l0.2,0.2l0.1-0.1l0.1,0.1l0.2,0l0-0.1l-0.1,0L64,44.1l0.1-0.1l0.2,0l0.1,0.1l0.1-0.1l0.2,0l0.1-0.1l-0.1-0.2l-0.1,0
	l-0.1-0.2l-0.1,0l0-0.3l0.1-0.1l0-0.2l0.1,0l-0.1-0.2l0-0.1l0.2-0.2l-0.1-0.1l0-0.1h0.2l0.1-0.2L64.8,42l-0.1-0.1l0.2,0l0.1,0.2
	l0.2,0l0.1-0.1l0.3,0l0.3,0.2l0,0.1l0.1,0.1l0.4,0.2l0.2-0.1l0.2,0.1l0.3,0.1v0.1L67.1,43l0.1,0.1L67,43.2l-0.1-0.1l-0.1,0l0,0.1
	l0.4,0.3l0,0.2l-0.2,0.1l0.1,0.1l0.2-0.1l0.3,0.1l0.1,0.1l0.1,0l0,0.1l-0.1,0.2l-0.3,0.3l-0.2,0l-0.2,0.1l0.3,0l0.1,0.1l0,0.2l0.1,0
	l0.1,0.1l-0.1,0.2l0.1,0.1l-0.3,0.2L67,45.5l-0.2,0l-0.1,0.1l-0.2-0.1l-0.2-0.2l-0.2,0l-0.1-0.1l-0.1,0l0,0.2L66,45.5l0.2,0l0.1,0.1
	l-0.1,0.1l-0.1,0.1l0.2,0l-0.1,0.2l0,0.1l0.1,0l0.1-0.1l0.1,0l-0.1,0.2l-0.3,0.1L66,46.6l0,0.2l0.2,0.2l0,0.1l0.2,0.5l0,0.3
	l-0.1,0.1l0,0.2l-0.3,0.2l0.1,0.2L66,48.7l-0.2-0.1l-0.3,0l-0.1,0.1l-0.1,0.2l-0.2,0.1L65,49.2l-0.2,0l-0.3,0.3l-0.1,0l-0.2,0
	l-0.1,0.2l-0.5,0.1l-0.1-0.1l0.1-0.1l-0.1-0.3l-0.1-0.2v-0.1l0.1,0l0-0.2l0.2-0.3l-0.2,0.2l-0.1,0l0-0.4l-0.1,0l-0.1-0.2l-0.2,0.1
	l-0.1-0.1l-0.2,0l-0.2,0.3l0.1,0l0.3-0.2l0.1,0.1l0,0.2l0.2,0.1l0.1,0.3l-0.1,0.3l0.1,0.1l0,0.3l-0.1,0.1l0.1,0.1l0,0.2l-0.1,0
	l-0.3-0.3l0-0.2l-0.1-0.1l0-0.2l-0.1,0.2l0.2,0.2l0,0.2l-0.2-0.1l-0.2,0l0-0.1l-0.1,0.1l0-0.1l0.1-0.3l0-0.1l-0.1-0.1l0-0.1
	l-0.3,0.1h-0.2L61.4,49l-0.2,0L61,48.9l0,0.2l0.1,0.1l-0.1,0.1l0,0.2l0.1,0.2l0.3,0l0.1,0.2l-0.2,0.3l-0.1,0l-0.5,0.4l-0.2,0.3
	l-0.2,0.3L60,51.1l-0.2,0.1l-0.1,0.3l-0.2,0.1l-0.7-0.1l-0.1-0.2l-0.1-0.2l-0.3-0.1l0-0.1l0.1,0l0.1-0.1l-0.1-0.1l-0.2-0.1L57.9,50
	l-0.3-0.2h-0.4l-0.3-0.2l-0.5,0l-0.2-0.1l0,0.1l0.1,0.1l0.1-0.1l0.1,0l0.5,0.2l0.4,0l0.1,0.1l0,0.1l-0.1,0l-0.1,0.1l0.1,0.1l0,0.4
	l0.1,0l0.2,0.5l0.1,0.3l0.4,0.1l0.4,0.1l0.8,0.2l0,0.2l-0.1,0.1l-0.2,0.2l-0.2,0.1l-0.3,0.4l0-0.1l-0.1,0.1l0,0.1l-0.7,0.7l-0.3,0.1
	L57.5,54l-0.2,0L57.2,54H57l0,0.1l-0.3-0.3l-0.2-0.1l-0.1,0.2l-0.1-0.1l-0.1,0l0.2-0.2l-0.1-0.1l0-0.1l-0.2,0.1L56,53.9l0-0.2
	l-0.1-0.3l-0.1,0.3l0.1,0.1l0,0.4l-0.3,0.4l-0.1,0l0-0.1l-0.2-0.3l-0.1,0.2l0.1,0.1l-0.2,0.1l0,0.2L55,54.7l-0.2-0.1l0-0.2l-0.2-0.1
	l-0.2-0.3l-0.4-0.2l-0.4-0.2l-0.1-0.3l-0.2-0.1l-0.3-0.2l-0.1-0.2l0,0.3l-0.2,0l0.1,0.3l0.2,0.2l0.1-0.1l-0.1-0.2l0-0.1l0.1,0
	l0.4,0.4l0.4,0.2l0,0.1l-0.3,0.2l-0.3,0l-0.1,0l0,0.1v0.1l0.1-0.1l0.4,0l0.2-0.2l0.1,0l0.1,0.2l0,0.3l0.4,0.5l0,0.5l-0.3,0.3l-0.2,0
	l-0.1,0.1l-0.2,0l-0.2-0.1l-0.5-0.1l-0.3-0.4L52.8,55l-0.2-0.1l-0.1,0.1l0,0.1l0,0.2l0.2,0.2l0.2,0.4l0.2,0.4l-0.1,0.1L53,56.4
	l-0.2,0l-0.1-0.3l0,0.1l-0.1,0.1l0.1,0.1l0.2,0.1l0.1,0.1l-0.4-0.1l-0.1-0.1l0,0.2l0.1,0.1v0.2l-0.2,0.2l0-0.2l-0.1,0l0.1,0.1l0,0.2
	l-0.1-0.1l-0.3,0l-0.1,0.1l-0.3,0.1l0.2,0.1l0,0.2l-0.1,0l0-0.1l-0.2-0.2l-0.2,0l0,0.1L51,57.5l0.3,0.2l-0.1,0.1v0.1l-0.2,0
	l-0.2,0.3l-0.3,0.1l0.1,0.1l-0.1,0.1h-0.1l-0.1,0.2l0,0.2L50.2,59l-0.3,0.4l-0.2,0.1l0,0.2l-0.2,0.2l-0.2-0.2l0,0.1l0.1,0.2
	l-0.2,0.2L49,60.6l-0.1,0.2l-0.1,0.3l-0.2,0.1l-0.2,0.4l0.1,0.1V62l-0.2,0.3l-0.1,0.2l-0.2,0.1L48,62.7l0.2,0l0.1,0.2l-0.1,0.2
	l0.1,0.1l0,0.3l0.1,0l-0.2,0.5l-0.3,0.3l-0.6,0.1l-0.1,0.2l0.3-0.2l0.5-0.1l0.4-0.5l0.3-0.5l0.6,0l0.2,0.1v0.2l-0.1,0.2v0.3l0.1,0.3
	v0.4l-0.2,0.4l0.1,0.2l0.1,0.4l-0.1,0.2l-0.7,0.6l-0.3,0.1l-0.2,0l0.2,0.1l0.3,0l0.8-0.2l0.8-0.3l0.4,0l0.5,0.3l0.3,0.3l0.5,0.1
	l0.1,0.1l0.2,0.1l0.3,0.3l0.2,0.1L53,68l0.2,0.1v0.2l0.1,0.2l0.1,0.4l0,0.1l0.1-0.1l0.1,0.1l0.4,0.3l0.2,0l0.3,0.2l0.2,0.1l0.4,0.3
	l0,0.2l0.3,0.3l0,0.1l0.1,0.1l0.3,0l0.1,0l0.2-0.1l0.5,0l0.1,0.1h0.1l0.3,0.1l0.4,0.1l0.3-0.1h0.2l0,0.1l0.1,0h0.1l0,0.3l-0.3,0.5
	l0,0.2L57.7,72l-0.2,0.3l0,0.2l0.1,0.1l0,0.5l-0.3,0.4v0.2l-0.1,0.3l-0.2,0.2L57,74.5l0.1,0.2l0.2,0.2v0.3l0.2,0.1l0.1,0.2l0,0.2
	l0,0.1l0,0.2l0.2,0.1L58,76h0.1l0,0.1l0.1,0.2l0,0.3l0.1,0.1l-0.1,0.3l-0.4,0.4l0.3-0.2l0.3-0.2l0.3,0.1l0.2,0.2l0.2,0l0.1-0.2v-0.2
	l0.4-0.4l0.1,0l0,0.2l0,0.1l0.1,0l0.1,0.4l0,0.3l0.2,0.2l0.4,0l-0.2-0.1l-0.2-0.2l0-0.3l0-0.3l0.1-0.1l-0.1-0.1l0-0.2l0.1,0l0.1,0
	l0.1-0.3l0.3-0.2l-0.1-0.1l0-0.3l-0.1-0.1l0-0.2l0.2-0.2l-0.1-0.1l0-0.1l-0.1,0l0-0.1l0.2-0.5l-0.1-0.2l0.1-0.4l0.1-0.1l0-0.2
	l0.1-0.1l-0.1-0.2l0.1-0.1l-0.1,0l-0.1-0.1l0.1-0.1l-0.1-0.2l0-0.2l-0.1-0.2l0-0.2l-0.1-0.1l0.3-0.1l0.4-0.1l0.2-0.2l0.2,0l0.1-0.1
	l0.4-0.2l0.7-0.2l0-0.1l0.1-0.1l0.5-0.2l0-0.2l0.2-0.1l0.3-0.5l0.1,0l0.1,0.1l0.2,0l0.2-0.2l-0.2-0.2l0-0.3l-0.1,0.1l0,0.2l-0.1,0
	l0.1-0.3l0.2-0.5l0.1-0.1v-0.4l0-0.3l-0.2-0.3l0-0.6l-0.1-0.6l-0.3-0.5l-0.2-0.2l-0.1-0.2l-0.2-0.1l-0.1-0.2l0.1-0.4l0.2-0.1
	l0.6-0.6l0.2,0l0.1-0.2l0-0.1l-0.1,0l0-0.1l0.2-0.3h0.1l0.1,0.3l0.1,0.1l-0.1-0.1l0-0.2l0.2-0.1l0.2-0.4l0-0.1H65l0-0.1l0.2-0.2
	l-0.1-0.1L65,62.1l0.1-0.2l0.2-0.1l-0.2,0l0-0.1l0.1-0.3l0.2-0.1l-0.1,0l-0.4,0l-0.1,0l0-0.2l0.5-0.4l0.3-0.4l0-0.2l0.1,0l0.1-0.1
	v-0.2l-0.1,0l0-0.1l-0.1,0l-0.1-0.2l0-0.4l0.1-0.3l0-0.3l0.2-0.1l0.1,0.1l0.1,0v-0.1l0.1-0.1l0.1,0l0.1-0.1l0.1,0.1l0.4,0l0.4,0.2
	l0.5,0.3H68L68,58.7l-0.3,0.1l0.4,0l0.3-0.2l0.2,0l0.1,0.1h0.2l0.2,0.2v-0.2l0.2,0.1l0.1-0.1l0.2,0l0.3-0.2l0.4,0.3V59l0.2,0.2h0.2
	v0.3l-0.1,0.2v0.2l0.1-0.1l0.2,0.2l0.1,0.2l-0.2,0l0.2,0.1l0.2-0.1l0.2,0.3l0,0.1l-0.2-0.1L71,60.8h-0.2L71,61v0.2l0.2-0.2v0.2
	l0.2-0.1l0.3,0.3l0.1,0l0.1,0.1l0.2-0.1l0.3,0.1l0,0.4l0.1,0.2l0.2-0.2l0-0.3l0.2,0l0,0.4l-0.1,0.4l-0.3,0.1l-0.2,0.3l0,0.5
	l-0.1,0.2l0-0.3l-0.1,0.1l-0.1,0.3l-0.5-0.1l-0.6-0.2l0.5,0.3l0.4,0.1l0.3,0.2l0,0.4l-0.2,0.3l0,0.1l-0.2,0.3l0.1,0l0.3,0.4l0.2,0.1
	l-0.1,0l-0.4-0.2l0.2,0.4l0.2,0.1l0.1,0l-0.1-0.2l0.2,0l0.2,0.2l0.1,0.2l0,0.2l0,0.2l-0.2,0.4l0,0.2l-0.2,0.2l0.2-0.1l0.3-0.6
	l0.3-0.3l0.1,0l0,0.2l0,0.4L73.2,67l0,0.2l-0.1,0.2l0.2-0.3l0-0.2l0.2-0.2l0.2,0l0.2-0.2l0.2,0l0,0.1l0.1-0.1l0.2,0l0-0.2l0.1-0.2
	l0.3-0.2l0.1,0.1l0.1,0.3l0,0.2l0.1-0.3l0-0.3l0.1,0l0-0.1l0.1-0.2l0.2,0l0.1-0.3l0.2-0.1l0.1-0.2l0.1-0.1l0.1,0l0.2,0.2l0-0.1
	l-0.1-0.2l-0.2,0l0-0.1l0.1-0.3l0.1-0.1l0.1,0.1l0-0.2l0.1-0.1l0-0.2l0.2-0.3l0.1-0.2l0-0.1L77,63l0.2-0.1l0.1,0.1l-0.2,0.1l0.2-0.1
	l0.1,0.1l-0.1,0.1l0,0.1l0.1,0.1l-0.1,0.2l-0.1,0l0,0l0.1,0l0.1,0L77.4,64l-0.1,0.1l0.2,0l0,0.2l-0.1,0.1l0,0.2l0.2,0.2l0,0.3
	l-0.1,0.1L77.4,65l-0.1,0.1l0.1,0.1l0,0.1h0.1l0.1-0.1l0,0.1l0.1,0.1l-0.2,0.3l-0.2,0.1l-0.2,0l-0.1,0.1l0.2,0.1l0.5-0.1l0.2,0
	L77.9,66l-0.2,0.2l0.2,0.1l0.2-0.1v0.2l-0.2,0.3h-0.3l-0.2-0.1l-0.1,0.1l0,0.1L77.3,67l0.3-0.1l0.3,0l0.2-0.1l0.1,0.1L78.1,67v0.1
	l-0.2,0.1h-0.2l-0.3,0.4l0.3-0.2h0.2l0.2-0.1l0.2,0v0.2l-0.2,0l-0.2,0.1L77.8,68l0.1-0.1l0.2,0.1l0.1-0.1l0.2,0.2l0.1,0.4l-0.2,0.2
	l-0.1-0.1l-0.1,0.1h-0.2l0.2,0.1l0.1,0l0.1,0.1l0.2,0l0.1,0.1L78.6,69l-0.1,0.1l0.2,0.1l0.2,0l0.2,0.2l0,0.2l-0.2,0.1l-0.3,0.2
	l-0.2-0.1l-0.1,0.1l0.2,0.1l0,0.1l-0.2,0L78,69.9l-0.3,0l0.3,0.2l0,0.2l0.2,0.2l0.1,0.1l0,0.1l-0.2,0l-0.1,0.1l-0.3,0L78,71l0.1,0
	l0-0.1l0.3-0.1l0.1,0V71l0.1,0.1l-0.1,0.1l0.1,0l0,0.1l0,0.2l0.1,0.1l0.2-0.1l0.1,0l0.1,0l0,0.3l-0.1,0.1v0.1l0.1,0l0.2-0.3l0,0
	l0,0.2l0.1,0.1l-0.3,0.2l-0.3,0.4l-0.2,0.1l-0.2-0.1l0.2,0.1l0.2-0.1l0.4-0.4h0.2l0,0.1l-0.2,0.1l-0.1,0.2l0.1,0l0.2-0.2l0.2-0.2
	l0.2,0v0.1l-0.2,0.1l-0.1,0.1l0.1,0l0.3-0.1l0.1,0.1l-0.3,0.2L79.7,73l0.1,0l0.2-0.1l0.4-0.3l0.1,0l-0.1,0.1l0,0.1l0.3-0.2l0,0.1
	l0,0.3l-0.1,0l0,0.1l0.2,0l0.2,0.1l0.2-0.2l0.3-0.1l0.1,0.1l-0.1,0.2h-0.1l-0.1,0.1l0.5,0.1l0.2,0.2l-0.3,0v0.1l-0.4,0.1l-0.1-0.1
	l-0.3,0.1l-0.2,0.2l-0.4,0l-0.6,0.1l0,0.1l0.4-0.1l0.4-0.1l0.1,0l0,0.1l-0.4,0.1l-0.4,0.1l-0.4,0.2l-0.1,0.1l-0.2,0l0,0.2l-0.1,0.1
	l-0.4-0.3l-0.2-0.4l0,0.2l-0.1,0.1l0.2,0.1l0,0.1l0.4,0.4l-0.1,0.1l-0.1,0l-0.1,0.1l0.1,0.2l0.1,0l0.1-0.1l0.1,0l0.2-0.4l0.3,0
	l0.2-0.2l0.2,0l0.1-0.2l0.2-0.2l0.2,0l0.3-0.1l0.3,0l0.2,0l-0.1-0.1h-0.2l-0.1-0.1l0.2-0.1l0.4-0.1l0.4,0.1l0.2,0.3l0,0.2L81.7,75
	l-0.1,0l-0.2,0.2l0.3,0l0.1,0.2l0.1-0.1l0.1-0.2l0.3-0.2l0.2,0l0,0.1l-0.1,0l0,0.1l0.3,0l0.3,0.1l0,0.1l-0.2-0.1l-0.1,0l0.1,0.2
	l0.3,0.1l0.1,0.2L83,76l-0.2-0.1l-0.2,0.2l0.3,0.1l-0.1,0.2l-0.1,0l-0.1,0.2l-0.2,0.1l-0.3-0.2l0.1,0.2l0.3,0.1l0.2,0L83,77L82.8,77
	l-0.2,0l-0.1,0l0.1,0.1l0.2,0l0.1,0.1l-0.1,0.2l0,0.2l-0.2,0l-0.1,0.2l-0.3,0.2l-0.2,0l-0.2,0.2h-0.1l-0.2,0.2l-0.1,0l0,0.1l-0.2,0
	l-0.1-0.1L81,78.4l-0.2,0l-0.1-0.1l-0.2,0.2l-0.2,0l-0.1-0.2l-0.1,0.1l0,0.1l-0.2,0l-0.2,0l-0.1,0.1l0.1,0l0,0.1l-0.2,0.1l-0.1,0
	l0,0.2l-0.1,0.3l-0.2,0L79,79.4l-0.2,0.1l-0.1,0.2l-0.1,0l-0.1,0.1l-0.2,0l0,0.1L78,80l-0.1-0.1l-0.3,0l-0.1-0.1l-0.2,0.1l-0.1,0
	l-0.5,0.2L76.4,80l0-0.1l-0.2,0L76.1,80L76,80l-0.3-0.1l-0.1,0l-0.2,0l-0.2-0.1H75l-0.1,0.1l-0.3,0l-0.3-0.2l-0.2,0.1l-0.2,0
	l-0.2-0.1l-0.2,0.1l-0.1,0l-0.1,0L73,79.6l-0.4,0.1l-0.3-0.1l-0.2-0.2l-0.2,0.1l-0.1,0.1l0.1,0.1l-0.1,0.1l-0.2,0l-0.4,0.4L71,80.3
	l0,0.2l-0.1,0.1l0,0.3L70.7,81h-0.3l-0.2,0.1l-0.4,0l-0.2,0.2l-0.1,0l-0.1-0.1l-0.2,0.1l-0.1,0.2l-0.2,0l-0.2,0.2l-0.1,0.1l-0.1,0
	l-0.3,0.4l-0.4,0.2L67.8,83l-0.3,0.1l-0.2,0.2l-0.2,0.1L67,83.7l-0.1,0.2l-0.5,0.3l0,0.2l-0.6,0.2l-0.3,0.1l0.3,0l0.6-0.2l0.5-0.2
	l0.4-0.2l0.3-0.4l0.2-0.3l0.2-0.1l0.5-0.5l0.7-0.5l0.5-0.3l0.3,0l0.3-0.2l0.5-0.1l0.7-0.2l0.2,0l0.2-0.1l0.7,0l0.4,0.1l0.4,0.3v0.1
	L73,81.8l0,0l0,0.1l0.2,0l0.2,0.1l0.1,0.1l-0.1,0.1l0.1,0.1l-0.2,0.4L73,82.7l-0.2,0.2l-0.2,0l-0.3,0.2l-0.2,0l-0.2-0.1l-0.2-0.1
	l-0.2,0.1l-0.2,0l-0.2,0l-0.3,0.1l0.3,0l0.3,0l0.4,0.1l0.1,0.2l0.1,0.1l0.2-0.1l0.2-0.1h0.2l0.1,0.1l0.2,0l0,0.1l-0.2,0.2l-0.3,0.5
	l-0.1,0l-0.1,0.1l0.4,0v0.1l-0.1,0.2l0.1,0.2l0,0.2l0,0.3l0.1,0.1l0.1,0.3H73l0.1,0.1l0.3,0l-0.1,0.2L73.1,86l0.3,0.2h0.3l0.2,0.1
	l0.1-0.1l0.3,0.1l0.1,0.1l0.4,0.1l0.1-0.1l0.3-0.2l0,0.2l-0.1,0.1l0.3,0l0.4,0.2l0,0.1l-0.1,0l-0.1,0l0.2,0.1l0.2,0L76,87l-0.2,0.1
	l-0.1-0.1l-0.2,0l-0.3,0.1l-0.5,0.3l-0.2,0l-0.4,0.1l-0.3,0.1l-0.3,0.2h-0.2l0,0.1l-0.3,0l-0.1-0.2l-0.1,0l-0.1,0.1l-0.1,0L72.5,88
	l0.1,0.1l-0.3,0.3l-0.3,0.4l-0.2,0L71.5,89l-0.1,0L71.3,89l0,0.2l-0.1,0.1L71,89.2l-0.1,0.1l-0.2-0.1l0-0.2l-0.1-0.1l-0.1,0.1l0-0.2
	l-0.1-0.2l0-0.2l0.2-0.3l0.3-0.2l0-0.2l0.4-0.2l0.5-0.1l0.4-0.2l0.3-0.1l0.1,0.1l0,0.2l0.1,0.1l0-0.1l0-0.1l0.2,0l0.3,0l0.2-0.1
	l-0.3,0l-0.4,0l-0.2-0.1h-0.2l-0.1,0.2L72,86.8l0.2-0.3l0.2,0l0.2-0.2l0-0.1l-0.1,0.1l0-0.1l-0.2,0.3l-0.2,0l-0.2,0.2l-0.3,0
	l-0.1,0.1L71,86.9l-0.1-0.1l0-0.1l-0.1,0l0.1-0.2l-0.2,0.2L70.7,87L70.5,87l-0.2-0.1l-0.1,0.1l-0.1,0l0-0.2l-0.2,0l-0.3-0.1l0,0
	l-0.1-0.1l0.1-0.1l0-0.1l0-0.1l0-0.2l-0.1-0.1l-0.1-0.1l-0.1,0l0.1-0.2l0.2-1.4l0-0.3l-0.4-0.4L69,83.9l-0.3-0.1l-0.2,0.1l-0.2-0.1
	l-0.1-0.1l-0.1,0L68,83.8L67.9,84l-0.4,0.4l-0.2,0.2l0,0.2L67,85l0,0.2l-0.1,0.2l-0.3,0.3l-0.1,0l-0.3,0.4l-0.1,0.2L66,86.5l-0.2,0
	l-0.1,0l-0.1,0.1l-0.1,0l-0.2,0.2l-3.1-0.1l-0.4,0.1l-0.2,0.2L61.3,87l-0.2,0.2l-0.5,0.4l-0.3,0.1l-0.2,0.1l-0.9,0.7l-2,0.6
	l-0.1,0.5l-0.5,0.2l-3.7,1l-0.2-0.3l0.2-0.3l0.4-0.2l0.2-0.2l0.1-0.2l0.1-0.3l0.1-1.4l-0.7-3.3L52.5,84l-0.3-0.3l-4.3-2l-0.2-0.1
	l-0.3-0.1l-0.1-0.1l-0.5,0l-0.1-0.2l-0.1-0.1l-0.2,0.1l-0.3,0L46,81.2L45.9,81l-0.2-0.1l-0.4-0.1l-0.1-0.2H45l-0.3-0.2l-0.2,0
	l-0.2-0.1l-0.2,0.1l-0.1,0L44,80.3l-0.2-0.1l0-0.1l-0.2-0.1l0,0l-0.1-0.2l0-0.1l-0.2-0.2l-0.2,0l-0.2,0L14.8,76.8z"/>
</svg>
