<?xml version="1.0" encoding="utf-8"?>
<!-- Generator: Adobe Illustrator 18.0.0, SVG Export Plug-In . SVG Version: 6.00 Build 0)  -->
<!DOCTYPE svg PUBLIC "-//W3C//DTD SVG 1.1//EN" "http://www.w3.org/Graphics/SVG/1.1/DTD/svg11.dtd">
<svg version="1.1" id="Layer_1" xmlns="http://www.w3.org/2000/svg" xmlns:xlink="http://www.w3.org/1999/xlink" x="0px" y="0px"
	 viewBox="0 0 612 792" enable-background="new 0 0 612 792" xml:space="preserve">
<path fill="#1C3664" d="M57.1,227.1l278.5,27.8h1.9h2.5l2.5,1.9v0.6l1.3,1.3l0.6,0.6l1.9,0.6l0.6,0.6l1.9,0.6l1.3,1.3h0.6l1.9-0.6
	l1.9,0.6h1.9l2.5,1.9h1.3l1.3,2.5l3.9,1.3l1.9,0.6l1.3,1.9l1.9,0.6h3.3l1.9-1.3l1.3,1.3l0.6,1.9h5.2l1.3,1.3l2.5,0.6l1.9,1.3
	l41.5,18.7l2.5,3.3l6.5,5.2l7.1,33l-0.6,14.3l-0.6,2.5l-1.3,2.5l-1.9,2.5l-3.9,1.3l-1.9,2.5l1.9,3.3l36.9-9.7l4.5-1.3l0.6-5.2
	l20.1-5.8l9.1-6.5l1.9-1.3l3.3-0.6l4.5-4.5l1.9-1.9l2.5-1.3l1.9-1.9l3.9-0.6l31.1,0.6l2.5-2.5h0.6l0.6-0.6h1.3l1.9,0.6l1.3-0.6
	l0.6-1.3l3.3-3.9l1.3-0.6l2.5-3.3l0.6-2.5l0.6-2.5l2.5-1.3v-1.9l1.9-2.5l3.9-4.5l0.6-1.9l1.9-1.9h0.6l1.3,0.6l1.3,1.3l1.9-0.6
	l3.3,0.6l0.6-0.6l3.9,3.9v3.3l-2.5,13.6l-0.6,1.3h0.6l0.6,1.3l0.6,1.3v1.9v1.3v1.3l-0.6,0.6l0.6,0.6l0,0l0,0l3.9,2.5l-0.6,2.5
	l1.3,1.9l0.6-1.3l1.9,1.3l-1.3,1.9h-1.9l-0.6-1.3l-2.5,1.3h-1.1l-1.9,1.3l-1.3,0.6l-1.9-0.6l-1.9,2.5h-1.3l-0.6-2.5H588l-1.9,1.9
	h-1.9l-0.6-1.9l0.6-1.9l-2.5,3.3l-1.9,3.3l-1.3,0.6l-0.6-1.3l-1.3,2.5h-1.3v-1.9l-1.3,1.9l-1.3,1.3l-1.3-0.6v-1l-1.3,1.9h-1.3
	l-1.3,2.5l-3.9,3.3l-1.3,3.9l-1.3,1.9l-0.6,1.3l-1.3,0.6v1.3h1.3v1.9l-3.9,3.3v1.3l2.5,1.3l1.3,3.3v1.9h3.3l0.6-2.5v-1.9h1.3
	l1.3,3.9l-1.3,1.9l-5.2,2.5l-1.3-0.6v-1.2l-1.3-1.9l2.5,4.5l-1.9,1.9h-1.3v-1.3v-1.9l-1.9-2.5v2.5v2.5l0.6,1.3l-1.3,0.6h-4.5
	l-2.5,0.6l-2.5-0.6h-3.9l-0.6-0.6h-1.3l-3.3,2.5h-3.1l-3.3,1.9l-1.9,0.6l-1.9,1.3v1.3l-2.5,1.9l0.6,1.3l1.3,1.3v1.3l-1.3,1.3v0.6
	l-0.6,1.9v0.6v1.9l-0.6,1.9h-1.4l-1.3,1.3l-0.6,3.3l-1.3,0.6l-0.6,1.3h-0.6v1.3l-1.9,1.9v-0.6l-1.3,1.3l1.3-2.5l-0.6-0.6l-1.3,0.6
	l-4.5-3.3l-0.6-1.3l0.6-1.3l3.3-3.9l-2.5,1.3l-1.9,1.9l-1.3,1.9v1.9l0.6,1.3v2.5l1.3,1.3l1.3,3.9v2.5l-0.6,3.3l-2.5,1.3l-1.9,4.5
	l-1.3,1.9v1.3v1.3v-0.6v-0.6l-1.9,3.9v1.3l-0.6,0.6v-1.9l0.6-2.5l1.3-1.9v-1.3l1.3-1.9l-1.9-1.3l1.9-1.3H501l-0.6-1.3l0.6-1.3v-0.6
	h-0.6v-0.6l-0.6,0.6l-1.9-1.9v-1.9l1.3-1.9l0.6-3.3l-1.9-2.5l1.3-2.5l1.9-1.3l-0.6-0.6l0.6-1.9l-0.6-0.6v0.6l-0.6,1.9l-1.9,1.9
	l-1.9,1.3h-0.6l1.3,1.3l-0.6,1.3l-0.6,3.3l0.6,1.3v1.3v1.9v3.9h-0.6l-2.5-3.3h-1.9l-1.3-2.5h-1.3l-0.6-1.3l0.6-1.9l-1.3,1.9v1.9
	l1.3,0.6l1.3,1.9l2.5,0.6l2.5,3.3l1.3,0.6v1.9v3.3h-1.3l-0.6-1.9l-1.3-0.6l0.6,2.5l2.5,1.3l0.6,1.3l-0.6,1.3v1.3l-1.9-0.6l2.5,2.5
	l-0.6,1.3l-1.3-0.6l-1.3-1.9h-2.5l-1.9-0.6l1.3,1.9l1.9,0.6h1.3l0.6,2.5l1.9,0.6l1.3-0.6l1.3,0.6l0.6,1.9l-0.6,1.9l-1.3-0.6v1.3
	l0.6,0.6l0.6,2.5l-0.6,1.3h-1.9l-0.6,0.6l-2.5,0.6l-1.3,1.3l-1.3-0.6l-1.3-1.9l-0.6,0.6v3.3l-0.6,1.3l1.9-0.6l4.5-0.6l0.6,0.6v3.3
	l1.3,0.6v-1.3l1.3-1.9h0.6l0.6,1.9l-0.6,2.5h-0.6l-1.9,1.9l-0.6,1.3l-0.6,0.6l-1.3-0.6h-1.3l-2-3.6v1.3l-1.3,0.6l-1.3-0.6h-1.3
	l1.3,1.3l2.5,0.6l0.6,1.3l-1.3,0.6l0.6,0.6l-2.5,1.3l-3.3-0.6l1.9,1.3h2.5l1.9-1.9l0.6,0.6h0.6l-1.9,2.5h-1.9v-0.6h-1.3l-0.6,0.6
	h-2.5l-5.2,3.9l-5.2,4.5l-1.9,3.3h-0.6l-1.3-0.6l-3.3,0.6l-2.5,1.9l-3.9,5.2v1.3l-1.9,1.3H456v1.3l-1.9,1.9l-1.3-0.6h-1.3l-0.6,1.3
	H449l-1.3,1.3l-3.3,0.6l-0.6,1.3H442v1.3h-2.5h-0.6l0.6,0.6v1.9l-1.7,2.3h-0.6l-1.3,1.9h-1.9l-1.9,3.3l-1.3,3.3v3.9l-0.6,6.5v3.3
	l-0.6,4.5l1.3,3.3l0.6,4.5l0.6,1.9l1.3,5.2l1.3,1.9l0.6,1.9l-0.6,1.9v3.3l0.6,1.3l1.3,7.1l1.9,1.3l0.6,3.3l-1.3,1.3l0.6,0.6
	l-0.6,3.9l-0.6,1.3v1.9l-1.9,3.9l-1.3,2.5v0.6v2.5l-1.9,0.6l-1.9,0.6l-1.9-0.6l-1.3-1.3h-2.5l1.3-0.6l-2.5-1.9V578l-0.6-1.3h-1.9
	l-0.6-0.6v-2.5v-1.9l-2.5-1.9v-1.3l0.6-1.3l0.6-1.9l1.3-1.3h-2.3l-0.6-0.6v0.6l-0.6,0.6l-0.6-1.9h-0.6l-0.6-1.3l-1.3-1.3v-1.9
	l-0.6-1.3l2.5-3.9v-1.9l-1.3-0.6l-0.6,0.6l0.6,0.6l-2.5,2.5v0.6l-1.3-1.9v-1.3l1.9-3.9l1.3-5.2v-2.5l-1.3-2.5h-1.3l-0.6-1.3v-0.6
	h-0.6l-1.3-1.3v-1.9h-0.6l-2.5-2.5l-1.3-3.9l-2.5-0.6l-1.3-0.6l-1.9,0.6l-1.3,1.3v0.6l-0.6,0.6l-0.6-0.6l-2.5,1.9H391l-3.3,0.6
	l-0.6-0.6v-0.6v0.6h0.6l-0.6-1.3l-1.3-1.3l-3.1-2.5h0.6l1.3,0.6l0.6-0.6l-1.3-1.9l-0.6-1.3h-0.6v1.3l1.3,1.3l-2.5-1.3l-1.9-1.3H377
	l-2.5-0.6l0.6-0.6h2.5l1.3-0.6l-0.6-0.6h-2.5l-2.5,1.9h-0.6l-3.3,0.6l-1.3-0.6l-1.3,0.6h-3.3l-1.9,0.6l-1.9-2.5v-1.3v-1.3h-1.3
	l-0.6,1.9l-1.3,1.9h-1.3l-1.3,0.6l-2.5-0.6l-6.5,1.3l-1.3,0.6l-3.3,1.3l-1.9,1.9v1.3l1.3-0.6l1.3-1.3h0.6l0.6,1.3l1.9,0.6l-0.6,0.6
	l-3.3,1.9v1.9l0.6,1.3l3.3,1.3l2.5,1.9v0.6l-1.9,0.6l-0.6,1.3v-1.9l-1.7-0.4h-1.3l-1.3-1.3l-1.3-0.6l-1.3-2.5h-1.9l0.6,1.9v2.5
	l-1.9,0.6l-0.6-0.6l-1.9-1.3l-1.3,0.6l-1.3,1.3l-2.5-0.6l-1.3-0.6h-1.9l-1.3-0.6l0.6-1.3l1.3-1.3l-0.6-1.3h-1.9l-0.6-0.6v-1.3l0,0
	H319h-0.6l0.6-1.3l-1.3-0.6l-1.9,0.6v1.3l0.6,1.3h-1.9l-6.5-0.6l-1.3-0.6l-5.2-1.3h-2.5l-3.9,0.6l-1.3,1.3h-1.3l-1.9,2.5h-3.3
	l0.6-1.9l-0.6-1.3l1.3-1.9l-0.6-1.9v1.3l-1.9,1.9H285l-1.3-1.3l1.3,3.3v1.9l0.6,1.9l-1.9,1.3h-1.3l-3.3,3.3l-4.5,1.9h-1.3l-1.9,1.3
	h-1.3l1.9-1.9l-1.9-1.3l-1.3,1.3l-0.6-0.6l-1.9,1.3l1.3,1.3l-1.9,0.6l-1.9-0.6v2.5l-1.3,0.6l-1.3-0.6l-1.9,2.5l1.3,1.3l-1.9,1.9
	l-1.3,0.6l0.6,3.9l-1.9,1.9l-0.6,3.3l-1.3,2.5l0.6,1.9v4.5l0.6,1.3l-0.6,2.5l-1.3,3.3l-0.6-0.6l-1.3-1.3l-1.9-0.6l-1.9-1.3l-3.3-1.3
	l-1.9-1.9l-1.3-0.6h-1.3l-1.3-0.6l0,0l-0.6-1.3v-2.5l-1.9-6.5v-0.6V556v-1.9v-1.9l-1.9-1.9l-1.3-1.9l-0.6-1.9l-1.9-0.6v-0.6
	l-0.6-0.6l-1.3-3.9l-0.6-1.3l-1.3-0.6v-2.9V534l-0.6-0.6l-0.6-1.9l-2.5-2.5l-1.9-1.9l-0.6-1.3l-1.3-0.6H218l-0.6-0.6l-0.6-0.6h-1.9
	h-1.9H211l-0.6,1.3h-0.6v-0.8h-0.6l-1.3,0.6l-1.3,1.3l-1.9,2.5L204,530v0.6v0.6h-1.3l-1.3,1.3v0.6l-1.3,0.6h-0.6l-0.6-0.6l-1.9-1.3
	l-1.9-0.6v-0.6l-1.9-1.3H192l-1.9-0.6v-0.6l-0.6-0.6l-1.3-0.6h-0.6l-0.6-0.6h-0.6v-0.6v-1.3l-1.9-1.9l-1.9-1.9v-0.6h1.3l0.6-0.6
	v-1.9l-1.3-1.3l-0.6-0.6h-0.6l-0.6-0.6v-2.5l-0.6-1.3l-1.9-1.3l-1.3-0.6l0.6-0.6v-0.6l-1.9-1.3l-1.9-0.6l0.6-1.3l-0.6-1.3h-0.6v-1.3
	l-0.6-1.3l-1.9-2.5l-1.9-1.3H151v3.9l-30.5-0.6l-38.3-17.5l0.6-0.6l-0.6-0.6l-25.9,0.6v-1.9l0.6-2.5l-0.6-3.3l-3.9-5.8l-2.5-2.5
	h-1.3h-1.3l-0.6-0.6v-1.9l-0.6-1.3l-2.5-0.6h-1.9l-2.5-1.3v-1.9l-1.3-1.3h-2.5H34l-1.9-1.3l-2.5-0.6h-3.9l-1.3-0.6l-0.6-1.9h0.6
	l0.6-1.9l0.6-3.3V445l-1.9-1.9v-0.6l0.6-0.6l-1.3-0.6l-1.9-1.9l-1.9-4.5l-0.6-3.9l-1.9-1.3v-1.3v-2.4v-2.5v-0.6h0.6l1.3-1.3v-1.9
	l-1.3-1.3l-1.9-1.3l-0.6-1.9l-1.3-0.6v-1.9l0.6-1.9v-1.3l1.3-1.3v-1.3l0.6-1.3l0.6,0.6l0.6,1.9l1.9,0.6l-0.6-0.6l-0.6-1.9v-2.5
	l-0.6-0.6v-1.3H18l0.6,0.6l1.9-0.6l2.5,1.3h-2.5l-0.6-0.6H18v-0.6l-0.6,0.6l-1.3-0.6v2.5v2.5h-0.6h-0.6l-0.6-1.3l-2.5-2.5l-0.6-3.3
	l0.6-1.3v-1.9l-4.5-7.1l-0.6-1.3l0.6-1.3l0.6-1.9v-2.5l-0.6-1.9V380l1.3-1.9l0.6-2.5v-4.7L6.5,367l-1.9-2.5v-2.5l1.3-2.5l3.3-1.9
	l1.3-2.5l-0.6-0.6V353l0.6-0.6l1.3-2.5l0.6-4.5l-0.6-2.5v-1.9l0.6-1.3l-1.9-1.9v-2.5l1.3-3.9v-3.9l0.6-1.9l2.5-3.3l0.6-1.9l1.3-1.9
	L18,315l1.9-2.5l1.3-3.3l0.6-5.8l2.5-5.2l0.6-4.5l3.3-6.5l1.3-2.5l1.9-3.3v-1.3v-1.9l1.9-2.5v-1.9l0.6-0.6l1.3,0.6h3.6l1.3,1.3h1.3
	l1.3,1.9l1.3,2.5l-0.6-2.5l-1.3-1.3l-1.9-0.6l-1.9-1.3H35l-3.3-0.6v-1.3l0.6-1.3H33l1.3-1.3v-1.9l0.6-1.9l-1.9-0.6v-0.6l0.6-1.9h1.3
	l0.6-1.3v-0.6l-1.3-0.6v-1.3l0.6-2.5l-0.6-2.5l1.3-5.2l-1.3-3.9v-1.9l1.9-3.9v-3.1h0.6l5.2,4.5l2.5,1.9H49l1.9,0.6l1.3,1.9l1.3-0.6
	h1.3l0.6,1.3l-0.6,1.3l-1.9,0.6l-1.9,1.9v1.3h1.9l0.6-1.3l1.9-1.9h1.3v1.9l-1.9,1.3l-1.3,2.5v2.5l-0.6,0.6V254l-1.3,1.3l-0.6-0.6
	l-1.3,1.9l0.6,1.3l1.9,0.6l2.5-1.3l0.6-1.9l1.3-1.3v-2.5l1.3-1.3l0.6-2.5l1.9-1.3l1.9-1.9l-1.3-1.3v-1.3l-0.6-0.6l1.3-1.9l0.6-0.6
	l-1.3-1.3v-2l1.9-1.3v-1.3l-5.8-1.9L57.1,227.1L57.1,227.1z M560.8,379.2l0.6,0.6h1.3l0.6-0.6h1.3l-0.6-1.3H562l-0.6,0.6
	L560.8,379.2L560.8,379.2z M528.4,388.3l-0.6,0.6l1.3-0.6l0.6-0.6h2.5l1.9-0.6h3.3l1.9-0.6h3.3l0.6-0.6h0.6l2.5-0.6l1.3-1.3
	l-1.9,0.6l-1.3-0.6l-1.9,0.6l0.6-1.3l0.6-0.6V382l-3.3,1.9h-3.3l-2.5,0.6l-1.9-0.6l-3.3,1.3l-1.9,0.6l-1.3,1.3v0.6L528.4,388.3
	L528.4,388.3z M57.1,237.5l-1.9,1.9v3.3l1.3,3.3l0.6-0.6l-1.3-3.9l0.6-1.9l1.3-0.6L57.1,237.5L57.1,237.5z M260.3,550.2l0.6-0.6
	l1.9-2.5l1.3-1.9l-1.9,1.9L260.3,550.2L260.3,550.2z M257.8,556l0.6-0.6l1.3-2.5v-1.3L257.8,556L257.8,556z M257.1,570.9l-1.3-3.9
	v-4.5l1.3-5.2l-1.3,4.5v5.2C255.1,567,257.1,570.9,257.1,570.9z"/>
</svg>
